<?xml version="1.0" standalone="no"?>
<!DOCTYPE svg PUBLIC "-//W3C//DTD SVG 20010904//EN"
 "http://www.w3.org/TR/2001/REC-SVG-20010904/DTD/svg10.dtd">
<svg version="1.0" xmlns="http://www.w3.org/2000/svg"
 width="1024.000000pt" height="1024.000000pt" viewBox="256 256 512 512"
 preserveAspectRatio="xMidYMid meet">

<g transform="translate(0.000000,1024.000000) scale(0.100000,-0.100000)"
fill="currentColor" stroke="none">
<path d="M3217 6980 c-13 -19 -12 -29 8 -93 27 -83 96 -285 184 -537 l61 -175
551 -551 c303 -303 550 -556 548 -562 -2 -5 -118 -126 -257 -267 l-253 -257
-47 42 c-26 23 -74 71 -108 106 -85 90 -96 89 -201 -27 -55 -60 -83 -99 -83
-115 0 -17 44 -67 170 -190 94 -92 170 -173 170 -181 0 -8 -78 -94 -172 -191
-95 -97 -207 -214 -249 -258 -68 -72 -82 -82 -122 -88 -64 -10 -127 -54 -168
-117 -32 -50 -34 -59 -34 -139 0 -68 5 -93 22 -126 83 -156 294 -192 422 -71
45 43 81 121 81 177 l0 45 250 250 250 250 173 -173 c101 -100 181 -172 192
-172 17 0 154 134 191 187 21 30 13 42 -95 148 -50 49 -90 92 -89 96 2 5 119
124 260 267 l257 259 260 -261 261 -261 -100 -100 c-75 -75 -100 -106 -100
-125 0 -20 23 -49 94 -118 51 -51 99 -92 107 -92 7 0 91 78 186 172 l173 173
250 -250 250 -250 0 -45 c0 -51 24 -110 65 -158 71 -85 201 -116 303 -72 207
89 219 385 20 484 -29 14 -64 26 -80 26 -22 0 -50 23 -145 123 -65 67 -180
186 -256 264 l-139 141 176 178 c117 118 176 186 176 200 0 29 -155 198 -186
202 -19 3 -49 -20 -137 -102 l-112 -106 -259 259 -259 260 150 158 c83 87 332
338 554 558 l402 400 67 190 c37 105 98 281 136 393 l68 202 -21 21 -20 21
-388 -128 -387 -128 -556 -561 -557 -561 -550 556 -550 556 -390 132 c-214 73
-393 132 -397 132 -4 0 -13 -9 -21 -20z m434 -206 l316 -106 549 -549 c302
-303 550 -551 552 -553 1 -2 -41 -47 -95 -100 l-97 -97 -515 515 c-370 370
-522 516 -538 516 -22 0 -50 -35 -39 -48 3 -4 239 -240 523 -524 l518 -518
-93 -92 -92 -93 -548 548 -547 547 -113 323 c-61 177 -112 326 -112 330 0 4 3
7 8 7 4 0 149 -48 323 -106z m3216 -96 c-38 -112 -88 -258 -110 -326 l-42
-122 -1081 -1085 c-594 -597 -1085 -1085 -1090 -1085 -5 0 -49 39 -97 88 l-87
87 1055 1055 c751 751 1055 1060 1053 1074 -2 10 -13 26 -26 34 -23 15 -38 1
-1083 -1044 l-1059 -1059 -89 89 -90 89 77 82 c42 46 528 539 1079 1098 l1003
1015 312 105 c172 58 320 106 329 106 13 1 2 -40 -54 -201z m-987 -1941 l254
-258 -92 -92 -92 -92 -263 264 -262 263 95 89 c52 49 97 88 100 87 3 -2 120
-119 260 -261z m-245 -237 l260 -260 -93 -92 -92 -93 -259 259 -260 259 86 94
c48 51 89 93 92 93 3 0 123 -117 266 -260z m892 45 c-1 -5 -199 -205 -439
-444 l-437 -434 -39 34 c-79 69 -115 21 379 515 l444 444 47 -52 c26 -29 46
-57 45 -63z m-2262 -332 c239 -238 435 -437 435 -441 0 -14 -80 -102 -93 -102
-10 0 -877 854 -885 872 -5 10 89 109 99 106 5 -2 204 -198 444 -435z m-157
-176 l72 -72 -240 -240 c-132 -132 -240 -234 -240 -227 0 20 -68 89 -106 107
l-35 16 150 157 c257 269 316 329 321 331 3 0 38 -32 78 -72z m2350 -172 l231
-240 -32 -17 c-18 -9 -52 -38 -76 -63 l-44 -47 -228 228 c-126 126 -229 233
-229 239 0 12 132 146 141 143 3 -2 110 -111 237 -243z m367 -315 c28 0 90
-51 111 -91 17 -33 19 -116 3 -156 -24 -65 -87 -105 -165 -107 -123 -1 -209
130 -160 247 16 40 77 95 114 103 15 3 32 7 37 9 6 2 16 2 23 -1 8 -2 24 -4
37 -4z m-3282 -14 c38 -16 94 -76 103 -112 12 -48 -2 -121 -30 -159 -90 -117
-270 -83 -311 59 -42 149 95 272 238 212z"/>
</g>
</svg>
