<?xml version="1.0" standalone="no"?>
<!DOCTYPE svg PUBLIC "-//W3C//DTD SVG 20010904//EN"
 "http://www.w3.org/TR/2001/REC-SVG-20010904/DTD/svg10.dtd">
<svg version="1.0" xmlns="http://www.w3.org/2000/svg"
 width="1024.000000pt" height="1024.000000pt" viewBox="245 280 530 530"
 preserveAspectRatio="xMidYMid meet">

<rect x="245" y="280" width="530" height="530" fill="#020617" rx="200"                  
    stroke="#020617" 
    stroke-width="1"/>
<g transform="translate(0.000000,1024.000000) scale(0.100000,-0.100000)"
fill="#93c5fd" stroke="none">
<path d="M4436 6621 c-12 -19 -7 -452 5 -467 7 -9 30 -14 60 -14 l49 0 0 -535
0 -535 -50 0 c-45 0 -52 -3 -60 -26 -6 -14 -10 -57 -10 -95 l0 -69 -80 0 -80
0 0 83 c0 116 -2 117 -162 117 l-125 0 -6 68 c-13 130 -15 123 78 221 l85 90
0 178 c0 236 10 223 -165 223 -157 0 -155 1 -155 -104 l0 -66 -55 0 c-30 0
-58 -1 -62 -2 -5 -2 -9 30 -10 70 -1 40 -7 80 -13 88 -16 19 -279 21 -298 2
-7 -7 -12 -42 -12 -85 l0 -73 -70 0 -70 0 0 73 c0 43 -5 78 -12 85 -8 8 -54
12 -139 12 -103 0 -131 -3 -143 -16 -13 -13 -16 -45 -16 -194 l0 -179 32 -38
c18 -21 56 -64 85 -95 47 -50 53 -61 53 -100 0 -45 -33 -971 -50 -1398 -5
-135 -12 -333 -16 -440 l-6 -196 36 -32 c78 -68 287 -107 536 -99 226 8 378
44 432 103 9 11 18 37 20 59 l3 40 1035 3 c569 2 1054 0 1078 -3 40 -6 42 -8
42 -39 0 -99 194 -160 510 -160 247 0 420 37 484 103 l28 29 -17 428 c-8 236
-22 629 -30 874 -17 535 -25 719 -32 743 -3 12 23 46 86 111 l91 94 0 185 c0
155 -3 188 -16 201 -12 13 -40 16 -143 16 -85 0 -131 -4 -139 -12 -7 -7 -12
-42 -12 -85 l0 -73 -65 0 -65 0 0 69 c0 100 -1 101 -171 101 l-139 0 -10 -26
c-6 -14 -10 -52 -10 -85 l0 -59 -65 0 -65 0 0 73 c0 43 -5 78 -12 85 -17 17
-269 17 -286 0 -8 -8 -12 -68 -12 -204 l0 -192 80 -86 80 -86 0 -77 c0 -131 9
-123 -140 -123 -161 0 -160 1 -160 -116 l0 -85 -82 3 -83 3 -3 80 c-2 43 -8
85 -14 92 -6 7 -30 13 -54 13 l-44 0 -1 318 c-1 174 -2 331 -2 347 0 17 0 114
1 218 l2 187 55 0 c50 0 56 2 65 26 6 14 10 114 10 222 0 163 -3 201 -16 220
-14 21 -21 22 -168 22 -105 0 -156 -4 -164 -12 -7 -7 -12 -44 -12 -95 l0 -83
-80 0 -80 0 0 83 c0 51 -5 88 -12 95 -8 8 -60 12 -170 12 l-158 0 -10 -26 c-6
-14 -10 -57 -10 -95 l0 -69 -75 0 -74 0 -6 33 c-3 17 -6 59 -8 92 l-2 60 -167
3 c-91 1 -169 -2 -172 -7z m264 -144 c0 -107 4 -111 137 -115 60 -2 124 0 143
5 l35 9 5 85 5 84 98 3 97 3 0 -78 c0 -43 5 -85 10 -93 7 -12 37 -16 139 -18
120 -3 131 -2 150 17 18 18 21 33 21 96 l0 76 98 -3 97 -3 0 -160 0 -160 -615
0 -615 0 -3 163 -2 162 100 0 100 0 0 -73z m900 -872 l0 -535 -58 0 c-32 0
-63 -5 -70 -12 -7 -7 -12 -44 -12 -95 l0 -84 -82 3 -83 3 -3 80 c-2 43 -8 85
-14 92 -8 10 -50 13 -164 13 -180 0 -174 4 -174 -115 l0 -76 -82 3 -83 3 -3
80 c-2 43 -8 85 -14 92 -6 8 -32 13 -64 13 l-54 0 0 535 0 535 480 0 480 0 0
-535z m-2460 170 c17 -6 20 -15 20 -74 0 -98 8 -104 149 -98 68 3 116 9 126
17 11 9 15 32 15 86 l0 74 80 0 80 0 0 -70 c0 -102 10 -110 147 -110 137 0
143 5 143 107 l0 74 78 -3 77 -3 3 -137 3 -138 -525 0 c-289 0 -526 3 -529 8
-2 4 -1 66 1 137 l4 130 54 3 c30 2 63 0 74 -3z m3200 -64 c0 -102 11 -111
139 -111 55 0 111 4 125 10 24 9 25 14 28 87 l3 78 83 3 82 3 0 -81 c0 -77 1
-81 26 -90 34 -13 210 -13 235 0 16 9 19 22 19 85 0 73 0 74 28 77 15 2 51 1
80 0 l52 -4 0 -134 0 -134 -525 0 -525 0 0 139 0 138 75 2 75 2 0 -70z m-2386
-326 c-15 -20 -35 -40 -45 -45 -10 -6 -172 -10 -385 -10 l-368 0 -38 37 c-21
20 -38 41 -38 45 0 4 203 8 451 8 l450 0 -27 -35z m3166 -10 l-44 -45 -370 0
-370 0 -38 37 c-21 20 -38 41 -38 45 0 4 203 8 452 8 l452 0 -44 -45z m-3226
-257 c3 -73 8 -221 11 -328 4 -107 17 -478 31 -825 31 -819 33 -732 -18 -755
-172 -75 -611 -74 -768 3 l-45 22 3 120 c1 66 9 284 17 485 15 352 45 1280 45
1368 l0 42 359 0 359 0 6 -132z m3176 65 c0 -126 33 -1052 60 -1707 12 -273
17 -253 -80 -280 -219 -59 -565 -52 -722 16 -26 11 -48 25 -51 31 -2 7 0 95 4
197 20 460 40 961 49 1260 6 179 13 376 16 438 l6 112 359 0 359 0 0 -67z
m-2957 -193 l77 0 0 -77 c0 -111 3 -113 157 -113 68 0 133 5 144 10 16 9 19
22 19 95 l0 85 93 0 92 0 3 -83 c2 -62 7 -85 19 -94 21 -16 255 -18 284 -3 16
9 19 22 19 95 l0 85 95 0 95 0 0 -75 c0 -111 6 -115 169 -115 161 0 161 0 161
111 l0 79 95 0 95 0 0 -85 c0 -73 3 -86 19 -95 28 -15 240 -13 271 3 23 12 25
19 28 93 l3 81 88 7 c126 9 122 13 116 -103 -5 -82 -25 -622 -51 -1343 l-7
-188 -298 0 -299 0 0 328 c0 261 -3 340 -15 387 -39 154 -128 266 -261 332
-78 38 -78 38 -204 38 -126 0 -126 0 -202 -38 -128 -63 -216 -169 -264 -317
-15 -47 -18 -104 -22 -392 l-4 -338 -293 0 -293 0 -6 103 c-3 56 -13 300 -21
542 -9 242 -20 561 -25 708 -6 148 -7 273 -4 279 3 5 16 7 28 4 11 -3 56 -6
99 -6z m1169 -652 c71 -33 146 -102 181 -166 50 -92 57 -148 57 -494 l0 -318
-400 0 -400 0 0 328 c0 346 4 382 49 471 43 83 149 169 251 202 14 5 66 7 115
6 72 -2 101 -8 147 -29z"/>
<path d="M5050 5898 c-71 -49 -75 -60 -78 -255 -4 -225 -12 -213 153 -213 81
0 125 4 133 12 19 19 16 360 -3 398 -38 74 -140 102 -205 58z m114 -79 c26
-20 26 -21 26 -165 l0 -144 -65 0 -65 0 0 142 c0 132 2 143 22 165 27 28 48
29 82 2z"/>
<path d="M3462 4951 c-66 -42 -72 -65 -72 -268 0 -170 1 -183 19 -193 11 -5
69 -10 130 -10 86 0 113 3 125 16 24 23 23 341 0 390 -35 73 -136 106 -202 65z
m114 -86 c24 -24 25 -27 22 -162 l-3 -138 -62 -3 -63 -3 0 142 c0 133 2 144
22 166 28 30 53 29 84 -2z"/>
<path d="M6614 4926 l-44 -43 0 -191 c0 -179 1 -192 19 -202 11 -5 69 -10 130
-10 86 0 113 3 125 16 24 23 23 341 0 391 -25 51 -78 83 -138 83 -44 0 -53 -4
-92 -44z m145 -62 c19 -24 21 -40 21 -165 l0 -139 -65 0 -65 0 0 145 c0 132 2
147 20 165 28 28 64 25 89 -6z"/>
</g>
</svg>
