<?xml version="1.0" encoding="UTF-8"?>
<svg version="1.1" xmlns="http://www.w3.org/2000/svg" width="1024" height="1024">
<path d="M0 0 C337.92 0 675.84 0 1024 0 C1024 337.92 1024 675.84 1024 1024 C686.08 1024 348.16 1024 0 1024 C0 686.08 0 348.16 0 0 Z " fill="#F8F8F8" transform="translate(0,0)"/>
<path d="M0 0 C0.71353638 0.00202423 1.42707275 0.00404846 2.16223145 0.00613403 C2.89091431 0.00517731 3.61959717 0.00422058 4.37036133 0.00323486 C5.91377855 0.00255318 7.45719861 0.00440666 9.00061035 0.00857544 C11.37095544 0.01392391 13.74111104 0.00863011 16.1114502 0.00222778 C17.60754437 0.00288857 19.10363842 0.00416973 20.59973145 0.00613403 C21.67003601 0.00309769 21.67003601 0.00309769 22.76196289 0 C27.76602953 0.02399462 27.76602953 0.02399462 28.88098145 1.13894653 C28.96730019 2.48162066 28.98804618 3.82868975 28.9786377 5.17410278 C28.97541504 5.9829895 28.97219238 6.79187622 28.96887207 7.62527466 C28.96049316 8.47541138 28.95211426 9.3255481 28.94348145 10.20144653 C28.93896973 11.05545044 28.93445801 11.90945435 28.92980957 12.78933716 C28.91798518 14.90590317 28.90004913 17.02243338 28.88098145 19.13894653 C34.16098145 19.13894653 39.44098145 19.13894653 44.88098145 19.13894653 C44.85777832 17.93496216 44.8345752 16.73097778 44.81066895 15.49050903 C44.79191282 13.91499439 44.77371245 12.33947305 44.75598145 10.76394653 C44.73922363 9.96988403 44.72246582 9.17582153 44.7052002 8.35769653 C44.68762672 6.28402638 44.77762977 4.21011412 44.88098145 2.13894653 C47.78539803 -0.76547005 49.9485599 -0.11973083 54.00598145 -0.12667847 C54.70868164 -0.12859192 55.41138184 -0.13050537 56.13537598 -0.13247681 C57.62154498 -0.13383822 59.10772589 -0.13014479 60.59387207 -0.12179565 C62.8721379 -0.111095 65.14961522 -0.12169186 67.42785645 -0.13449097 C68.87056652 -0.13316936 70.31327611 -0.13060695 71.75598145 -0.12667847 C73.07340332 -0.12442261 74.3908252 -0.12216675 75.74816895 -0.11984253 C78.88098145 0.13894653 78.88098145 0.13894653 80.88098145 2.13894653 C81.02615888 5.04830233 81.0672894 7.85889254 81.00598145 10.76394653 C80.99695801 11.56574341 80.98793457 12.36754028 80.9786377 13.19363403 C80.95504367 15.17553176 80.91917209 17.15727634 80.88098145 19.13894653 C86.16098145 19.13894653 91.44098145 19.13894653 96.88098145 19.13894653 C96.85777832 17.93496216 96.8345752 16.73097778 96.81066895 15.49050903 C96.79191282 13.91499439 96.77371245 12.33947305 96.75598145 10.76394653 C96.73922363 9.96988403 96.72246582 9.17582153 96.7052002 8.35769653 C96.68762672 6.28402638 96.77762977 4.21011412 96.88098145 2.13894653 C100.3220171 -1.30208913 105.2814984 -0.16470834 109.92980957 -0.18331909 C111.00984253 -0.18005615 111.00984253 -0.18005615 112.11169434 -0.17672729 C114.30678065 -0.1735703 116.5005153 -0.19701107 118.69543457 -0.22238159 C120.08931308 -0.2246549 121.48319521 -0.22535793 122.8770752 -0.22433472 C124.14736572 -0.22731567 125.41765625 -0.23029663 126.72644043 -0.23336792 C129.88098145 0.13894653 129.88098145 0.13894653 131.55487061 1.39720154 C133.20063811 3.55879108 133.2555641 4.6830367 133.2532959 7.37918091 C133.25952469 8.23016357 133.26575348 9.08114624 133.27217102 9.95791626 C133.2583564 11.3314325 133.2583564 11.3314325 133.2442627 12.73269653 C133.2447612 13.6757666 133.2452597 14.61883667 133.24577332 15.59048462 C133.24343284 17.58436185 133.23370589 19.57824203 133.21716309 21.572052 C133.19357238 24.6271705 133.19660215 27.68141637 133.20324707 30.73660278 C133.19767026 32.67280591 133.19056037 34.60900536 133.1817627 36.54519653 C133.1826741 37.46087402 133.18358551 38.37655151 133.18452454 39.31997681 C133.17499252 40.17095947 133.16546051 41.02194214 133.15563965 41.89871216 C133.15103226 42.64689209 133.14642487 43.39507202 133.14167786 44.16592407 C132.88098145 46.13894653 132.88098145 46.13894653 130.88098145 49.13894653 C127.25098145 49.13894653 123.62098145 49.13894653 119.88098145 49.13894653 C119.88098145 84.44894653 119.88098145 119.75894653 119.88098145 156.13894653 C122.85098145 156.13894653 125.82098145 156.13894653 128.88098145 156.13894653 C130.88098145 158.13894653 130.88098145 158.13894653 131.07629395 162.05300903 C131.06484701 163.62345471 131.03886859 165.19380351 131.00598145 166.76394653 C130.96473145 169.52769653 130.92348145 172.29144653 130.88098145 175.13894653 C136.49098145 175.13894653 142.10098145 175.13894653 147.88098145 175.13894653 C147.80204422 169.67914996 147.80204422 169.67914996 147.70080566 164.21975708 C147.69331299 163.19555664 147.69331299 163.19555664 147.68566895 162.15066528 C147.67519531 161.4541687 147.66472168 160.75767212 147.65393066 160.04006958 C147.88098145 158.13894653 147.88098145 158.13894653 149.88098145 155.13894653 C152.67834473 154.79837036 152.67834473 154.79837036 156.20129395 154.84597778 C157.45812988 154.85564575 158.71496582 154.86531372 160.0098877 154.87527466 C161.9879541 154.91297974 161.9879541 154.91297974 164.00598145 154.95144653 C165.34581048 154.9664917 166.68565548 154.98018041 168.0255127 154.99246216 C171.31106987 155.02791781 174.59582726 155.07733804 177.88098145 155.13894653 C178.70880337 141.95956826 178.70880337 141.95956826 173.81848145 130.45144653 C171.84211864 128.75289748 169.85027014 127.11581279 167.76843262 125.54763794 C163.8772216 122.07416854 161.7583029 118.99346942 161.20397949 113.78518677 C160.9700745 109.48803937 161.02711665 105.20698868 161.16760254 100.90725708 C161.25656415 98.18360633 161.29060148 95.46348648 161.3145752 92.73855591 C161.34139549 91.00868688 161.37123378 89.27886142 161.40441895 87.54910278 C161.41919281 86.73458145 161.43396667 85.92006012 161.44918823 85.08085632 C161.6440357 79.37589228 161.6440357 79.37589228 163.88098145 77.13894653 C166.55480957 76.88015747 166.55480957 76.88015747 169.91223145 76.87332153 C171.11492676 76.87074341 172.31762207 76.86816528 173.5567627 76.86550903 C174.81875488 76.87324341 176.08074707 76.88097778 177.38098145 76.88894653 C178.64297363 76.88121216 179.90496582 76.87347778 181.2052002 76.86550903 C182.40789551 76.86808716 183.61059082 76.87066528 184.84973145 76.87332153 C185.95768066 76.87557739 187.06562988 76.87783325 188.20715332 76.88015747 C190.88098145 77.13894653 190.88098145 77.13894653 192.88098145 79.13894653 C193.02596129 81.71958782 193.0677569 84.18838538 193.00598145 86.76394653 C192.99695801 87.47035278 192.98793457 88.17675903 192.9786377 88.90457153 C192.95505748 90.64950751 192.91918605 92.39426948 192.88098145 94.13894653 C197.17098145 94.13894653 201.46098145 94.13894653 205.88098145 94.13894653 C205.85777832 93.07933716 205.8345752 92.01972778 205.81066895 90.92800903 C205.791912 89.53999523 205.77371172 88.15197383 205.75598145 86.76394653 C205.73922363 86.06527466 205.72246582 85.36660278 205.7052002 84.64675903 C205.68753878 82.80997167 205.77794884 80.97292691 205.88098145 79.13894653 C208.6346533 76.38527467 210.24630999 76.88091587 214.0958252 76.87332153 C215.33912598 76.87074341 216.58242676 76.86816528 217.86340332 76.86550903 C219.82116699 76.8771106 219.82116699 76.8771106 221.81848145 76.88894653 C223.11979004 76.88121216 224.42109863 76.87347778 225.76184082 76.86550903 C227.62872559 76.86937622 227.62872559 76.86937622 229.5333252 76.87332153 C230.67793213 76.87557739 231.82253906 76.87783325 233.00183105 76.88015747 C235.88098145 77.13894653 235.88098145 77.13894653 238.88098145 79.13894653 C239.10205932 81.92747544 239.1620568 84.48547834 239.06848145 87.26394653 C239.05494629 88.0180481 239.04141113 88.77214966 239.02746582 89.54910278 C238.99208129 91.41268781 238.93827311 93.27590631 238.88098145 95.13894653 C243.17098145 95.13894653 247.46098145 95.13894653 251.88098145 95.13894653 C251.85777832 94.00714966 251.8345752 92.87535278 251.81066895 91.70925903 C251.79191244 90.22749478 251.77371211 88.74572342 251.75598145 87.26394653 C251.73922363 86.51757935 251.72246582 85.77121216 251.7052002 85.00222778 C251.68758555 83.04700192 251.77777955 81.09152632 251.88098145 79.13894653 C255.08287857 75.9370494 258.78728292 76.84352105 263.15246582 76.81668091 C264.36225098 76.81990356 265.57203613 76.82312622 266.81848145 76.82644653 C268.02439941 76.81033325 269.23031738 76.79421997 270.47277832 76.77761841 C272.20431152 76.77665161 272.20431152 76.77665161 273.9708252 76.77566528 C275.03164307 76.77268433 276.09246094 76.76970337 277.1854248 76.76663208 C279.88098145 77.13894653 279.88098145 77.13894653 281.69689941 78.15896606 C283.57512527 81.2996695 283.57145281 84.61182869 283.7364502 88.18191528 C283.77595291 88.97800705 283.81545563 89.77409882 283.8561554 90.59431458 C283.95999733 93.17194472 284.02237686 95.747158 284.06848145 98.32644653 C284.08677002 99.20085388 284.10505859 100.07526123 284.12390137 100.97616577 C284.30440913 117.69511914 284.30440913 117.69511914 279.3067627 123.36941528 C277.14733887 125.30056763 277.14733887 125.30056763 274.88098145 127.01394653 C268.4938301 131.66861357 268.4938301 131.66861357 265.74816895 138.74441528 C265.56373443 143.880391 266.05045388 148.97350097 266.53723145 154.08328247 C266.95937263 158.71270648 267.14156044 163.34618424 267.31848145 167.99050903 C267.35289337 168.88569244 267.3873053 169.78087585 267.42276001 170.70318604 C267.49523831 172.59490899 267.56742465 174.48664314 267.63934326 176.37838745 C267.79951763 180.42683438 267.98351855 184.47408249 268.16665649 188.52154541 C269.20904255 211.65129454 269.89560805 234.79395854 270.62219238 257.93533325 C270.82299072 264.32928511 271.02819355 270.72308751 271.23519516 277.11684132 C271.42543208 282.99325271 271.61414525 288.86971151 271.80163956 294.74621105 C271.91383788 298.26239431 272.02656075 301.77855843 272.14074707 305.29467773 C272.26749457 309.20102572 272.39078642 313.10747892 272.51379395 317.01394653 C272.55118683 318.1530397 272.58857971 319.29213287 272.62710571 320.46574402 C272.72707364 323.68994154 272.80533397 326.91409769 272.88098145 330.13894653 C272.922453 331.31924438 272.96392456 332.49954224 273.00665283 333.71560669 C273.03334045 334.87624634 273.06002808 336.03688599 273.08752441 337.23269653 C273.11829071 338.27877075 273.14905701 339.32484497 273.18075562 340.40261841 C272.83955378 343.51709677 272.16648322 344.61443864 269.94348145 346.76394653 C249.00606198 360.89918913 214.3807211 358.12972731 191.02209473 353.60964966 C183.67941845 351.99543303 175.21233829 349.6359818 170.88098145 343.13894653 C170.88098145 340.49894653 170.88098145 337.85894653 170.88098145 335.13894653 C99.60098145 335.13894653 28.32098145 335.13894653 -45.11901855 335.13894653 C-45.11901855 338.10894653 -45.11901855 341.07894653 -45.11901855 344.13894653 C-52.57869516 353.21152619 -67.01050202 354.70785107 -78.05554199 355.89138794 C-99.46520296 357.62149602 -127.24340278 359.3106141 -145.21499634 345.53198242 C-147.81702589 342.26166863 -147.5895055 339.4968878 -147.42321777 335.50662231 C-147.40658522 334.72337145 -147.38995266 333.94012058 -147.37281609 333.13313484 C-147.30957919 330.46737117 -147.21500871 327.80372036 -147.11901855 325.13894653 C-147.06174 323.18941057 -147.00547862 321.23984451 -146.95013428 319.29025269 C-146.74983714 312.61096496 -146.50105471 305.93374374 -146.25183105 299.25613403 C-146.1607704 296.74938134 -146.07004925 294.24261629 -145.97964478 291.73583984 C-145.79053562 286.50276057 -145.59978508 281.26974509 -145.40771484 276.03677368 C-144.71669043 257.1804567 -144.05581547 238.32302744 -143.39036179 219.46579361 C-143.16804779 213.16862932 -142.94438244 206.87151786 -142.71813965 200.57449341 C-142.49243862 194.29078046 -142.27004716 188.00695798 -142.04986954 181.72304916 C-141.96731905 179.38303371 -141.88363191 177.04305801 -141.79867172 174.70312881 C-141.5724607 168.463537 -141.36770474 162.22415425 -141.20107269 155.98267365 C-141.14654986 154.09309135 -141.08327753 152.20374043 -141.01108551 150.31475067 C-140.91173454 147.68837947 -140.84207067 145.06280511 -140.77966309 142.43533325 C-140.74393629 141.67311525 -140.7082095 140.91089725 -140.67140007 140.12558174 C-140.61144802 136.14247902 -141.05988767 134.22788597 -143.29013062 130.87335205 C-145.67432366 128.35629726 -145.67432366 128.35629726 -148.34558105 126.34207153 C-156.38907439 119.95259232 -156.38907439 119.95259232 -157.65823364 115.06048584 C-157.84242789 112.75613196 -157.84759897 110.52365312 -157.77526855 108.21316528 C-157.77152222 107.38436356 -157.76777588 106.55556183 -157.76391602 105.7016449 C-157.75054704 103.9627251 -157.72286094 102.22386176 -157.68151855 100.48538208 C-157.61878721 97.81660465 -157.5995293 95.15018758 -157.58776855 92.48074341 C-157.56944251 90.78735504 -157.54869542 89.09399076 -157.52526855 87.40066528 C-157.5167688 86.60174362 -157.50826904 85.80282196 -157.49951172 84.97969055 C-157.35355314 79.37348112 -157.35355314 79.37348112 -155.11901855 77.13894653 C-152.44519043 76.88015747 -152.44519043 76.88015747 -149.08776855 76.87332153 C-147.88507324 76.87074341 -146.68237793 76.86816528 -145.4432373 76.86550903 C-144.18124512 76.87324341 -142.91925293 76.88097778 -141.61901855 76.88894653 C-140.35702637 76.88121216 -139.09503418 76.87347778 -137.7947998 76.86550903 C-136.59210449 76.86808716 -135.38940918 76.87066528 -134.15026855 76.87332153 C-133.04231934 76.87557739 -131.93437012 76.87783325 -130.79284668 76.88015747 C-128.11901855 77.13894653 -128.11901855 77.13894653 -126.11901855 79.13894653 C-125.97403871 81.71958782 -125.9322431 84.18838538 -125.99401855 86.76394653 C-126.00304199 87.47035278 -126.01206543 88.17675903 -126.0213623 88.90457153 C-126.04494252 90.64950751 -126.08081395 92.39426948 -126.11901855 94.13894653 C-121.49901855 94.13894653 -116.87901855 94.13894653 -112.11901855 94.13894653 C-112.14222168 93.07933716 -112.1654248 92.01972778 -112.18933105 90.92800903 C-112.208088 89.53999523 -112.22628828 88.15197383 -112.24401855 86.76394653 C-112.26077637 86.06527466 -112.27753418 85.36660278 -112.2947998 84.64675903 C-112.31246122 82.80997167 -112.22205116 80.97292691 -112.11901855 79.13894653 C-109.3595725 76.37950048 -107.72665157 76.88088976 -103.86901855 76.87332153 C-101.9972998 76.86945435 -101.9972998 76.86945435 -100.08776855 76.86550903 C-98.1232373 76.8771106 -98.1232373 76.8771106 -96.11901855 76.88894653 C-94.80933105 76.88121216 -93.49964355 76.87347778 -92.15026855 76.86550903 C-90.90245605 76.86808716 -89.65464355 76.87066528 -88.36901855 76.87332153 C-87.2191748 76.87557739 -86.06933105 76.87783325 -84.88464355 76.88015747 C-82.11901855 77.13894653 -82.11901855 77.13894653 -80.11901855 79.13894653 C-79.97403871 81.71958782 -79.9322431 84.18838538 -79.99401855 86.76394653 C-80.00304199 87.47035278 -80.01206543 88.17675903 -80.0213623 88.90457153 C-80.04494252 90.64950751 -80.08081395 92.39426948 -80.11901855 94.13894653 C-75.82901855 94.13894653 -71.53901855 94.13894653 -67.11901855 94.13894653 C-67.14222168 93.07933716 -67.1654248 92.01972778 -67.18933105 90.92800903 C-67.208088 89.53999523 -67.22628828 88.15197383 -67.24401855 86.76394653 C-67.26077637 86.06527466 -67.27753418 85.36660278 -67.2947998 84.64675903 C-67.31246122 82.80997167 -67.22205116 80.97292691 -67.11901855 79.13894653 C-63.86442986 75.88435784 -59.92427019 76.84290697 -55.49206543 76.81668091 C-53.60584473 76.82151489 -53.60584473 76.82151489 -51.68151855 76.82644653 C-49.80109863 76.80227661 -49.80109863 76.80227661 -47.88269043 76.77761841 C-46.68321777 76.77697388 -45.48374512 76.77632935 -44.2479248 76.77566528 C-43.1452124 76.77268433 -42.0425 76.76970337 -40.90637207 76.76663208 C-38.11901855 77.13894653 -38.11901855 77.13894653 -36.26965332 78.15505981 C-34.42654052 81.33289444 -34.61010433 84.66532704 -34.57995605 88.24441528 C-34.56759918 89.04245071 -34.55524231 89.84048615 -34.54251099 90.66270447 C-34.52294219 92.35303419 -34.51171217 94.04347794 -34.50817871 95.73391724 C-34.4941562 98.30124612 -34.42692062 100.86362036 -34.3572998 103.42996216 C-34.1727596 117.18081469 -34.1727596 117.18081469 -38.38464355 122.04129028 C-39.59545771 123.11348391 -40.83766339 124.15213396 -42.11901855 125.13894653 C-42.91050293 125.95105591 -43.7019873 126.76316528 -44.51745605 127.59988403 C-45.16972168 128.23152466 -45.8219873 128.86316528 -46.49401855 129.51394653 C-50.03838225 132.74723 -50.03838225 132.74723 -51.23254395 137.20193481 C-51.22730713 138.02935181 -51.22207031 138.8567688 -51.2166748 139.70925903 C-51.21345215 140.60515747 -51.21022949 141.50105591 -51.20690918 142.42410278 C-51.19853027 143.36125122 -51.19015137 144.29839966 -51.18151855 145.26394653 C-51.17700684 146.20882935 -51.17249512 147.15371216 -51.16784668 148.12722778 C-51.15604212 150.4645304 -51.13957614 152.80170715 -51.11901855 155.13894653 C-50.34711182 155.12323608 -49.57520508 155.10752563 -48.77990723 155.09133911 C-45.28885194 155.02905046 -41.79791346 154.9899748 -38.30651855 154.95144653 C-37.09157715 154.92630981 -35.87663574 154.9011731 -34.62487793 154.87527466 C-32.87980957 154.86077271 -32.87980957 154.86077271 -31.0994873 154.84597778 C-29.48916626 154.82241211 -29.48916626 154.82241211 -27.84631348 154.79837036 C-25.11901855 155.13894653 -25.11901855 155.13894653 -23.2635498 156.40652466 C-21.87558283 158.50742347 -21.76960624 159.64833407 -21.8260498 162.15066528 C-21.83354248 162.83346558 -21.84103516 163.51626587 -21.84875488 164.21975708 C-21.87606689 165.0799646 -21.90337891 165.94017212 -21.93151855 166.82644653 C-21.99339355 169.56957153 -22.05526855 172.31269653 -22.11901855 175.13894653 C-16.50901855 175.13894653 -10.89901855 175.13894653 -5.11901855 175.13894653 C-5.13062012 173.8511731 -5.14222168 172.56339966 -5.1541748 171.23660278 C-5.16355125 169.55821881 -5.17265161 167.87983328 -5.18151855 166.20144653 C-5.18989746 165.35130981 -5.19827637 164.5011731 -5.20690918 163.62527466 C-5.21013184 162.81638794 -5.21335449 162.00750122 -5.2166748 161.17410278 C-5.22191162 160.42523804 -5.22714844 159.67637329 -5.23254395 158.90481567 C-5.11901855 157.13894653 -5.11901855 157.13894653 -4.11901855 156.13894653 C-0.81901855 156.13894653 2.48098145 156.13894653 5.88098145 156.13894653 C5.88098145 120.82894653 5.88098145 85.51894653 5.88098145 49.13894653 C2.58098145 49.13894653 -0.71901855 49.13894653 -4.11901855 49.13894653 C-6.11901855 47.13894653 -6.11901855 47.13894653 -6.36625671 45.15882874 C-6.3648317 44.3491011 -6.36340668 43.53937347 -6.36193848 42.70510864 C-6.36501511 41.78753281 -6.36809174 40.86995697 -6.3712616 39.92457581 C-6.36048332 38.43547447 -6.36048332 38.43547447 -6.3494873 36.91629028 C-6.34902908 35.90047379 -6.34857086 34.88465729 -6.34809875 33.83805847 C-6.34507451 31.68858677 -6.33718312 29.53911729 -6.3248291 27.38967896 C-6.30657479 24.08662211 -6.30431935 20.78384541 -6.30456543 17.48074341 C-6.29965034 15.39675659 -6.29382206 13.31277169 -6.2869873 11.22879028 C-6.28587448 10.23403183 -6.28476166 9.23927338 -6.28361511 8.21437073 C-6.27723526 7.29994705 -6.27085541 6.38552338 -6.26428223 5.44338989 C-6.26047043 4.63445786 -6.25665863 3.82552582 -6.25273132 2.99208069 C-5.97056203 -0.9185223 -3.30088349 0.01582782 0 0 Z " fill="#0B0B0B" transform="translate(449.1190185546875,360.8610534667969)"/>
<path d="M0 0 C6.93 0 13.86 0 21 0 C21.375 8.375 21.375 8.375 21.47802734 11.00927734 C21.54791085 15.47543818 21.54791085 15.47543818 24 19 C26.68584395 19.29501782 26.68584395 19.29501782 29.8125 19.23046875 C31.54886719 19.22756836 31.54886719 19.22756836 33.3203125 19.22460938 C34.53460938 19.21236328 35.74890625 19.20011719 37 19.1875 C38.82144531 19.1865332 38.82144531 19.1865332 40.6796875 19.18554688 C46.51743148 19.45774983 46.51743148 19.45774983 52 18 C52.33 12.39 52.66 6.78 53 1 C58.94 1 64.88 1 71 1 C71.375 8.875 71.375 8.875 71.47802734 11.35107422 C71.58495779 15.63711588 71.58495779 15.63711588 74 19 C76.89788321 19.29537891 76.89788321 19.29537891 80.28515625 19.23046875 C81.53748047 19.22853516 82.78980469 19.22660156 84.08007812 19.22460938 C85.39427734 19.21236328 86.70847656 19.20011719 88.0625 19.1875 C89.38056641 19.18685547 90.69863281 19.18621094 92.05664062 19.18554688 C97.90903924 19.73391123 97.90903924 19.73391123 103 18 C103.23715955 15.13944586 103.42190617 12.30272344 103.5625 9.4375 C103.706875 6.653125 103.85125 3.86875 104 1 C110.27 1 116.54 1 123 1 C123.375 8.875 123.375 8.875 123.47802734 11.35107422 C123.58495779 15.63711588 123.58495779 15.63711588 126 19 C128.78307748 19.31178425 128.78307748 19.31178425 132.03125 19.265625 C133.23394531 19.26820313 134.43664062 19.27078125 135.67578125 19.2734375 C136.93777344 19.26570312 138.19976563 19.25796875 139.5 19.25 C140.76199219 19.25773438 142.02398438 19.26546875 143.32421875 19.2734375 C144.52691406 19.27085937 145.72960937 19.26828125 146.96875 19.265625 C148.63067383 19.26224121 148.63067383 19.26224121 150.32617188 19.25878906 C153.15262582 19.27117301 153.15262582 19.27117301 155 17 C155.30720512 14.2583392 155.51063924 11.62345231 155.625 8.875 C155.74875 6.27625 155.8725 3.6775 156 1 C162.27 1 168.54 1 175 1 C175.4375 8.875 175.4375 8.875 175.56811523 11.35107422 C175.73591543 15.30464416 175.73591543 15.30464416 177 19 C181.45827926 19.0578304 185.9164628 19.09353855 190.375 19.125 C191.64601563 19.14175781 192.91703125 19.15851562 194.2265625 19.17578125 C195.43828125 19.18222656 196.65 19.18867187 197.8984375 19.1953125 C199.01911621 19.20578613 200.13979492 19.21625977 201.29443359 19.22705078 C204.14977843 19.28055323 204.14977843 19.28055323 206 17 C206.3074891 14.09335779 206.5110662 11.28814155 206.625 8.375 C206.74875 5.61125 206.8725 2.8475 207 0 C213.93 0 220.86 0 228 0 C227.93941406 1.7015625 227.87882813 3.403125 227.81640625 5.15625 C227.40686854 16.92880768 227.01911911 28.69998342 226.74609375 40.4765625 C226.72535294 41.36047668 226.70461212 42.24439087 226.6832428 43.15509033 C226.58150937 47.51671523 226.48412352 51.87837889 226.39282227 56.24023438 C226.22387237 63.86621522 225.9415275 71.41781851 225.23193359 79.01611328 C224.80124628 84.55701888 224.73220603 90.11342042 224.61129761 95.66809082 C224.10730468 118.46155714 223.02901098 141.22455688 222 164 C202.2 164 182.4 164 162 164 C161.96261719 159.30265625 161.92523437 154.6053125 161.88671875 149.765625 C161.85639689 146.76689233 161.82522169 143.76821602 161.79101562 140.76953125 C161.73695524 136.02330583 161.68583717 131.27719184 161.65356445 126.53076172 C161.62730834 122.69854213 161.58675413 118.86670285 161.53681374 115.03472137 C161.52029416 113.58215869 161.50868806 112.12953046 161.50238609 110.67688751 C161.42796585 95.08081528 158.74780128 80.46953411 147.80859375 68.62109375 C136.13463825 58.15739713 123.06534479 54.98179193 107.78515625 55.55859375 C96.31745063 56.36409293 85.47382265 62.77081052 77.93359375 71.3515625 C68.11569633 84.71068858 65.71995609 97.86470928 65.5859375 114.09765625 C65.5671937 115.54212002 65.54761799 116.98657321 65.5272522 118.43101501 C65.47626365 122.20378334 65.4364616 125.97658704 65.39910889 129.74951172 C65.35176227 134.29191015 65.29030921 138.83413767 65.23126221 143.37639618 C65.14345638 150.25086052 65.07340226 157.12529889 65 164 C45.53 164 26.06 164 6 164 C5.24410092 159.46460553 4.84356325 155.55345259 4.75390625 151.0078125 C4.72207693 149.59090008 4.69017197 148.17398936 4.65820312 146.75708008 C4.64281494 146.00584869 4.62742676 145.25461731 4.61157227 144.48062134 C4.28036925 128.58184659 3.69152362 112.69927056 3 96.8125 C2.32294224 81.22845028 1.7200066 65.64835243 1.34179688 50.05395508 C1.17766375 43.637271 0.9103555 37.24676299 0.4765625 30.84375 C0.0196029 24.05434399 -0.12170187 17.30366123 -0.0625 10.5 C-0.05798828 9.47519531 -0.05347656 8.45039062 -0.04882812 7.39453125 C-0.03731004 4.92966067 -0.01939108 2.46482121 0 0 Z " fill="#F7F7F7" transform="translate(398,524)"/>
<path d="M0 0 C24.09 0 48.18 0 73 0 C73.268125 8.86875 73.53625 17.7375 73.8125 26.875 C74.56765286 51.21499947 75.48123752 75.54474353 76.5 99.875 C77.92511476 133.90982987 79.03639475 167.94909746 80 202 C75.66664485 204.24315748 71.85663635 205.66087534 67.0625 206.625 C65.89847656 206.86476563 64.73445312 207.10453125 63.53515625 207.3515625 C54.53322808 209.00274491 45.74366244 209.24171717 36.625 209.25 C35.86221741 209.25100708 35.09943481 209.25201416 34.3135376 209.25305176 C8.17644827 209.22964192 8.17644827 209.22964192 -2.20654297 203.93457031 C-3.27556351 203.39186493 -3.27556351 203.39186493 -4.36618042 202.8381958 C-4.90534088 202.56159119 -5.44450134 202.28498657 -6 202 C-6.2570289 180.58367893 -5.54698417 159.22349977 -4.78842545 137.82423735 C-4.61701028 132.96111279 -4.45077447 128.09781091 -4.28393555 123.23452759 C-3.96876525 114.06961471 -3.6490912 104.90486498 -3.32770443 95.74016821 C-2.9613831 85.2876502 -2.60022654 74.8349556 -2.23945427 64.38224483 C-1.49862264 42.92129731 -0.75078494 21.46060178 0 0 Z " fill="#F7F7F7" transform="translate(634,499)"/>
<path d="M0 0 C23.76 0 47.52 0 72 0 C73.12504028 14.6255237 73.12504028 14.6255237 73.34803772 21.06808472 C73.37339346 21.77914686 73.3987492 22.49020901 73.42487329 23.22281849 C73.50726967 25.55194654 73.58581896 27.88118646 73.66430664 30.21044922 C73.72333913 31.90230084 73.78260596 33.5941443 73.84208679 35.28598022 C74.00160458 39.84383758 74.15768465 44.40180645 74.31296849 48.95980978 C74.47677565 53.75476894 74.64332368 58.54963308 74.80943298 63.34451294 C75.08789558 71.39546139 75.3640704 79.44648591 75.63891602 87.49755859 C75.95551795 96.77085242 76.27594781 106.04400807 76.5983935 115.31710041 C76.90991486 124.27911025 77.21850005 133.24121904 77.52584648 142.20337296 C77.65604244 145.99805242 77.7872779 149.79269374 77.91938972 153.58730698 C78.0752428 158.06724215 78.22850905 162.54725894 78.37988472 167.02734756 C78.43543287 168.65944681 78.49183203 170.29151738 78.54920578 171.92355347 C78.90118228 181.95464372 79.07077573 191.96220722 79 202 C58.9682957 213.39057696 28.23307684 212.83572908 6.40625 207.046875 C1.73632543 205.66242833 -2.66454184 204.2227182 -7 202 C-6.90154002 196.82404709 -6.79489172 191.64832794 -6.68261719 186.47265625 C-6.64587363 184.73636755 -6.61086094 183.00004076 -6.578125 181.26367188 C-6.31850301 167.60106476 -5.73910554 153.9610636 -5.09375 140.3125 C-3.81877832 113.28565076 -2.91828417 86.24674605 -2.00842285 59.20556641 C-1.74204628 51.30834179 -1.47183754 43.41124744 -1.20231628 35.51412964 C-0.79870509 23.67618045 -0.39977785 11.83808204 0 0 Z " fill="#F8F8F8" transform="translate(317,499)"/>
<path d="M0 0 C31.68 0 63.36 0 96 0 C96 35.31 96 70.62 96 107 C90.06 107.495 90.06 107.495 84 108 C81.90060215 110.09939785 82.58074804 114.64318528 82.4375 117.5625 C82.293125 120.346875 82.14875 123.13125 82 126 C76.39 126 70.78 126 65 126 C64.5625 117.5625 64.5625 117.5625 64.43188477 114.90063477 C64.57312523 111.14029267 64.57312523 111.14029267 63 108 C60.70848583 107.91209025 58.41427476 107.89305962 56.12109375 107.90234375 C55.4344313 107.9037587 54.74776886 107.90517365 54.04029846 107.90663147 C51.83932199 107.91224521 49.63844591 107.92479993 47.4375 107.9375 C45.94856917 107.94251324 44.45963676 107.94707645 42.97070312 107.95117188 C39.31376925 107.96221907 35.65689442 107.97949287 32 108 C30.41517429 111.16965142 30.62147177 114.63744541 30.4375 118.125 C30.2209375 122.023125 30.2209375 122.023125 30 126 C24.39 126 18.78 126 13 126 C12.5625 117.5625 12.5625 117.5625 12.43188477 114.90063477 C12.57312523 111.14029267 12.57312523 111.14029267 11 108 C7.37 107.67 3.74 107.34 0 107 C0 71.69 0 36.38 0 0 Z " fill="#F7F7F7" transform="translate(464,410)"/>
<path d="M0 0 C8.59928155 7.12733245 13.44855024 15.06580719 16.16796875 25.796875 C16.40847778 29.22019958 16.40847778 29.22019958 16.39501953 32.83374023 C16.3952606 33.5086126 16.39550167 34.18348497 16.39575005 34.87880802 C16.39427131 37.03783466 16.37910588 39.19650485 16.36328125 41.35546875 C16.36033633 42.69860671 16.35829866 44.04174697 16.35717773 45.3848877 C16.34674242 50.33475207 16.31881989 55.28456713 16.29296875 60.234375 C16.25171875 71.31 16.21046875 82.385625 16.16796875 93.796875 C-10.23203125 93.796875 -36.63203125 93.796875 -63.83203125 93.796875 C-63.93515625 82.659375 -64.03828125 71.521875 -64.14453125 60.046875 C-64.19005127 56.55383789 -64.23557129 53.06080078 -64.2824707 49.46191406 C-64.30505371 45.13623047 -64.30505371 45.13623047 -64.30924988 43.09954834 C-64.31683688 41.70249423 -64.33422969 40.30546906 -64.35990906 38.90863037 C-64.58108808 26.22319029 -62.20064241 15.82789055 -53.9140625 5.8984375 C-39.05887336 -9.09610614 -17.76273638 -12.70114247 0 0 Z " fill="#F6F6F6" transform="translate(535.83203125,594.203125)"/>
<path d="M0 0 C24.75 0 49.5 0 75 0 C75.020625 9.095625 75.04125 18.19125 75.0625 27.5625 C75.071604 30.42236572 75.08070801 33.28223145 75.09008789 36.22875977 C75.09300986 38.50797478 75.09555776 40.78719033 75.09765625 43.06640625 C75.10277222 44.23973511 75.10788818 45.41306396 75.11315918 46.62194824 C75.11334045 48.32610901 75.11334045 48.32610901 75.11352539 50.06469727 C75.115746 51.04398697 75.11796661 52.02327667 75.12025452 53.03224182 C74.98488574 56.37300439 74.47284288 59.69009987 74 63 C49.58 63 25.16 63 0 63 C0 42.21 0 21.42 0 0 Z " fill="#EFF0EF" transform="translate(0,0)"/>
<path d="M0 0 C1.18802719 0.0199855 2.37605438 0.03997101 3.6000824 0.06056213 C4.58053528 0.07497345 4.58053528 0.07497345 5.58079529 0.0896759 C7.7506604 0.12277147 9.92033073 0.16306307 12.09007263 0.2033844 C13.59079289 0.22767523 15.09152044 0.25151929 16.59225464 0.27493286 C20.54941593 0.33787713 24.50644871 0.40691422 28.46348572 0.47718811 C33.20741514 0.56018131 37.95146918 0.63566422 42.69550323 0.71239471 C49.90917001 0.82991604 57.12261123 0.95702186 64.33616638 1.08229065 C64.33616638 21.87229065 64.33616638 42.66229065 64.33616638 64.08229065 C41.89616638 64.08229065 19.45616638 64.08229065 -3.66383362 64.08229065 C-3.68445862 53.70791565 -3.70508362 43.33354065 -3.72633362 32.64479065 C-3.73543762 29.36485168 -3.74454163 26.08491272 -3.75392151 22.70558167 C-3.75684038 20.12412049 -3.759389 17.54265887 -3.76148987 14.9611969 C-3.76410324 14.28620651 -3.76671661 13.61121613 -3.76940918 12.91577148 C-3.77669022 10.93686566 -3.77717202 8.95793837 -3.77735901 6.97901917 C-3.77957962 5.86205154 -3.78180023 4.74508392 -3.78408813 3.5942688 C-3.61767654 0.11812249 -3.49453436 0.1079525 0 0 Z " fill="#FEFEFE" transform="translate(959.6638336181641,641.9177093505859)"/>
<path d="M0 0 C6.6 0 13.2 0 20 0 C20.3125 7.875 20.3125 7.875 20.38793945 10.35107422 C20.4850911 12.2425767 20.74020275 14.12390686 21 16 C24.47724971 18.31816647 25.84457543 18.24625749 29.9453125 18.23046875 C31.10417969 18.22853516 32.26304687 18.22660156 33.45703125 18.22460938 C34.66746094 18.21236328 35.87789063 18.20011719 37.125 18.1875 C38.34316406 18.18685547 39.56132812 18.18621094 40.81640625 18.18554688 C46.27605971 18.68907696 46.27605971 18.68907696 51 17 C51.23715955 14.13944586 51.42190617 11.30272344 51.5625 8.4375 C51.706875 5.653125 51.85125 2.86875 52 0 C58.6 0 65.2 0 72 0 C72.495 8.91 72.495 8.91 73 18 C76.9693655 18.02291487 80.9385632 18.04284015 84.90795898 18.05493164 C86.25920386 18.05997057 87.61044326 18.06680177 88.96166992 18.07543945 C90.90020434 18.08752419 92.838778 18.09269828 94.77734375 18.09765625 C95.94515381 18.10289307 97.11296387 18.10812988 98.31616211 18.11352539 C100.91891551 18.30661495 100.91891551 18.30661495 102 17 C102.23715955 14.13944586 102.42190617 11.30272344 102.5625 8.4375 C102.706875 5.653125 102.85125 2.86875 103 0 C109.93 0 116.86 0 124 0 C124 10.89 124 21.78 124 33 C83.08 33 42.16 33 0 33 C0 22.11 0 11.22 0 0 Z " fill="#F5F5F5" transform="translate(450,369)"/>
<path d="M0 0 C5.61 0 11.22 0 17 0 C17.375 7.9375 17.375 7.9375 17.47802734 10.44116211 C17.58027587 12.2994481 17.78720681 14.15110827 18 16 C21.88691948 17.94345974 26.72514581 17.18480803 31 17.1875 C32.02351563 17.19974609 33.04703125 17.21199219 34.1015625 17.22460938 C35.56722656 17.22750977 35.56722656 17.22750977 37.0625 17.23046875 C37.96097656 17.23457764 38.85945313 17.23868652 39.78515625 17.24291992 C42.20600742 17.21119253 42.20600742 17.21119253 44 15 C44.30690654 12.42314322 44.51014493 9.95896697 44.625 7.375 C44.74875 4.94125 44.8725 2.5075 45 0 C50.28 0 55.56 0 61 0 C61 9.24 61 18.48 61 28 C26.35 28 -8.3 28 -44 28 C-44 19.09 -44 10.18 -44 1 C-39.05 1 -34.1 1 -29 1 C-28.8046875 4.28776042 -28.609375 7.57552083 -28.4140625 10.86328125 C-28.21386253 14.15699887 -28.21386253 14.15699887 -26 17 C-23.61390445 17.44922892 -23.61390445 17.44922892 -20.84375 17.36328125 C-19.82152344 17.36263672 -18.79929687 17.36199219 -17.74609375 17.36132812 C-16.67488281 17.34521484 -15.60367187 17.32910156 -14.5 17.3125 C-13.42878906 17.31572266 -12.35757812 17.31894531 -11.25390625 17.32226562 C-5.56814153 17.67080128 -5.56814153 17.67080128 -1 15 C-0.69309346 12.42314322 -0.48985507 9.95896697 -0.375 7.375 C-0.25125 4.94125 -0.1275 2.5075 0 0 Z " fill="#F2F3F3" transform="translate(345,446)"/>
<path d="M0 0 C5.61 0 11.22 0 17 0 C17.375 7.9375 17.375 7.9375 17.47802734 10.44116211 C17.58027587 12.2994481 17.78720681 14.15110827 18 16 C20.48168614 17.24084307 22.16426199 17.12933103 24.9375 17.1328125 C25.91460938 17.13410156 26.89171875 17.13539063 27.8984375 17.13671875 C29.43371094 17.13091797 29.43371094 17.13091797 31 17.125 C32.02351562 17.12886719 33.04703125 17.13273437 34.1015625 17.13671875 C35.07867188 17.13542969 36.05578125 17.13414062 37.0625 17.1328125 C38.41021484 17.13112061 38.41021484 17.13112061 39.78515625 17.12939453 C42.04131125 17.14363084 42.04131125 17.14363084 44 16 C44.31330467 13.27779617 44.51264983 10.6677157 44.625 7.9375 C44.810625 4.0084375 44.810625 4.0084375 45 0 C50.28 0 55.56 0 61 0 C61 9.24 61 18.48 61 28 C26.35 28 -8.3 28 -44 28 C-44 19.09 -44 10.18 -44 1 C-39.05 1 -34.1 1 -29 1 C-28.8046875 4.28776042 -28.609375 7.57552083 -28.4140625 10.86328125 C-28.21386253 14.15699887 -28.21386253 14.15699887 -26 17 C-23.61295628 17.43284556 -23.61295628 17.43284556 -20.84375 17.328125 C-19.82152344 17.32296875 -18.79929687 17.3178125 -17.74609375 17.3125 C-16.13927734 17.2815625 -16.13927734 17.2815625 -14.5 17.25 C-13.42878906 17.24484375 -12.35757813 17.2396875 -11.25390625 17.234375 C-5.95841534 17.41054178 -5.95841534 17.41054178 -1 16 C-0.68669533 13.27779617 -0.48735017 10.6677157 -0.375 7.9375 C-0.189375 4.0084375 -0.189375 4.0084375 0 0 Z " fill="#F3F3F3" transform="translate(663,446)"/>
<path d="M0 0 C4.52620886 2.35916149 8.16678419 5.15154291 10 10 C10.19237462 12.83879597 10.28030834 15.57634229 10.265625 18.4140625 C10.26753845 19.22491302 10.2694519 20.03576355 10.27142334 20.8711853 C10.27278166 22.58079337 10.2691099 24.29041187 10.26074219 26 C10.2500097 28.62262968 10.26066346 31.24457869 10.2734375 33.8671875 C10.27211639 35.52864735 10.26955499 37.19010677 10.265625 38.8515625 C10.26967346 39.63802155 10.27372192 40.42448059 10.27789307 41.23477173 C10.2299393 46.7700607 10.2299393 46.7700607 8 49 C3.87248852 49.45815988 -0.28750768 49.32400858 -4.4375 49.3125 C-5.59572266 49.32861328 -6.75394531 49.34472656 -7.94726562 49.36132812 C-9.05650391 49.36197266 -10.16574219 49.36261719 -11.30859375 49.36328125 C-12.83697876 49.36775269 -12.83697876 49.36775269 -14.39624023 49.37231445 C-17 49 -17 49 -18.82861328 47.9609375 C-20.66200546 44.89178244 -20.44754107 41.73603784 -20.43359375 38.26171875 C-20.4388356 37.50333206 -20.44407745 36.74494537 -20.44947815 35.96357727 C-20.45589901 34.35895002 -20.45456046 32.7542757 -20.44604492 31.1496582 C-20.43756535 28.70632882 -20.4662415 26.26536214 -20.49804688 23.82226562 C-20.49965991 22.26041736 -20.4990794 20.69856499 -20.49609375 19.13671875 C-20.50732773 18.41151535 -20.51856171 17.68631195 -20.53013611 16.93913269 C-20.46058192 11.8188171 -19.19908041 8.95335598 -16 5 C-10.7845856 0.40546826 -6.93507204 -1.17973403 0 0 Z " fill="#0E0E0D" transform="translate(517,432)"/>
<path d="M0 0 C5.34719948 1.82054457 8.34483819 5.10385894 11 10 C11.36042485 12.92161472 11.51688474 15.44705543 11.4609375 18.35546875 C11.45956284 19.53064812 11.45956284 19.53064812 11.4581604 20.72956848 C11.45214696 22.37600815 11.43646913 24.02243804 11.41162109 25.66870117 C11.37495856 28.19035 11.37060316 30.71053346 11.37109375 33.23242188 C11.36126714 34.83595021 11.34961213 36.43946861 11.3359375 38.04296875 C11.33371185 38.79611862 11.33148621 39.54926849 11.32919312 40.32524109 C11.26093086 44.07629778 11.13200852 45.80198723 9 49 C6.50976562 49.37231445 6.50976562 49.37231445 3.40625 49.36328125 C2.29378906 49.36263672 1.18132813 49.36199219 0.03515625 49.36132812 C-1.13144531 49.34521484 -2.29804687 49.32910156 -3.5 49.3125 C-4.66660156 49.31572266 -5.83320312 49.31894531 -7.03515625 49.32226562 C-15.73316782 49.26683218 -15.73316782 49.26683218 -18 47 C-18.26149739 44.22491799 -18.40074756 41.55388669 -18.44140625 38.7734375 C-18.46206398 37.54096786 -18.46206398 37.54096786 -18.48313904 36.28359985 C-18.50644165 34.54020949 -18.52369147 32.79672943 -18.53540039 31.05322266 C-18.56219768 28.40487749 -18.6370338 25.76061038 -18.71289062 23.11328125 C-18.93068023 8.8984183 -18.93068023 8.8984183 -14.58984375 3.8515625 C-9.97980879 -0.2737404 -6.0508011 -0.70427357 0 0 Z " fill="#0C0C0C" transform="translate(675,527)"/>
<path d="M0 0 C5.34797893 1.82080995 8.34221087 5.10489297 11 10 C11.37200703 12.92011944 11.5398331 15.44673346 11.49609375 18.35546875 C11.49754898 19.13892166 11.49900421 19.92237457 11.50050354 20.72956848 C11.49885141 22.37598411 11.48736727 24.02241629 11.46655273 25.66870117 C11.43746419 28.19060474 11.4459831 30.71042078 11.45898438 33.23242188 C11.45275019 34.83594772 11.44436176 36.43946694 11.43359375 38.04296875 C11.43652939 38.79611862 11.43946503 39.54926849 11.44248962 40.32524109 C11.39011351 43.22048205 11.32587482 45.45700958 9.81494141 47.97460938 C7.3000409 49.39545712 5.40950655 49.37207485 2.52734375 49.36328125 C1.46322266 49.36263672 0.39910156 49.36199219 -0.69726562 49.36132812 C-1.80779297 49.34521484 -2.91832031 49.32910156 -4.0625 49.3125 C-5.7340918 49.31733398 -5.7340918 49.31733398 -7.43945312 49.32226562 C-15.73305861 49.26694139 -15.73305861 49.26694139 -18 47 C-18.26149739 44.22491799 -18.40074756 41.55388669 -18.44140625 38.7734375 C-18.46206398 37.54096786 -18.46206398 37.54096786 -18.48313904 36.28359985 C-18.50644165 34.54020949 -18.52369147 32.79672943 -18.53540039 31.05322266 C-18.56219768 28.40487749 -18.6370338 25.76061038 -18.71289062 23.11328125 C-18.93068023 8.8984183 -18.93068023 8.8984183 -14.58984375 3.8515625 C-9.97980879 -0.2737404 -6.0508011 -0.70427357 0 0 Z " fill="#0A0A0A" transform="translate(357,527)"/>
<path d="M0 0 C6.93 0 13.86 0 21 0 C21 10.89 21 21.78 21 33 C-19.26 33 -59.52 33 -101 33 C-101 32.67 -101 32.34 -101 32 C-69.65 32 -38.3 32 -6 32 C-6 28.04 -6 24.08 -6 20 C-4.35 19.01 -2.7 18.02 -1 17 C-0.23283378 15.10173912 -0.23283378 15.10173912 -0.29296875 12.98828125 C-0.26485107 12.30548096 -0.2367334 11.62268066 -0.20776367 10.91918945 C-0.19773315 9.62887817 -0.19773315 9.62887817 -0.1875 8.3125 C-0.125625 5.569375 -0.06375 2.82625 0 0 Z " fill="#ECECEC" transform="translate(553,369)"/>
<path d="M0 0 C30.03 0 60.06 0 91 0 C91 2 91 2 88.625 4.5 C87.75875 5.325 86.8925 6.15 86 7 C85.34 7.66 84.68 8.32 84 9 C81.60494447 9.2294862 79.32227157 9.3353311 76.92333984 9.35400391 C75.83027023 9.3737175 75.83027023 9.3737175 74.71511841 9.39382935 C72.297054 9.43333128 69.87923873 9.45663271 67.4609375 9.4765625 C66.22095442 9.48878908 66.22095442 9.48878908 64.95592117 9.50126266 C60.57658129 9.54300874 56.19736701 9.57159571 51.81787109 9.59033203 C47.30466391 9.6124129 42.79344248 9.6811404 38.28093529 9.76067543 C34.80291221 9.81311802 31.32535704 9.82972525 27.84697342 9.83689499 C26.1843799 9.84660656 24.52180591 9.86977884 22.85960007 9.90697098 C9.86416792 10.17956054 9.86416792 10.17956054 5.14971924 7.19647217 C3.14069099 5.22884454 1.49259571 3.37881568 0 1 C0 0.67 0 0.34 0 0 Z " fill="#E6E6E6" transform="translate(307,482)"/>
<path d="M0 0 C29.7 0 59.4 0 90 0 C82.31092242 8.97059051 82.31092242 8.97059051 78.95930481 9.28761292 C77.65249252 9.30428513 76.34568024 9.32095734 74.99926758 9.33813477 C74.27870178 9.34967087 73.55813599 9.36120697 72.81573486 9.37309265 C70.42531187 9.40747672 68.03514763 9.42591999 65.64453125 9.44140625 C64.82766027 9.44830915 64.0107893 9.45521206 63.16916466 9.46232414 C58.84283623 9.4981971 54.51663881 9.52171378 50.19018555 9.53540039 C45.72863216 9.55192166 41.26867142 9.61029361 36.80765247 9.67854404 C33.37170302 9.72341735 29.93613149 9.7369015 26.49991417 9.74201775 C24.85606782 9.74989672 23.21223282 9.76949802 21.56867409 9.80124092 C7.09478306 10.06225125 7.09478306 10.06225125 2.4362793 5.57788086 C0 2.53478812 0 2.53478812 0 0 Z " fill="#EBEAEA" transform="translate(626,482)"/>
<path d="M0 0 C31.68 0 63.36 0 96 0 C96 0.33 96 0.66 96 1 C94.33416367 1.00879936 94.33416367 1.00879936 92.63467407 1.01777649 C82.18669042 1.07490205 71.73891695 1.14760987 61.29114723 1.23571491 C55.91937372 1.28050992 50.54767765 1.31974568 45.17578125 1.34643555 C39.99501203 1.37237771 34.81453942 1.41271494 29.63395309 1.46318626 C27.65397191 1.47991671 25.67393934 1.49139235 23.69389725 1.49761391 C20.92793671 1.50718814 18.16274569 1.535166 15.39697266 1.56762695 C14.57194748 1.56619186 13.7469223 1.56475677 12.89689636 1.5632782 C10.38988279 1.56982092 10.38988279 1.56982092 7 2 C4.95620534 5.06569199 4.74755097 5.70031323 4.7215271 9.15715027 C4.71036362 10.00268967 4.69920013 10.84822906 4.68769836 11.71939087 C4.68553818 12.64367889 4.68337799 13.56796692 4.68115234 14.52026367 C4.67110672 15.49605881 4.6610611 16.47185394 4.65071106 17.47721863 C4.61978272 20.70746259 4.60281704 23.93762332 4.5859375 27.16796875 C4.56723363 29.4057131 4.54766081 31.64345035 4.5272522 33.88117981 C4.47584259 39.77480892 4.4362641 45.66846091 4.39910889 51.56219482 C4.35912456 57.57472435 4.30800684 63.58715795 4.2578125 69.59960938 C4.16094868 81.39967228 4.07657737 93.19978924 4 105 C5.98 105.33 7.96 105.66 10 106 C10 106.33 10 106.66 10 107 C6.7 107 3.4 107 0 107 C0 71.69 0 36.38 0 0 Z " fill="#E9E8E9" transform="translate(464,410)"/>
<path d="M0 0 C3.36455478 0.67291096 4.39575656 1.80837235 6.5 4.5 C6.95410156 7.61621094 6.95410156 7.61621094 6.890625 11.234375 C6.87773438 12.52988281 6.86484375 13.82539063 6.8515625 15.16015625 C6.81814366 16.52344824 6.78428391 17.88672949 6.75 19.25 C6.72992707 20.62888064 6.71167767 22.00778912 6.6953125 23.38671875 C6.64816016 26.75811138 6.5764174 30.12914373 6.5 33.5 C2.21 33.5 -2.08 33.5 -6.5 33.5 C-6.59198433 29.44246917 -6.67156595 25.38760335 -6.71972656 21.32958984 C-6.73980642 19.9502332 -6.76707666 18.57096131 -6.80175781 17.19189453 C-6.85042817 15.20643021 -6.87086418 13.22033746 -6.890625 11.234375 C-6.91157227 10.04038086 -6.93251953 8.84638672 -6.95410156 7.61621094 C-6.30844398 3.18547255 -4.44379309 0.88875862 0 0 Z " fill="#F2F3F2" transform="translate(512.5,439.5)"/>
<path d="M0 0 C3.61611157 0.8136251 4.51019021 2.49691354 6.5 5.5625 C6.95410156 8.70043945 6.95410156 8.70043945 6.890625 12.17578125 C6.87773437 13.42294922 6.86484375 14.67011719 6.8515625 15.95507812 C6.81804687 17.24865234 6.78453125 18.54222656 6.75 19.875 C6.72292969 21.84436523 6.72292969 21.84436523 6.6953125 23.85351562 C6.64823409 27.09015615 6.576493 30.32642103 6.5 33.5625 C2.21 33.5625 -2.08 33.5625 -6.5 33.5625 C-6.59198433 29.50496917 -6.67156595 25.45010335 -6.71972656 21.39208984 C-6.73980642 20.0127332 -6.76707666 18.63346131 -6.80175781 17.25439453 C-6.85042817 15.26893021 -6.87086418 13.28283746 -6.890625 11.296875 C-6.91157227 10.10288086 -6.93251953 8.90888672 -6.95410156 7.67871094 C-6.30572063 3.22928392 -4.41898284 0.99427114 0 0 Z " fill="#F0F1F1" transform="translate(353.5,534.4375)"/>
<path d="M0 0 C3.35751719 0.67150344 4.39390202 1.82141328 6.5 4.5 C6.95410156 7.52441406 6.95410156 7.52441406 6.890625 11.015625 C6.87773438 12.26601563 6.86484375 13.51640625 6.8515625 14.8046875 C6.81804688 16.10664062 6.78453125 17.40859375 6.75 18.75 C6.73195313 20.06742188 6.71390625 21.38484375 6.6953125 22.7421875 C6.64816882 25.99510156 6.57642616 29.24764217 6.5 32.5 C2.21 32.5 -2.08 32.5 -6.5 32.5 C-6.60771702 27.91604218 -6.68719721 23.33460364 -6.75 18.75 C-6.78351562 17.44804688 -6.81703125 16.14609375 -6.8515625 14.8046875 C-6.86445312 13.55429687 -6.87734375 12.30390625 -6.890625 11.015625 C-6.91157227 9.86352539 -6.93251953 8.71142578 -6.95410156 7.52441406 C-6.29756619 3.15174729 -4.37736374 0.87547275 0 0 Z " fill="#F4F4F4" transform="translate(671.5,534.5)"/>
<path d="M0 0 C0.33 0 0.66 0 1 0 C1 20.46 1 40.92 1 62 C1.33 61.01 1.66 60.02 2 59 C19.16 59 36.32 59 54 59 C54 59.66 54 60.32 54 61 C55.32 61.66 56.64 62.32 58 63 C38.86 63 19.72 63 0 63 C0 42.21 0 21.42 0 0 Z " fill="#EEEEEF" transform="translate(560,625)"/>
<path d="M0 0 C0.33 0 0.66 0 1 0 C1.2889979 7.68214044 1.57328772 15.36444537 1.85449219 23.046875 C1.95044443 25.6536848 2.04742628 28.26045694 2.14550781 30.8671875 C3.18928963 58.64456489 3.18928963 58.64456489 3 72 C2.67 72 2.34 72 2 72 C1.67 68.37 1.34 64.74 1 61 C0.67 61 0.34 61 0 61 C0 40.87 0 20.74 0 0 Z " fill="#C1C1C1" transform="translate(390,544)"/>
<path d="M0 0 C0.33 0 0.66 0 1 0 C1.33 4.62 1.66 9.24 2 14 C2.33 14 2.66 14 3 14 C3.0271045 17.04172719 3.04688964 20.08320997 3.0625 23.125 C3.07087891 23.9809375 3.07925781 24.836875 3.08789062 25.71875 C3.10538306 30.26678411 2.93192358 34.52383164 2 39 C1.67 39 1.34 39 1 39 C0.67 37.35 0.34 35.7 0 34 C-0.33 34 -0.66 34 -1 34 C-1.13947228 22.62526092 -0.73570866 11.35093354 0 0 Z " fill="#D7D7D7" transform="translate(313,615)"/>
<path d="M0 0 C0 11.55 0 23.1 0 35 C-0.33 35 -0.66 35 -1 35 C-1 31.37 -1 27.74 -1 24 C-1.66 24 -2.32 24 -3 24 C-3 16.41 -3 8.82 -3 1 C-1 0 -1 0 0 0 Z " fill="#CBCCCC" transform="translate(339,538)"/>
<path d="M0 0 C0.33 0 0.66 0 1 0 C2.48785872 20.4580574 2.48785872 20.4580574 2 30 C1.67 30.33 1.34 30.66 1 31 C0.76346477 33.52596259 0.57826308 36.03107207 0.4375 38.5625 C0.39431641 39.27341797 0.35113281 39.98433594 0.30664062 40.71679688 C0.20028223 42.47761912 0.09961154 44.2387832 0 46 C-0.33 46 -0.66 46 -1 46 C-1.19990804 30.65150478 -0.58842621 15.33507561 0 0 Z " fill="#AFAEAE" transform="translate(632,562)"/>
<path d="M0 0 C0.33 0 0.66 0 1 0 C1.05830787 3.39576062 1.09369946 6.7913915 1.125 10.1875 C1.15013672 11.62706055 1.15013672 11.62706055 1.17578125 13.09570312 C1.18222656 14.02705078 1.18867187 14.95839844 1.1953125 15.91796875 C1.20578613 16.77156982 1.21625977 17.6251709 1.22705078 18.50463867 C0.97204194 21.30726815 0.15541422 23.44729419 -1 26 C-1.33 26 -1.66 26 -2 26 C-1.86186975 21.85387186 -1.71321141 17.70818838 -1.5625 13.5625 C-1.52318359 12.37849609 -1.48386719 11.19449219 -1.44335938 9.97460938 C-1.40146484 8.84990234 -1.35957031 7.72519531 -1.31640625 6.56640625 C-1.27974854 5.52427979 -1.24309082 4.48215332 -1.20532227 3.40844727 C-1 1 -1 1 0 0 Z " fill="#EFEFEF" transform="translate(633,592)"/>
<path d="M0 0 C2.64 0 5.28 0 8 0 C7.67 0.66 7.34 1.32 7 2 C6.79581065 3.99651809 6.63477704 5.99759821 6.5 8 C6.11111111 13.77777778 6.11111111 13.77777778 5 16 C4.34 16 3.68 16 3 16 C3.03480469 15.01257813 3.06960938 14.02515625 3.10546875 13.0078125 C3.13253906 11.72648437 3.15960938 10.44515625 3.1875 9.125 C3.22230469 7.84882813 3.25710938 6.57265625 3.29296875 5.2578125 C3.19628906 4.18273437 3.09960938 3.10765625 3 2 C2.01 1.34 1.02 0.68 0 0 Z " fill="#FBFBFB" transform="translate(307,447)"/>
<path d="M0 0 C4.59858677 9.19717355 3.11410706 20.89518568 3 31 C2.67 31 2.34 31 2 31 C1.67 27.37 1.34 23.74 1 20 C0.67 20 0.34 20 0 20 C0 13.4 0 6.8 0 0 Z " fill="#DBDBDA" transform="translate(390,585)"/>
<path d="M0 0 C0.33 0 0.66 0 1 0 C1.05380578 2.79192205 1.09357669 5.5828141 1.125 8.375 C1.14175781 9.1690625 1.15851562 9.963125 1.17578125 10.78125 C1.19335473 12.85492015 1.10335168 14.92883241 1 17 C0.34 17.66 -0.32 18.32 -1 19 C-2 18 -2 18 -2.1328125 15.9609375 C-2.09090909 2.09090909 -2.09090909 2.09090909 0 0 Z " fill="#FAFAFA" transform="translate(621,451)"/>
<path d="M0 0 C1.65 0 3.3 0 5 0 C5 0.66 5 1.32 5 2 C12.59 2 20.18 2 28 2 C28 2.33 28 2.66 28 3 C23.5625336 3.16756928 19.12502168 3.33390157 14.6875 3.5 C13.42486328 3.54769531 12.16222656 3.59539062 10.86132812 3.64453125 C9.65283203 3.68964844 8.44433594 3.73476563 7.19921875 3.78125 C5.52605591 3.8440918 5.52605591 3.8440918 3.8190918 3.90820312 C1.88018086 3.97133905 -0.0600614 4 -2 4 C-1.34 2.68 -0.68 1.36 0 0 Z " fill="#DFE0E0" transform="translate(338,435)"/>
<path d="M0 0 C0.66 0.66 1.32 1.32 2 2 C1.98252112 4.59269983 1.86231408 7.0525154 1.625 9.625 C1.56828125 10.33140625 1.5115625 11.0378125 1.453125 11.765625 C1.31159079 13.51121361 1.15702613 15.25573673 1 17 C0.01 16.34 -0.98 15.68 -2 15 C-2.36328125 12.28515625 -2.36328125 12.28515625 -2.3125 9.0625 C-2.30863281 8.00160156 -2.30476562 6.94070313 -2.30078125 5.84765625 C-2 3 -2 3 0 0 Z " fill="#EFF0F0" transform="translate(596,517)"/>
<path d="M0 0 C0.33 0 0.66 0 1 0 C1 4.29 1 8.58 1 13 C0.01 13.33 -0.98 13.66 -2 14 C-2.05389087 12.04196493 -2.09274217 10.08351091 -2.125 8.125 C-2.14820313 7.03445313 -2.17140625 5.94390625 -2.1953125 4.8203125 C-2 2 -2 2 0 0 Z " fill="#E7E8E8" transform="translate(315,447)"/>
<path d="M0 0 C2.49361571 1.20381448 4.68143083 2.45428722 7 4 C6.67 4.99 6.34 5.98 6 7 C3.95880212 5.38405168 1.95927063 3.7143618 0 2 C0 1.34 0 0.68 0 0 Z " fill="#E1E0E0" transform="translate(309,483)"/>
<path d="M0 0 C1.2065625 0.0309375 1.2065625 0.0309375 2.4375 0.0625 C2.4375 0.7225 2.4375 1.3825 2.4375 2.0625 C0.4575 3.0525 -1.5225 4.0425 -3.5625 5.0625 C-3.5625 0.08689024 -3.5625 0.08689024 0 0 Z " fill="#E6E7E7" transform="translate(340.5625,434.9375)"/>
<path d="M0 0 C3.36720387 1.39332574 4.9859524 2.9789286 7 6 C4 6 4 6 1.8125 4.125 C0 2 0 2 0 0 Z " fill="#E9E9E9" transform="translate(627,483)"/>
<path d="M0 0 C0.99 0 1.98 0 3 0 C3 0.66 3 1.32 3 2 C3.66 2.33 4.32 2.66 5 3 C3.02 3.99 1.04 4.98 -1 6 C-0.67 4.02 -0.34 2.04 0 0 Z " fill="#E4E5E4" transform="translate(611,435)"/>
</svg>
