<?xml version="1.0" standalone="no"?>
<!DOCTYPE svg PUBLIC "-//W3C//DTD SVG 20010904//EN"
 "http://www.w3.org/TR/2001/REC-SVG-20010904/DTD/svg10.dtd">
<svg version="1.0" xmlns="http://www.w3.org/2000/svg"
 width="1024.000000pt" height="1024.000000pt" viewBox="280 200 520 570"
 preserveAspectRatio="xMidYMid meet">

<g transform="translate(0.000000,928.000000) scale(0.100000,-0.100000)"
fill="currentColor" stroke="none">
<path d="M5380 7017 c-29 -14 -50 -92 -169 -621 -63 -280 -68 -313 -57 -340 7
-17 23 -40 36 -51 20 -19 36 -20 221 -20 l199 0 31 32 c25 24 32 40 32 70 -1
66 -192 896 -211 914 -25 25 -54 30 -82 16z m100 -584 c35 -159 65 -298 68
-310 4 -23 4 -23 -130 -23 -74 0 -137 2 -140 5 -3 3 3 43 13 88 10 45 40 182
66 305 26 122 50 222 53 222 3 0 35 -129 70 -287z"/>
<path d="M4116 6669 c-14 -11 -26 -29 -26 -39 0 -41 236 -885 256 -916 20 -29
67 -48 104 -40 42 8 348 184 360 206 6 10 10 37 10 59 0 39 -11 53 -261 337
-400 452 -385 439 -443 393z m398 -523 c96 -110 173 -203 171 -206 -6 -10
-228 -135 -239 -135 -7 0 -175 572 -176 600 0 14 50 -39 244 -259z"/>
<path d="M6548 6598 c-81 -90 -409 -460 -495 -560 -23 -26 -45 -57 -48 -69
-10 -30 2 -84 23 -102 34 -31 318 -189 348 -194 37 -6 88 18 105 48 6 12 33
101 59 198 27 97 80 292 119 434 39 141 71 263 71 271 0 27 -41 66 -69 66 -23
0 -45 -18 -113 -92z m-82 -491 c-45 -164 -85 -299 -88 -300 -3 -1 -60 29 -127
67 l-121 68 33 37 c97 113 381 430 383 428 1 -1 -35 -136 -80 -300z"/>
<path d="M5170 5816 c-236 -42 -464 -142 -638 -282 -275 -220 -455 -507 -528
-845 -27 -121 -27 -458 0 -579 59 -270 178 -490 373 -691 120 -123 220 -199
365 -274 246 -129 530 -184 804 -155 345 35 637 171 869 405 208 209 340 451
401 735 26 118 26 418 1 542 -25 127 -61 229 -122 353 -66 134 -114 209 -203
311 -192 223 -448 383 -728 456 -111 29 -133 31 -319 34 -135 2 -224 -1 -275
-10z m441 -120 c138 -23 237 -54 364 -116 730 -354 970 -1269 505 -1922 -317
-444 -865 -645 -1399 -512 -422 105 -765 416 -909 824 -54 153 -67 237 -67
430 0 191 12 269 65 425 151 445 555 792 1014 869 108 18 320 19 427 2z"/>
<path d="M3133 5745 c-27 -19 -37 -59 -21 -89 7 -13 148 -151 313 -308 409
-388 380 -363 430 -363 29 0 50 7 65 20 12 11 62 87 111 169 74 124 89 156 89
191 0 75 -1 76 -495 243 -248 84 -455 152 -460 152 -6 0 -20 -7 -32 -15z m565
-290 c161 -55 292 -104 292 -108 0 -5 -31 -60 -68 -123 l-69 -114 -229 216
c-278 262 -252 237 -234 232 9 -1 147 -48 308 -103z"/>
<path d="M7210 5615 c-234 -80 -439 -152 -456 -161 -36 -18 -54 -51 -54 -97 0
-35 140 -289 188 -339 28 -30 75 -44 108 -31 26 10 709 647 718 669 16 43 -20
105 -61 103 -10 0 -209 -65 -443 -144z m200 -88 c-49 -47 -323 -303 -391 -365
l-55 -51 -67 114 c-37 63 -67 118 -67 124 0 8 575 208 605 210 5 1 -6 -14 -25
-32z"/>
<path d="M3575 4639 c-44 -10 -244 -55 -444 -99 -234 -51 -371 -86 -382 -96
-21 -19 -25 -55 -9 -84 13 -24 33 -30 310 -89 129 -27 331 -70 448 -96 117
-25 224 -42 237 -39 12 3 36 19 51 35 l29 30 0 200 0 201 -33 29 c-39 35 -84
37 -207 8z m125 -240 c0 -141 0 -141 -22 -137 -263 52 -625 134 -611 139 10 3
97 23 193 44 96 21 231 50 300 65 69 16 128 29 133 29 4 1 7 -63 7 -140z"/>
<path d="M7045 4638 c-36 -32 -44 -79 -45 -251 0 -163 9 -203 55 -233 15 -10
42 -17 59 -17 31 1 331 63 731 150 116 25 218 52 228 61 20 18 23 71 5 95 -9
11 -79 31 -223 62 -614 133 -720 155 -751 155 -20 0 -43 -9 -59 -22z m385
-163 c146 -31 283 -61 305 -67 38 -10 22 -15 -283 -80 -178 -38 -326 -67 -329
-65 -2 3 -1 66 3 141 6 118 9 136 23 132 9 -3 135 -30 281 -61z"/>
<path d="M3766 3773 c-30 -27 -166 -154 -303 -284 -136 -130 -272 -258 -300
-285 -63 -59 -73 -89 -42 -128 20 -25 27 -28 68 -23 73 8 882 287 909 314 16
16 22 34 22 67 0 39 -12 65 -90 195 -50 83 -102 159 -117 171 -43 34 -84 26
-147 -27z m161 -204 c44 -74 67 -122 60 -124 -406 -142 -591 -205 -597 -203
-6 3 450 447 460 447 3 0 37 -54 77 -120z"/>
<path d="M6910 3806 c-16 -9 -60 -74 -117 -173 -153 -263 -164 -249 307 -408
558 -190 562 -191 593 -157 35 40 22 86 -41 144 -27 23 -169 158 -316 298
-148 140 -284 267 -304 283 -39 30 -82 34 -122 13z m120 -172 c30 -30 135
-130 232 -221 98 -92 176 -168 174 -170 -2 -3 -406 132 -603 202 -8 3 13 47
60 125 39 66 74 120 77 120 3 0 30 -25 60 -56z"/>
<path d="M4366 3109 c-16 -13 -31 -40 -40 -72 -254 -910 -240 -855 -227 -884
12 -26 55 -46 81 -38 33 10 627 684 636 721 9 34 -3 89 -24 106 -9 8 -57 38
-107 65 -49 28 -117 67 -150 87 -71 43 -127 48 -169 15z m222 -184 c56 -33
101 -63 100 -67 -4 -10 -411 -468 -414 -465 -1 1 27 106 62 232 35 127 74 265
85 308 21 75 22 77 43 64 11 -7 67 -40 124 -72z"/>
<path d="M6191 3037 c-100 -57 -168 -103 -177 -118 -16 -29 -18 -73 -3 -101
11 -21 499 -579 578 -660 28 -31 54 -48 69 -48 25 0 72 41 72 62 0 21 -237
884 -249 906 -17 32 -52 52 -91 52 -26 0 -77 -24 -199 -93z m273 -332 c43
-163 77 -297 75 -299 -4 -4 -402 439 -406 452 -3 7 224 139 242 141 6 1 46
-132 89 -294z"/>
<path d="M5191 2814 c-30 -22 -51 -72 -44 -109 3 -17 50 -223 103 -460 104
-456 107 -465 164 -465 47 0 61 35 115 275 29 127 68 295 86 375 75 318 76
331 23 375 -29 25 -30 25 -227 25 -165 0 -200 -3 -220 -16z m359 -114 c0 -12
-129 -579 -137 -600 -3 -10 -143 580 -143 608 0 1 63 2 140 2 83 0 140 -4 140
-10z"/>
</g>
</svg>