<?xml version="1.0" standalone="no"?>
<!DOCTYPE svg PUBLIC "-//W3C//DTD SVG 20010904//EN"
 "http://www.w3.org/TR/2001/REC-SVG-20010904/DTD/svg10.dtd">
<svg version="1.0" xmlns="http://www.w3.org/2000/svg"
 width="1024.000000pt" height="1024.000000pt" viewBox="256 256 512 512"
 preserveAspectRatio="xMidYMid meet">

<g transform="translate(0.000000,1024.000000) scale(0.100000,-0.100000)"
fill="currentColor" stroke="none">
<path d="M4895 7048 c-211 -23 -458 -94 -630 -180 -318 -160 -550 -427 -654
-752 -50 -156 -64 -271 -58 -486 6 -212 29 -340 98 -557 53 -165 61 -254 30
-341 -38 -110 -22 -246 42 -354 38 -66 119 -135 203 -175 68 -33 86 -37 177
-40 198 -8 191 7 197 -395 l5 -317 29 -30 c42 -44 145 -67 184 -42 9 5 30 -3
62 -24 71 -48 174 -57 232 -22 13 9 22 7 40 -10 42 -38 71 -47 158 -47 66 -1
92 3 113 17 25 16 29 16 52 1 33 -21 147 -30 202 -15 23 6 55 22 70 35 26 22
31 23 53 10 54 -29 176 -12 229 32 26 21 33 23 52 13 27 -14 107 -6 149 16 17
9 40 30 50 48 19 30 20 52 20 317 0 158 5 301 10 321 6 19 22 46 36 60 23 22
36 25 147 30 109 5 129 9 190 37 213 98 320 346 235 545 -20 46 -21 56 -10
136 6 47 29 146 51 219 171 562 121 1022 -149 1381 -241 319 -633 515 -1142
570 -114 13 -359 12 -473 -1z m441 -79 c633 -61 1082 -349 1259 -807 60 -157
79 -271 79 -482 -1 -210 -19 -321 -94 -570 -64 -214 -74 -306 -40 -384 30 -70
35 -133 16 -206 -30 -117 -96 -194 -213 -247 -48 -22 -78 -28 -173 -33 -128
-7 -163 -19 -204 -72 -36 -49 -46 -100 -46 -248 l0 -135 -57 3 c-49 3 -64 0
-97 -23 l-38 -26 -42 21 c-23 11 -58 20 -77 20 -40 0 -109 -30 -138 -59 l-21
-21 -37 25 c-47 33 -72 38 -138 33 -38 -3 -64 -12 -89 -32 l-36 -27 -33 25
c-65 50 -157 53 -231 7 l-36 -22 -37 30 c-67 52 -153 60 -217 17 -22 -14 -25
-14 -37 0 -23 28 -68 44 -124 44 l-55 0 0 144 c0 138 -1 146 -28 197 -39 74
-87 99 -196 99 -145 0 -235 38 -324 135 -66 72 -97 158 -90 254 3 36 13 82 23
100 27 53 17 198 -23 321 -130 401 -147 746 -51 1046 60 187 137 312 284 459
109 109 191 168 331 238 290 145 674 211 1030 176z m-837 -3275 c18 -23 21
-41 21 -119 0 -79 -3 -94 -20 -110 -14 -13 -28 -16 -52 -11 -60 12 -68 28 -68
141 0 114 5 125 61 125 29 0 43 -6 58 -26z m1402 6 c17 -10 19 -22 19 -115 0
-100 -1 -105 -24 -120 -35 -23 -86 -22 -103 1 -23 30 -14 195 11 223 21 23 65
28 97 11z m-1151 -16 c46 -28 60 -63 60 -153 0 -75 -2 -84 -26 -108 -23 -23
-31 -25 -86 -21 -87 6 -98 23 -98 143 0 86 2 96 26 124 30 36 78 42 124 15z
m925 -15 c17 -16 21 -35 23 -119 4 -94 3 -100 -20 -123 -29 -29 -114 -45 -146
-28 -28 15 -42 63 -42 141 0 53 5 74 23 101 38 57 117 71 162 28z m-601 -16
c30 -30 40 -83 34 -188 -4 -97 -17 -110 -97 -108 -113 2 -121 13 -121 162 0
84 3 102 21 125 38 48 120 53 163 9z m279 16 c37 -17 49 -48 54 -139 7 -116
-3 -152 -48 -167 -56 -19 -126 -16 -149 7 -18 18 -20 33 -20 133 0 118 7 139
55 165 26 15 78 15 108 1z"/>
<path d="M4253 5540 c-135 -25 -232 -90 -274 -184 -30 -69 -42 -183 -30 -285
26 -210 100 -334 240 -400 51 -23 67 -26 176 -26 112 1 125 3 192 32 156 67
299 174 345 260 60 110 77 272 38 360 -43 98 -166 182 -325 224 -91 23 -281
33 -362 19z m331 -96 c135 -35 238 -100 277 -175 27 -54 25 -145 -6 -234 -20
-59 -34 -79 -84 -125 -72 -68 -202 -143 -294 -172 -52 -15 -86 -19 -138 -16
-208 15 -318 181 -307 460 3 80 9 112 26 144 24 47 71 90 121 111 82 34 286
38 405 7z"/>
<path d="M5747 5534 c-168 -30 -317 -114 -373 -210 -50 -86 -44 -225 16 -359
44 -99 200 -224 367 -293 108 -46 238 -47 353 -3 162 61 253 234 254 481 0
138 -20 202 -89 278 -96 107 -299 148 -528 106z m251 -74 c111 -12 147 -26
206 -80 59 -55 81 -116 80 -230 -2 -218 -76 -356 -220 -410 -140 -52 -302 -7
-492 137 -82 63 -113 108 -137 203 -24 94 -17 169 21 217 65 81 208 146 359
163 39 4 75 8 80 8 6 1 52 -3 103 -8z"/>
<path d="M5098 4864 c-34 -18 -42 -33 -157 -305 -96 -228 -106 -271 -76 -329
20 -38 60 -68 101 -76 27 -5 50 2 111 31 l77 37 65 -30 c92 -43 111 -45 161
-19 50 26 80 73 80 129 0 35 -140 391 -200 508 -32 63 -103 87 -162 54z m96
-101 c30 -59 186 -446 186 -462 0 -25 -29 -61 -50 -61 -10 0 -51 16 -91 35
-41 19 -78 35 -84 35 -6 0 -43 -16 -84 -35 -40 -19 -81 -35 -91 -35 -27 0 -50
27 -50 59 0 15 39 117 86 227 47 109 92 214 99 232 18 42 58 45 79 5z"/>
</g>
</svg>
