<?xml version="1.0" standalone="no"?>
<!DOCTYPE svg PUBLIC "-//W3C//DTD SVG 20010904//EN"
 "http://www.w3.org/TR/2001/REC-SVG-20010904/DTD/svg10.dtd">
<svg version="1.0" xmlns="http://www.w3.org/2000/svg"
 width="1024.000000pt" height="1024.000000pt" viewBox="180 180 650 650"
 preserveAspectRatio="xMidYMid meet">

<g transform="translate(0.000000,1024.000000) scale(0.100000,-0.100000)"
fill="currentColor" stroke="none">
<path d="M4982 8027 c-431 -416 -785 -632 -1132 -693 -117 -20 -316 -14 -435
14 -44 10 -88 16 -97 14 -26 -5 -308 -387 -308 -417 0 -13 22 -66 50 -117 129
-243 185 -534 160 -838 -15 -189 -31 -289 -105 -660 -88 -446 -98 -527 -92
-785 5 -233 26 -380 79 -559 115 -389 305 -702 613 -1011 291 -292 656 -547
1060 -740 201 -96 317 -145 346 -145 31 0 133 43 334 139 731 352 1277 845
1545 1396 150 307 219 610 220 957 0 215 -23 398 -100 778 -66 327 -95 519
-105 685 -15 270 52 583 171 791 25 43 47 88 50 99 3 14 -33 70 -126 195 -179
240 -172 232 -200 233 -14 0 -71 -10 -127 -21 -177 -38 -383 -26 -568 34 -266
86 -605 313 -921 617 -124 119 -159 147 -184 147 -7 0 -64 -51 -128 -113z
m232 -145 c240 -232 553 -457 781 -562 105 -49 253 -96 362 -115 119 -21 316
-21 427 0 49 9 92 13 96 8 28 -32 200 -273 200 -280 0 -5 -15 -38 -34 -73 -96
-184 -153 -415 -163 -660 -8 -230 13 -408 107 -880 76 -379 89 -471 97 -660
27 -707 -302 -1349 -952 -1856 -122 -95 -347 -246 -470 -316 -178 -101 -509
-258 -545 -258 -39 0 -361 152 -550 261 -566 324 -1023 781 -1227 1226 -51
113 -89 220 -123 347 -52 197 -64 291 -64 521 -1 235 7 299 80 660 98 485 124
672 124 890 0 258 -48 474 -153 697 l-50 107 103 138 c57 76 104 140 106 141
1 2 27 -1 56 -7 240 -52 518 -21 768 85 258 109 661 398 889 638 19 20 37 36
39 36 3 0 46 -40 96 -88z"/>
</g>
</svg>
