<?xml version="1.0" standalone="no"?>
<!DOCTYPE svg PUBLIC "-//W3C//DTD SVG 20010904//EN"
 "http://www.w3.org/TR/2001/REC-SVG-20010904/DTD/svg10.dtd">
<svg version="1.0" xmlns="http://www.w3.org/2000/svg"
 width="1024.000000pt" height="1024.000000pt" viewBox="256 256 512 530"
 preserveAspectRatio="xMidYMid meet">

<g transform="translate(0.000000,1024.000000) scale(0.100000,-0.100000)"
fill="currentColor" stroke="none">
<path d="M4900 7249 c-694 -85 -1318 -469 -1703 -1049 -80 -121 -198 -354
-245 -487 -43 -120 -86 -291 -108 -433 -25 -160 -26 -500 -1 -660 79 -501 298
-937 655 -1298 180 -182 373 -318 627 -443 346 -169 653 -239 1050 -239 572 0
1049 166 1498 522 344 273 602 660 732 1097 36 123 42 177 20 201 -20 23 -64
26 -86 8 -9 -7 -36 -47 -62 -88 -224 -364 -604 -621 -1067 -722 -92 -19 -134
-22 -330 -22 -212 0 -232 1 -344 28 -447 105 -790 337 -1031 697 -333 496
-366 1168 -83 1689 114 209 316 437 508 573 186 131 443 239 675 284 115 22
419 24 553 4 86 -13 94 -13 112 4 13 11 20 31 20 52 0 34 -2 35 -92 78 -175
81 -389 146 -613 186 -96 17 -169 22 -365 25 -135 1 -279 -2 -320 -7z m565
-129 c102 -14 286 -50 304 -60 7 -4 -19 -10 -60 -14 -252 -23 -564 -132 -781
-271 -168 -108 -351 -278 -470 -436 -519 -690 -460 -1665 137 -2288 367 -383
901 -586 1425 -542 427 36 792 195 1103 481 37 34 67 60 67 57 0 -15 -68 -152
-115 -233 -167 -283 -426 -543 -725 -727 -268 -164 -623 -283 -949 -316 -636
-66 -1284 151 -1760 587 -303 278 -555 714 -641 1108 -37 171 -50 293 -50 474
0 267 27 444 106 680 186 562 585 1016 1126 1285 259 128 523 201 838 229 73
7 359 -2 445 -14z"/>
</g>
</svg>
