<?xml version="1.0" standalone="no"?>
<!DOCTYPE svg PUBLIC "-//W3C//DTD SVG 20010904//EN"
 "http://www.w3.org/TR/2001/REC-SVG-20010904/DTD/svg10.dtd">
<svg version="1.0" xmlns="http://www.w3.org/2000/svg"
 width="1024.000000pt" height="1024.000000pt" viewBox="0 0 1024.000000 1024.000000"
 preserveAspectRatio="xMidYMid meet">

<g transform="translate(0.000000,1024.000000) scale(0.100000,-0.100000)"
fill="currentColor" stroke="none">
<path d="M4753 7440 c-17 -10 -37 -28 -43 -40 -6 -11 -26 -118 -44 -236 -19
-119 -38 -219 -42 -223 -5 -4 -41 -17 -80 -29 -39 -12 -118 -46 -176 -75
l-105 -53 -89 64 c-234 167 -293 202 -338 202 -55 0 -54 1 -319 -254 -281
-271 -276 -256 -153 -449 39 -62 95 -151 125 -199 l53 -86 -51 -102 c-28 -56
-62 -138 -76 -183 l-26 -82 -222 -38 c-211 -35 -223 -38 -252 -67 l-30 -30 -3
-340 c-3 -373 -2 -384 57 -414 16 -9 122 -31 236 -50 114 -19 210 -37 212 -40
3 -2 20 -51 39 -107 19 -56 53 -137 75 -180 48 -91 58 -59 -94 -292 -60 -92
-113 -182 -118 -199 -5 -20 -5 -47 2 -72 10 -42 80 -115 377 -393 105 -99 116
-106 160 -111 53 -5 32 -16 293 165 l145 102 89 -46 c49 -26 130 -61 180 -79
49 -17 93 -38 97 -45 4 -8 21 -108 38 -222 16 -115 36 -218 44 -229 37 -53 38
-53 386 -56 353 -3 386 1 422 49 15 19 29 84 54 245 19 120 38 222 42 225 4 4
41 17 82 30 41 13 121 46 178 75 l103 51 162 -115 c89 -63 176 -123 192 -133
38 -24 91 -24 132 -1 18 9 131 113 252 230 232 224 250 248 237 317 -4 19 -42
88 -84 152 -43 65 -99 152 -125 194 l-47 76 48 94 c27 52 61 135 77 185 16 49
29 90 30 91 0 1 95 18 210 38 116 19 220 39 233 45 12 5 31 24 42 42 19 31 20
51 20 370 l0 336 -25 31 c-33 38 -51 43 -286 82 l-196 32 -22 71 c-12 39 -47
123 -77 187 l-56 115 126 196 c69 107 129 209 132 226 13 65 -8 92 -234 313
-119 116 -230 220 -247 230 -17 11 -48 19 -71 19 -44 0 -54 -6 -313 -187
l-114 -80 -84 44 c-46 25 -126 60 -179 78 -53 18 -98 35 -100 38 -2 2 -18 96
-34 208 -17 112 -37 219 -45 237 -8 17 -29 41 -47 52 -31 19 -51 20 -368 20
-314 0 -337 -1 -367 -20z m648 -142 c0 -2 15 -101 34 -222 24 -157 38 -226 52
-243 13 -18 50 -35 133 -63 107 -35 184 -70 300 -135 30 -18 54 -24 73 -21 15
3 113 66 218 141 l192 134 198 -190 c109 -105 197 -194 195 -198 -2 -3 -61
-93 -130 -200 -112 -173 -126 -199 -126 -238 0 -30 8 -57 27 -86 38 -60 86
-169 117 -267 41 -127 47 -140 70 -152 11 -7 118 -28 236 -47 l215 -36 0 -270
0 -269 -224 -38 c-142 -23 -230 -42 -239 -52 -8 -8 -35 -75 -59 -148 -26 -80
-63 -167 -93 -219 -75 -131 -76 -130 71 -361 67 -105 123 -198 126 -207 2 -10
-66 -83 -191 -204 l-195 -187 -171 122 c-203 146 -227 160 -260 154 -14 -3
-65 -27 -115 -55 -49 -28 -150 -70 -223 -95 -134 -45 -156 -59 -166 -106 -7
-32 -66 -410 -66 -422 0 -4 -125 -8 -278 -8 l-278 0 -36 232 c-30 195 -40 235
-57 249 -11 9 -59 29 -108 44 -117 36 -192 68 -284 121 -42 24 -87 44 -100 44
-16 0 -96 -50 -216 -135 -105 -74 -195 -135 -201 -135 -12 0 -384 355 -390
371 -2 5 51 95 118 200 67 104 127 205 132 224 10 30 5 44 -60 177 -40 80 -81
180 -94 227 -34 131 -25 125 -288 170 l-225 38 -3 270 -2 270 207 32 c115 17
224 39 243 49 32 16 37 25 80 152 25 74 69 179 98 234 56 106 60 122 37 166
-16 31 -123 202 -201 322 -24 37 -44 71 -44 76 0 4 88 92 196 195 l196 187 66
-47 c144 -100 169 -119 238 -170 93 -69 114 -73 184 -33 104 58 202 102 311
137 78 25 113 41 121 56 9 17 77 414 78 455 0 9 63 12 280 12 154 0 280 -1
281 -2z"/>
<path d="M4965 6206 c-231 -39 -414 -134 -570 -298 -170 -177 -262 -375 -284
-610 -22 -235 46 -491 183 -682 61 -86 197 -213 289 -270 467 -291 1086 -158
1384 297 342 521 146 1214 -418 1482 -163 77 -406 111 -584 81z m380 -171
c438 -122 710 -562 619 -1003 -53 -259 -232 -486 -474 -601 -137 -65 -191 -76
-375 -75 -148 0 -167 2 -245 28 -162 54 -263 118 -382 245 -167 178 -254 450
-219 689 54 367 326 655 692 732 68 14 314 5 384 -15z"/>
</g>
</svg>
