<?xml version="1.0" standalone="no"?>
<!DOCTYPE svg PUBLIC "-//W3C//DTD SVG 20010904//EN"
 "http://www.w3.org/TR/2001/REC-SVG-20010904/DTD/svg10.dtd">
<svg version="1.0" xmlns="http://www.w3.org/2000/svg"
 width="1024.000000pt" height="1024.000000pt" viewBox="0 0 1024.000000 1024.000000"
 preserveAspectRatio="xMidYMid meet">

<g transform="translate(0.000000,1024.000000) scale(0.100000,-0.100000)"
fill="currentColor" stroke="none">
<path d="M4502 8100 c-54 -33 -74 -75 -69 -145 4 -49 74 -395 93 -457 5 -17
-5 -18 -118 -18 -109 0 -129 -3 -168 -22 -81 -42 -85 -54 -85 -256 0 -171 1
-178 24 -211 27 -38 91 -70 139 -71 l32 0 1 -272 c2 -354 2 -354 -27 -415 -30
-63 -67 -95 -176 -153 -319 -170 -618 -445 -810 -745 -160 -251 -262 -525
-304 -821 -23 -159 -23 -449 -1 -605 62 -426 236 -819 526 -1184 156 -196 557
-560 695 -630 l50 -25 813 0 c929 0 833 -10 973 96 716 541 1103 1206 1136
1954 27 601 -210 1187 -653 1612 -137 131 -360 290 -520 371 -66 34 -111 80
-139 142 -26 57 -26 60 -25 416 l1 256 51 6 c58 7 110 41 135 88 12 25 15 61
12 197 -3 158 -4 169 -27 201 -40 56 -87 71 -229 71 -113 0 -123 2 -118 18 20
66 89 408 93 457 5 70 -15 112 -69 145 -32 19 -52 20 -618 20 -566 0 -586 -1
-618 -20z m1182 -96 c21 -8 20 -45 -3 -146 -11 -46 -31 -141 -46 -213 -14 -71
-29 -138 -31 -147 -5 -17 -37 -18 -484 -18 l-479 0 -11 58 c-7 31 -30 135 -51
231 -42 189 -45 211 -27 229 9 9 148 12 564 12 304 0 559 -3 568 -6z m278
-651 c16 -14 18 -33 18 -151 0 -112 -3 -139 -17 -154 -15 -17 -55 -18 -841
-18 -754 0 -827 1 -844 17 -16 14 -18 33 -18 154 0 112 3 141 16 153 14 14
104 16 841 16 755 0 828 -1 845 -17z m-191 -550 c0 -65 4 -215 7 -333 l7 -216
32 -65 c43 -87 102 -140 248 -222 333 -188 582 -426 774 -743 190 -312 294
-718 277 -1084 -22 -492 -195 -940 -517 -1340 -152 -190 -385 -408 -603 -564
l-78 -56 -798 0 -798 0 -80 58 c-689 493 -1073 1141 -1118 1887 -23 383 99
830 315 1158 202 306 424 510 756 696 125 70 188 129 232 218 l28 58 3 333 3
332 655 0 654 0 1 -117z"/>
<path d="M4606 6748 c-13 -18 -16 -52 -16 -164 0 -124 2 -143 18 -157 24 -22
55 -21 75 1 14 16 17 43 17 170 0 139 -2 152 -19 162 -31 16 -59 12 -75 -12z"/>
<path d="M4593 6293 c-7 -2 -22 -37 -34 -76 -59 -200 -159 -315 -374 -427
-243 -127 -413 -289 -530 -503 -42 -76 -42 -111 1 -127 38 -15 57 1 103 84
104 190 254 332 461 436 220 110 338 230 419 423 40 98 49 157 26 180 -16 16
-47 21 -72 10z"/>
<path d="M4055 5040 c-118 -14 -227 -37 -345 -76 -104 -33 -249 -101 -283
-132 -45 -40 -96 -309 -104 -547 -20 -603 229 -1181 695 -1613 103 -96 281
-250 325 -282 18 -13 120 -15 741 -18 397 -2 739 0 761 3 32 5 64 26 160 106
281 236 431 394 566 598 187 282 302 596 340 923 31 274 -23 728 -91 767 -23
12 -34 9 -140 -42 -231 -112 -390 -150 -630 -150 -314 0 -560 62 -910 231
-325 156 -579 224 -885 236 -66 2 -156 1 -200 -4z m279 -110 c260 -25 486 -91
765 -224 311 -148 511 -207 796 -237 262 -26 506 14 760 125 55 24 103 41 107
37 15 -15 40 -209 45 -352 13 -362 -69 -692 -251 -1013 -137 -241 -298 -427
-572 -657 l-142 -120 -721 -1 c-621 -1 -724 1 -739 14 -9 8 -71 60 -137 115
-139 116 -325 305 -408 416 -129 172 -249 398 -312 590 -107 330 -124 712 -43
1039 20 84 23 89 62 112 123 72 350 140 516 155 137 12 154 12 274 1z"/>
<path d="M5023 4247 c-108 -40 -183 -148 -183 -261 1 -144 81 -246 221 -282
102 -26 203 7 278 92 121 137 75 355 -91 438 -42 21 -66 26 -122 25 -39 0 -85
-6 -103 -12z m186 -118 c59 -33 86 -81 86 -154 0 -52 -4 -67 -28 -98 -37 -49
-81 -71 -142 -71 -61 0 -105 22 -141 70 -67 87 -27 228 76 267 36 13 113 6
149 -14z"/>
<path d="M4520 3433 c-174 -89 -148 -344 40 -394 65 -17 131 -5 183 34 159
120 87 367 -112 384 -47 4 -64 0 -111 -24z m150 -100 c86 -51 54 -193 -44
-193 -72 0 -116 42 -116 111 0 22 10 41 34 65 39 39 80 45 126 17z"/>
<path d="M5417 3337 c-165 -53 -199 -268 -59 -370 36 -26 54 -32 110 -35 83
-4 142 23 187 87 27 38 30 51 30 116 0 65 -3 78 -30 117 -54 76 -155 112 -238
85z m106 -108 c83 -42 72 -164 -16 -187 -101 -27 -170 93 -96 167 33 33 73 40
112 20z"/>
</g>
</svg>
