<?xml version="1.0" standalone="no"?>
<!DOCTYPE svg PUBLIC "-//W3C//DTD SVG 20010904//EN"
 "http://www.w3.org/TR/2001/REC-SVG-20010904/DTD/svg10.dtd">
<svg version="1.0" xmlns="http://www.w3.org/2000/svg"
 width="1024.000000pt" height="1024.000000pt" viewBox="0 0 1024.000000 1024.000000"
 preserveAspectRatio="xMidYMid meet">

<g transform="translate(0.000000,1024.000000) scale(0.100000,-0.100000)"
fill="currentColor" stroke="none">
<path d="M6700 7279 c-107 -71 -272 -179 -366 -240 l-171 -110 -105 -132 c-57
-72 -221 -283 -363 -467 -453 -586 -666 -861 -785 -1010 -64 -80 -214 -270
-334 -424 -120 -153 -282 -358 -361 -457 l-144 -178 -121 99 c-105 87 -127
100 -159 100 -43 0 -75 -20 -96 -60 -36 -69 -18 -96 164 -245 66 -54 118 -101
116 -106 -3 -4 -60 -85 -126 -181 -67 -95 -160 -228 -207 -295 -73 -104 -90
-123 -112 -123 -49 0 -130 -31 -167 -63 -78 -68 -105 -193 -62 -287 41 -90
112 -139 216 -148 147 -11 260 105 251 261 l-3 57 254 271 c225 239 255 268
270 256 9 -7 60 -50 113 -95 166 -140 191 -151 254 -113 38 23 58 70 50 115
-6 29 -26 51 -121 131 l-115 96 107 127 c59 70 160 188 223 262 64 74 271 320
460 545 189 226 408 484 485 575 78 91 310 366 516 611 l375 446 33 94 c18 52
89 251 157 443 69 192 123 355 120 363 -11 29 -59 6 -246 -118z m74 -31 c-8
-14 -693 -870 -1176 -1469 -719 -894 -877 -1089 -1035 -1281 -93 -112 -199
-243 -237 -291 -38 -48 -74 -87 -80 -87 -6 0 -37 24 -69 53 l-58 52 128 159
c130 163 247 310 478 606 71 91 197 251 280 355 83 105 219 277 301 383 149
193 232 300 544 704 338 438 343 444 442 506 49 32 178 116 286 188 108 73
198 132 200 133 2 1 0 -5 -4 -11z m-20 -239 c-36 -101 -91 -253 -120 -338 -50
-142 -59 -159 -113 -220 -32 -36 -192 -226 -356 -421 -165 -195 -432 -512
-595 -705 -163 -192 -367 -435 -455 -540 -88 -104 -247 -293 -355 -420 -107
-126 -226 -267 -263 -312 -77 -93 -69 -92 -152 -19 l-49 44 60 74 c33 40 148
181 257 313 108 132 260 319 337 415 78 96 255 317 395 490 537 665 913 1133
1186 1475 156 194 285 353 286 351 2 -1 -27 -85 -63 -187z m-2742 -2775 c501
-411 638 -528 638 -548 0 -24 -28 -56 -49 -56 -19 0 9 -22 -478 382 -211 175
-383 325 -383 334 0 29 21 54 45 54 16 0 89 -53 227 -166z m117 -303 c50 -41
91 -77 91 -80 0 -5 -257 -284 -427 -463 l-53 -57 -45 44 c-24 25 -52 45 -61
45 -24 0 -18 10 122 212 228 328 266 379 274 376 5 -2 50 -36 99 -77z m-500
-576 c86 -59 108 -193 45 -271 -45 -56 -88 -76 -156 -72 -107 7 -178 83 -178
189 0 151 166 240 289 154z"/>
</g>
</svg>
