<?xml version="1.0" standalone="no"?>
<!DOCTYPE svg PUBLIC "-//W3C//DTD SVG 20010904//EN"
 "http://www.w3.org/TR/2001/REC-SVG-20010904/DTD/svg10.dtd">
<svg version="1.0" xmlns="http://www.w3.org/2000/svg"
 width="1024.000000pt" height="1024.000000pt" viewBox="0 0 1024.000000 1024.000000"
 preserveAspectRatio="xMidYMid meet">

<g transform="translate(0.000000,1024.000000) scale(0.100000,-0.100000)"
fill="#000000" stroke="none">
<path d="M3061 7924 c-17 -22 -21 -41 -21 -109 0 -45 -3 -130 -7 -188 l-6
-107 -473 0 c-330 0 -481 -3 -498 -11 -46 -21 -51 -53 -38 -248 6 -97 23 -239
36 -316 152 -860 733 -1569 1556 -1900 111 -45 368 -126 440 -139 20 -3 74
-35 125 -71 50 -36 153 -97 230 -136 77 -38 143 -73 146 -77 3 -4 3 -68 -2
-142 -9 -159 -6 -168 75 -204 96 -43 116 -95 116 -311 0 -345 -82 -744 -190
-927 -40 -69 -121 -99 -385 -143 -82 -14 -171 -32 -196 -41 -95 -31 -172 -131
-185 -240 -6 -50 -7 -51 -50 -62 -49 -13 -102 -61 -127 -114 -13 -28 -17 -65
-17 -166 0 -124 1 -132 22 -146 20 -14 180 -16 1514 -16 l1493 0 20 26 c18 23
21 41 21 126 0 136 -13 181 -69 239 -26 27 -59 50 -76 54 -52 12 -55 14 -55
44 0 56 -40 142 -90 191 -57 58 -91 69 -315 110 -208 37 -292 61 -328 95 -107
101 -213 529 -224 910 -8 261 12 326 111 370 80 36 81 36 78 204 l-2 146 111
54 c61 29 167 91 236 137 113 76 135 86 217 105 122 29 350 107 477 164 335
151 650 386 890 663 377 437 581 966 606 1568 l6 152 -26 26 -26 26 -484 0
-485 0 -7 190 c-6 167 -10 193 -27 215 l-19 25 -2039 0 -2039 0 -20 -26z
m4006 -466 c-6 -461 -35 -702 -122 -1033 -153 -587 -465 -1094 -867 -1412
-220 -174 -494 -301 -738 -343 -110 -19 -356 -17 -463 4 -752 146 -1393 889
-1611 1866 -32 145 -72 424 -86 599 -11 144 -14 621 -4 659 l6 22 1945 0 1945
0 -5 -362z m-4032 -132 c4 -30 4 -59 0 -65 -4 -8 -118 -11 -358 -11 -194 0
-357 -4 -363 -8 -30 -20 -32 -47 -13 -176 80 -543 316 -994 699 -1341 158
-143 325 -253 555 -365 139 -69 140 -69 219 -161 75 -88 77 -92 48 -86 -57 12
-266 99 -382 159 -564 295 -976 776 -1171 1371 -62 188 -119 511 -119 674 l0
63 439 0 440 0 6 -54z m5055 -19 c0 -170 -51 -458 -115 -652 -78 -237 -185
-451 -318 -637 -249 -348 -602 -638 -983 -808 -111 -49 -284 -113 -284 -105 0
3 28 35 61 72 34 38 68 78 76 90 9 13 80 54 166 96 156 76 372 212 487 307 85
70 226 214 302 309 235 291 391 658 457 1077 22 138 19 175 -14 188 -9 3 -174
6 -365 6 -192 0 -350 3 -353 8 -2 4 -1 33 1 65 l4 57 439 0 439 0 0 -73z
m-5028 -351 c56 -509 212 -1005 421 -1346 25 -41 44 -76 42 -79 -10 -9 -211
118 -330 208 -145 110 -329 309 -431 466 -119 183 -215 398 -273 610 -34 125
-63 283 -55 297 3 4 141 7 307 6 l301 -3 18 -159z m4748 144 c0 -46 -55 -274
-95 -397 -146 -444 -416 -799 -807 -1061 -98 -66 -179 -114 -184 -109 -2 2 19
44 47 93 154 267 268 569 343 910 29 132 63 349 71 459 3 44 8 90 11 103 l4
22 305 0 c298 0 305 0 305 -20z m-2995 -2552 c79 -20 115 -23 305 -23 189 0
228 3 318 23 57 13 105 22 107 20 1 -2 5 -41 9 -88 l6 -85 -53 -30 c-62 -36
-110 -108 -128 -194 -17 -80 -14 -373 5 -526 39 -309 134 -618 224 -725 61
-73 167 -111 467 -165 83 -15 162 -34 177 -41 31 -16 68 -80 68 -119 l0 -25
-1201 0 -1202 0 6 35 c10 58 43 102 90 118 23 8 101 25 172 37 349 58 438 104
515 266 93 194 163 543 177 874 11 281 -31 408 -157 477 -24 14 -35 27 -34 41
0 12 1 54 2 93 2 62 4 70 20 65 9 -3 58 -16 107 -28z m1679 -2144 c23 -23 26
-35 26 -90 l0 -64 -362 0 c-200 1 -829 0 -1398 -2 l-1035 -3 -3 61 c-3 54 0
65 23 93 l27 31 1348 0 1347 0 27 -26z"/>
<path d="M5180 1170 c20 -13 33 -13 25 0 -3 6 -14 10 -23 10 -15 0 -15 -2 -2
-10z"/>
</g>
</svg>
