<?xml version="1.0" standalone="no"?>
<!DOCTYPE svg PUBLIC "-//W3C//DTD SVG 20010904//EN"
 "http://www.w3.org/TR/2001/REC-SVG-20010904/DTD/svg10.dtd">
<svg version="1.0" xmlns="http://www.w3.org/2000/svg"
 width="512.000000pt" height="512.000000pt" viewBox="0 0 512.000000 512.000000"
 preserveAspectRatio="xMidYMid meet">

<g transform="translate(0.000000,512.000000) scale(0.100000,-0.100000)"
fill="currentColor" stroke="none">
<path d="M2527 4792 c-15 -16 -307 -725 -328 -795 -6 -22 -4 -32 13 -49 17
-17 27 -19 62 -13 123 20 172 25 286 25 114 0 163 -5 286 -25 35 -6 45 -4 63
14 16 16 20 29 15 44 -20 69 -316 783 -330 798 -22 24 -46 24 -67 1z m148
-444 c61 -150 111 -277 113 -283 2 -7 -73 -10 -228 -10 -155 0 -230 3 -228 10
8 30 224 555 228 555 3 0 55 -123 115 -272z"/>
<path d="M983 4159 c-22 -8 -28 -25 -23 -59 5 -33 323 -776 340 -794 28 -29
63 -14 98 41 78 121 252 295 375 374 55 36 70 71 41 99 -14 14 -706 312 -794
342 -8 3 -25 2 -37 -3z m407 -259 c146 -62 269 -115 273 -119 4 -5 -9 -21 -30
-36 -61 -46 -192 -175 -240 -238 -25 -32 -49 -55 -53 -50 -6 6 -177 404 -238
552 -4 10 -1 13 9 9 8 -4 133 -57 279 -118z"/>
<path d="M4033 4136 c-454 -187 -717 -304 -730 -323 -21 -32 -9 -57 45 -92
120 -77 294 -251 373 -373 17 -26 39 -50 50 -53 45 -14 61 14 221 396 188 448
177 419 168 445 -13 34 -43 34 -127 0z m-16 -128 c-84 -203 -231 -545 -237
-551 -4 -4 -20 9 -35 30 -46 61 -175 192 -238 240 -32 25 -55 48 -52 52 7 7
545 238 559 240 4 1 6 -5 3 -11z"/>
<path d="M2380 3695 c-424 -71 -775 -370 -910 -773 -181 -542 68 -1134 588
-1396 81 -41 218 -84 322 -101 622 -100 1213 330 1315 959 100 618 -332 1209
-959 1311 -108 18 -252 18 -356 0z m435 -119 c212 -54 422 -188 558 -357 86
-105 168 -269 204 -404 23 -88 26 -119 26 -255 0 -136 -3 -167 -26 -255 -57
-215 -190 -423 -358 -558 -105 -86 -269 -168 -404 -204 -88 -23 -119 -26 -255
-26 -136 0 -167 3 -255 26 -135 36 -299 118 -404 204 -168 135 -301 343 -358
558 -23 88 -26 119 -26 255 0 136 3 167 26 255 107 406 427 700 849 781 110
21 299 12 423 -20z"/>
<path d="M1120 2920 c-68 -20 -776 -312 -792 -327 -23 -21 -23 -45 0 -67 16
-13 730 -309 799 -330 36 -11 67 27 59 73 -30 173 -33 441 -6 551 19 75 -6
116 -60 100z m-55 -360 c0 -155 -3 -230 -10 -228 -30 8 -555 224 -555 228 0 5
537 227 555 229 6 1 10 -82 10 -229z"/>
<path d="M3948 2908 c-16 -16 -19 -28 -14 -57 31 -177 33 -420 5 -560 -13 -62
-12 -64 10 -83 15 -12 31 -16 45 -12 68 21 782 317 798 330 23 22 23 46 0 67
-16 15 -725 307 -795 328 -22 6 -32 4 -49 -13z m400 -233 c149 -60 272 -112
272 -115 0 -4 -525 -220 -555 -228 -7 -2 -10 73 -10 228 0 155 3 230 10 228 6
-2 133 -52 283 -113z"/>
<path d="M1298 1813 c-23 -26 -340 -783 -340 -812 -1 -27 17 -41 50 -41 30 0
782 317 806 340 27 27 14 62 -36 95 -125 82 -254 206 -347 334 -78 108 -100
121 -133 84z m187 -301 c44 -46 104 -102 133 -124 29 -23 49 -44 45 -48 -10
-10 -556 -240 -560 -237 -2 3 118 290 224 537 l15 35 31 -40 c18 -22 68 -77
112 -123z"/>
<path d="M3753 1812 c-10 -11 -38 -48 -63 -83 -57 -81 -216 -240 -299 -299
-108 -76 -117 -89 -83 -128 20 -24 770 -342 804 -342 33 0 51 14 50 41 0 36
-320 791 -344 812 -26 22 -44 22 -65 -1z m150 -432 c64 -150 115 -275 114
-277 -4 -3 -550 228 -560 237 -5 4 18 28 50 53 63 48 192 179 238 240 15 21
31 34 35 30 4 -4 60 -132 123 -283z"/>
<path d="M2212 1172 c-17 -17 -19 -27 -13 -49 21 -70 313 -779 328 -795 21
-23 45 -23 66 0 14 15 309 728 331 799 5 16 1 28 -15 44 -18 18 -28 20 -63 14
-123 -20 -172 -25 -286 -25 -114 0 -163 5 -286 25 -35 6 -45 4 -62 -13z m576
-117 c-8 -30 -224 -555 -228 -555 -4 0 -220 525 -228 555 -2 7 73 10 228 10
155 0 230 -3 228 -10z"/>
</g>
</svg>
