<?xml version="1.0" standalone="no"?>
<!DOCTYPE svg PUBLIC "-//W3C//DTD SVG 20010904//EN"
 "http://www.w3.org/TR/2001/REC-SVG-20010904/DTD/svg10.dtd">
<svg version="1.0" xmlns="http://www.w3.org/2000/svg"
 width="1024.000000pt" height="1024.000000pt" viewBox="220 230 520 540"
 preserveAspectRatio="xMidYMid meet">

<g transform="translate(0.000000,1024.000000) scale(0.100000,-0.100000)"
fill="currentColor" stroke="none">
<path d="M3647 7609 c-86 -20 -159 -76 -200 -153 -17 -33 -22 -58 -22 -126 0
-74 3 -91 27 -130 14 -25 40 -58 57 -74 l31 -30 0 -2029 0 -2029 22 -40 c53
-94 173 -113 260 -40 62 52 58 -96 58 2125 l0 2034 26 24 c73 67 96 207 50
304 -55 117 -194 191 -309 164z m138 -132 c102 -58 113 -194 22 -274 -63 -55
-144 -56 -208 -3 -70 57 -87 134 -46 211 45 84 148 114 232 66z m-15 -2415 c0
-1783 -2 -1990 -16 -2010 -18 -26 -65 -30 -88 -6 -14 14 -16 210 -16 2010 l0
1994 60 0 60 0 0 -1988z"/>
<path d="M4164 7000 c-131 -14 -172 -22 -191 -35 -17 -13 -18 -58 -21 -1003
-2 -956 -2 -990 17 -1013 l18 -23 129 13 c227 22 454 25 621 7 254 -27 480
-96 533 -163 11 -14 25 -44 30 -67 25 -102 68 -139 207 -182 288 -89 762 -105
1108 -38 129 26 115 -100 115 1034 0 975 0 987 -20 1005 -19 18 -24 18 -143
-1 -169 -26 -556 -26 -702 0 -209 38 -315 87 -355 166 -49 96 -114 143 -272
194 -279 91 -763 139 -1074 106z m462 -110 c227 -18 410 -51 584 -105 186 -59
180 -49 180 -293 0 -163 3 -201 16 -220 19 -28 58 -28 85 -1 18 18 20 30 17
140 -2 65 -2 119 -2 119 1 0 30 -13 66 -29 149 -68 367 -104 633 -104 166 0
344 13 398 29 16 5 17 -43 17 -904 l0 -910 -22 -5 c-99 -24 -219 -32 -468 -32
-241 0 -290 3 -400 23 -128 23 -270 60 -270 71 0 3 9 58 20 121 11 63 20 128
20 144 0 57 -58 87 -93 49 -11 -14 -37 -109 -37 -141 0 -2 -23 17 -50 42 -115
102 -397 171 -755 183 -145 5 -408 -6 -490 -20 -14 -3 -15 1824 0 1829 17 7
224 21 326 23 53 0 154 -4 225 -9z"/>
</g>
</svg>
