<?xml version="1.0" standalone="no"?>
<!DOCTYPE svg PUBLIC "-//W3C//DTD SVG 20010904//EN"
 "http://www.w3.org/TR/2001/REC-SVG-20010904/DTD/svg10.dtd">
<svg version="1.0" xmlns="http://www.w3.org/2000/svg"
 width="512.000000pt" height="512.000000pt" viewBox="50 50 400.000000 400.000000"
 preserveAspectRatio="xMidYMid meet">

<g transform="translate(0.000000,512.000000) scale(0.100000,-0.100000)"
fill="currentColor" stroke="none">
<path d="M2403 4260 c-335 -35 -640 -158 -900 -361 -35 -27 -65 -49 -68 -49
-3 0 -49 29 -101 65 -115 78 -155 85 -206 34 l-31 -30 7 -342 c8 -446 12 -491
43 -527 44 -53 50 -52 467 84 343 113 387 130 410 157 28 33 33 73 14 114 -7
15 -58 58 -120 101 -59 42 -108 79 -108 83 0 5 24 24 54 44 120 80 288 149
446 183 118 26 380 26 500 0 513 -110 895 -492 1006 -1006 26 -119 26 -381 0
-500 -56 -260 -178 -482 -364 -662 -154 -149 -301 -239 -497 -303 -374 -123
-782 -65 -1115 158 -41 28 -123 98 -181 156 -157 157 -246 300 -314 504 -33
100 -65 274 -65 356 l0 41 -216 0 -216 0 7 -92 c41 -552 313 -1029 755 -1323
788 -525 1844 -317 2365 465 433 650 378 1485 -136 2079 -242 279 -612 487
-981 550 -136 24 -341 33 -455 21z"/>
</g>
</svg>
