<?xml version="1.0" standalone="no"?>
<!DOCTYPE svg PUBLIC "-//W3C//DTD SVG 20010904//EN"
 "http://www.w3.org/TR/2001/REC-SVG-20010904/DTD/svg10.dtd">
<svg version="1.0" xmlns="http://www.w3.org/2000/svg"
 width="1024.000000pt" height="1024.000000pt" viewBox="230 220 620 620"
 preserveAspectRatio="xMidYMid meet">

<g transform="translate(0.000000,1024.000000) scale(0.100000,-0.100000)"
fill="currentColor" stroke="none">
<path d="M4846 7409 c-377 -49 -660 -264 -878 -669 -78 -144 -184 -431 -268
-722 -87 -306 -193 -807 -207 -978 -13 -165 59 -375 175 -510 17 -21 32 -42
32 -48 0 -5 -19 -14 -42 -21 -76 -22 -203 -89 -284 -149 -190 -141 -332 -358
-394 -606 -20 -79 -36 -189 -54 -376 -14 -146 -34 -340 -43 -432 -17 -162 -17
-167 1 -187 l19 -21 2074 0 2073 0 21 21 c16 16 19 29 15 57 -3 20 -10 87 -16
147 -61 659 -71 730 -117 865 -32 92 -90 209 -137 275 -20 27 -36 53 -36 58 0
9 52 95 273 457 82 135 155 251 162 258 10 11 42 -4 171 -79 138 -81 166 -93
215 -97 70 -5 135 21 171 69 102 135 541 943 581 1068 36 114 14 181 -62 181
-30 0 -44 -9 -91 -57 -30 -32 -103 -130 -161 -218 -104 -157 -143 -219 -349
-543 -56 -89 -105 -164 -109 -166 -6 -4 -191 101 -207 116 -3 4 38 87 93 185
121 215 294 535 356 658 79 159 97 253 54 293 -39 37 -80 29 -138 -25 -65 -61
-293 -402 -597 -893 -12 -19 -26 -41 -31 -49 -7 -11 -29 -2 -109 43 -56 31
-103 60 -106 64 -2 4 30 68 71 142 305 551 428 802 439 892 6 52 4 58 -19 82
-79 79 -158 -4 -457 -479 -73 -115 -184 -298 -248 -405 -107 -181 -116 -199
-120 -256 -7 -105 19 -135 215 -249 73 -42 135 -80 137 -84 3 -4 -22 -49 -53
-101 -32 -52 -120 -196 -196 -320 -76 -124 -141 -229 -145 -233 -4 -5 -32 5
-61 22 -46 25 -136 63 -203 85 -18 6 -17 9 11 39 102 108 173 269 189 427 28
278 -251 1359 -458 1775 -249 499 -674 755 -1152 694z m377 -143 c293 -87 502
-278 669 -610 163 -324 375 -1084 434 -1550 15 -123 15 -139 0 -212 -45 -223
-197 -401 -541 -629 -238 -158 -427 -259 -655 -351 -166 -66 -213 -57 -523 98
-466 232 -806 491 -915 696 -87 163 -95 273 -43 551 89 479 217 939 352 1266
159 386 389 629 687 725 131 43 180 49 322 46 99 -3 143 -9 213 -30z m1946
-1127 c-181 -342 -245 -461 -332 -613 -77 -136 -89 -162 -81 -184 7 -19 52
-50 179 -123 168 -97 203 -111 223 -86 6 6 91 140 189 297 320 507 435 684
393 600 -52 -104 -444 -815 -487 -882 -25 -41 -30 -90 -10 -106 36 -29 349
-202 365 -202 26 0 30 6 194 270 255 411 465 734 418 640 -57 -111 -240 -444
-373 -678 -159 -281 -183 -312 -230 -312 -13 0 -413 225 -647 364 -58 35 -142
84 -187 110 -45 26 -87 54 -94 62 -26 32 -13 73 75 226 105 183 478 780 483
774 2 -2 -33 -73 -78 -157z m-60 -1251 c-5 -9 -57 -95 -116 -190 -58 -95 -152
-249 -208 -343 -57 -93 -126 -208 -155 -255 -29 -47 -110 -179 -180 -295 -136
-224 -324 -530 -487 -790 -55 -88 -105 -170 -112 -182 -10 -20 -19 -23 -77
-23 l-65 0 16 29 c8 17 151 249 317 518 166 268 358 583 428 698 70 116 200
329 290 475 90 146 185 302 212 348 l49 82 49 -27 c40 -22 47 -30 39 -45z
m-3206 -582 c107 -85 197 -146 355 -240 l112 -67 0 -595 0 -594 -360 0 -360 0
0 763 0 763 78 21 c42 12 78 22 80 22 1 1 44 -32 95 -73z m2357 43 l40 -12 0
-168 0 -168 -68 -113 c-38 -62 -133 -216 -212 -343 -79 -126 -207 -333 -285
-460 -78 -126 -148 -240 -155 -252 -13 -20 -24 -23 -72 -23 l-58 0 0 559 0
559 93 50 c202 110 449 272 542 356 37 34 44 36 87 32 26 -3 65 -10 88 -17z
m190 -98 c0 -4 -7 -16 -15 -27 -13 -18 -14 -16 -15 20 0 33 2 37 15 26 8 -7
15 -16 15 -19z m-2920 -711 l0 -730 -265 0 -265 0 0 28 c0 37 47 517 66 677
30 245 113 432 266 600 49 54 173 154 191 155 4 0 7 -328 7 -730z m3248 345
c44 -88 76 -182 96 -282 14 -70 86 -718 86 -772 0 -21 -1 -21 -270 -21 l-270
0 0 360 0 361 123 202 c68 111 132 217 143 235 l19 33 19 -23 c10 -13 34 -54
54 -93z m-2016 -79 c176 -73 261 -71 454 12 l114 49 0 -528 0 -529 -420 0
-419 0 -1 528 c0 290 3 542 6 560 l6 31 89 -44 c48 -25 125 -60 171 -79z
m1538 -741 l0 -255 -160 0 c-88 0 -160 2 -160 5 0 3 22 40 48 83 27 42 77 124
112 182 90 149 149 240 155 240 3 0 5 -115 5 -255z"/>
<path d="M4780 6781 c-309 -69 -546 -280 -670 -598 -120 -306 -201 -812 -172
-1075 26 -242 150 -442 433 -705 214 -199 527 -414 606 -416 66 -2 380 214
598 411 249 224 392 437 431 639 45 234 -18 728 -136 1083 -112 333 -331 555
-637 646 -122 36 -328 43 -453 15z m391 -123 c48 -10 95 -26 105 -34 18 -14
16 -17 -36 -65 -219 -203 -493 -308 -848 -326 l-124 -6 17 39 c54 132 202 273
359 344 172 78 331 93 527 48z m357 -200 c35 -34 81 -89 102 -120 l38 -57 7
-288 c9 -326 0 -460 -41 -600 -100 -346 -409 -597 -704 -569 -240 22 -470 209
-579 471 -66 158 -75 220 -75 530 l-1 280 135 7 c371 18 706 152 919 369 l76
76 29 -18 c16 -9 58 -46 94 -81z m331 -789 c47 -276 52 -552 12 -679 -35 -110
-122 -244 -244 -374 -53 -57 -57 -59 -79 -45 -13 9 -36 40 -51 71 -23 46 -30
74 -34 152 l-6 95 59 63 c151 162 246 376 274 617 5 47 10 149 11 226 l1 140
19 -75 c10 -41 27 -127 38 -191z m-1685 -194 c46 -216 125 -373 261 -523 l58
-63 -6 -87 c-7 -107 -28 -169 -71 -211 l-33 -32 -47 47 c-77 77 -171 204 -214
289 -58 116 -66 168 -59 418 5 212 21 339 65 527 l17 75 6 -180 c4 -107 13
-212 23 -260z m639 -752 c150 -38 330 -17 470 54 27 13 51 22 54 20 2 -3 9
-37 14 -77 11 -89 36 -146 88 -203 l41 -44 -112 -93 c-99 -81 -301 -225 -365
-259 -19 -10 -30 -8 -65 10 -87 44 -292 190 -411 292 l-58 50 35 36 c53 56 82
120 96 214 l12 84 65 -33 c36 -18 97 -41 136 -51z"/>
</g>
</svg>
