<?xml version="1.0" standalone="no"?>
<!DOCTYPE svg PUBLIC "-//W3C//DTD SVG 20010904//EN"
 "http://www.w3.org/TR/2001/REC-SVG-20010904/DTD/svg10.dtd">
<svg version="1.0" xmlns="http://www.w3.org/2000/svg"
 width="1024.000000pt" height="1024.000000pt" viewBox="256 265 512 512"
 preserveAspectRatio="xMidYMid meet">

<g transform="translate(0.000000,1024.000000) scale(0.100000,-0.100000)"
fill="currentColor" stroke="none">
<path d="M4945 7445 c-247 -66 -459 -249 -678 -585 -233 -357 -474 -908 -594
-1361 -38 -140 -39 -310 -4 -409 40 -113 124 -235 214 -309 l45 -38 -94 -53
c-230 -130 -382 -296 -517 -566 -136 -271 -226 -633 -263 -1063 -21 -237 -23
-231 87 -257 212 -50 623 -106 1004 -138 737 -63 1539 -50 2245 35 284 34 659
102 699 126 23 15 23 16 17 147 -23 432 -126 868 -276 1165 -129 258 -336 472
-562 582 l-47 23 72 72 c145 144 220 333 204 509 -19 205 -162 630 -340 1010
-259 555 -540 915 -825 1059 -118 59 -278 81 -387 51z m283 -119 c83 -33 201
-116 295 -205 257 -246 555 -785 753 -1364 113 -331 135 -464 99 -602 -35
-135 -144 -275 -285 -368 -163 -107 -499 -257 -812 -362 l-126 -43 14 40 c7
22 18 57 24 77 10 37 14 40 88 66 174 61 433 213 585 341 121 103 199 228 233
372 24 102 15 312 -21 467 -63 279 -171 546 -292 729 -70 105 -205 249 -284
304 -209 142 -425 177 -649 104 -340 -111 -625 -499 -766 -1042 -80 -308 -72
-542 23 -723 98 -185 427 -426 747 -548 l82 -31 25 -74 c18 -51 22 -74 13 -74
-20 0 -241 78 -399 142 -172 69 -436 201 -539 269 -75 49 -159 129 -202 193
-82 120 -105 285 -64 451 101 409 359 1008 577 1345 202 311 437 518 637 560
65 14 179 3 244 -24z m18 -541 c40 -13 105 -44 145 -67 76 -45 211 -172 267
-251 l33 -47 -621 0 c-494 0 -620 3 -614 13 20 33 141 170 183 205 196 165
403 215 607 147z m530 -522 c11 -71 -3 -330 -20 -398 -31 -114 -82 -202 -173
-294 -47 -48 -87 -81 -91 -75 -5 5 -16 35 -25 66 -35 114 -122 214 -231 264
-117 54 -229 52 -344 -4 -107 -52 -211 -185 -228 -291 -4 -23 -10 -41 -14 -41
-4 0 -36 27 -72 60 -84 76 -151 175 -185 270 -24 68 -27 92 -31 255 -2 114 0
190 7 208 l11 27 694 0 695 0 7 -47z m178 -475 c62 -255 68 -393 25 -533 -40
-132 -155 -260 -344 -385 -112 -73 -371 -208 -381 -197 -6 6 6 52 57 220 29
94 32 99 67 114 51 21 168 98 217 141 155 140 218 282 245 554 6 57 17 137 25
178 8 41 15 91 15 110 l1 35 19 -47 c10 -25 35 -111 54 -190z m-1694 169 c1
-23 5 -62 11 -87 5 -25 14 -95 18 -156 26 -331 163 -549 434 -690 l81 -42 46
-154 c26 -84 43 -154 39 -156 -17 -7 -262 122 -379 199 -388 257 -456 493
-299 1030 32 111 49 130 49 56z m904 -213 c58 -20 143 -96 178 -161 15 -26 32
-77 38 -112 l12 -65 -41 -80 c-47 -94 -77 -182 -161 -471 -34 -115 -62 -211
-64 -212 -1 -1 0 225 2 502 3 277 2 514 -2 528 -10 40 -66 54 -98 24 -2 -1 -5
-240 -8 -531 l-5 -529 -39 139 c-63 226 -153 491 -192 565 -35 67 -36 70 -26
128 21 118 96 216 202 265 65 30 134 34 204 10z m-529 -389 c39 -39 60 -71 88
-139 21 -49 36 -91 34 -93 -9 -8 -147 99 -195 151 -50 55 -124 189 -137 250
-5 26 1 22 76 -45 46 -41 106 -97 134 -124z m1065 138 c-41 -127 -129 -241
-249 -322 l-64 -44 7 29 c4 16 23 61 42 101 29 61 47 83 122 146 48 41 100 89
116 106 16 17 31 29 34 27 2 -3 -2 -22 -8 -43z m630 -931 c248 -164 419 -423
539 -813 61 -198 119 -521 136 -751 5 -78 4 -87 -12 -92 -54 -16 -306 -59
-498 -85 -387 -52 -715 -79 -1096 -88 l-276 -6 3 763 c2 420 7 767 12 771 4 3
72 28 152 54 278 91 561 212 744 318 l78 45 66 -30 c37 -16 105 -55 152 -86z
m-2129 24 c186 -96 407 -188 652 -271 l167 -58 0 -765 0 -765 -242 6 c-518 13
-1097 72 -1533 155 l-90 17 -3 45 c-5 64 25 323 54 475 110 571 298 921 606
1128 72 48 201 117 219 117 4 0 81 -38 170 -84z"/>
<path d="M4585 6261 c-84 -22 -145 -81 -170 -163 -48 -163 89 -324 259 -304
189 22 273 261 141 398 -19 20 -51 43 -70 52 -42 20 -118 28 -160 17z m115
-116 c48 -25 70 -62 70 -118 0 -44 -4 -53 -39 -88 -33 -33 -45 -39 -82 -39
-102 0 -162 91 -121 183 30 68 107 96 172 62z"/>
<path d="M5420 6255 c-175 -56 -223 -268 -90 -397 111 -107 284 -85 365 46 27
44 30 58 30 130 0 75 -2 84 -33 128 -61 89 -171 126 -272 93z m162 -132 c59
-59 54 -141 -11 -196 -61 -51 -160 -26 -196 49 -59 125 109 244 207 147z"/>
</g>
</svg>
