<?xml version="1.0" standalone="no"?>
<!DOCTYPE svg PUBLIC "-//W3C//DTD SVG 20010904//EN"
 "http://www.w3.org/TR/2001/REC-SVG-20010904/DTD/svg10.dtd">
<svg version="1.0" xmlns="http://www.w3.org/2000/svg"
 width="1024.000000pt" height="1024.000000pt" viewBox="230 230 550 550"
 preserveAspectRatio="xMidYMid meet">

<g transform="translate(0.000000,1024.000000) scale(0.100000,-0.100000)"
fill="currentColor" stroke="none">
<path d="M4916 7490 c-143 -37 -299 -121 -430 -234 -139 -119 -291 -332 -423
-592 -117 -230 -439 -948 -567 -1264 -126 -310 -97 -585 83 -805 27 -33 70
-76 96 -95 l46 -34 -78 -37 c-119 -55 -288 -173 -380 -266 -177 -179 -284
-375 -346 -634 -92 -384 -119 -521 -108 -545 22 -48 98 -57 121 -14 6 10 30
117 55 237 99 476 168 640 352 834 131 137 237 210 426 291 88 38 88 38 115
20 15 -10 72 -44 128 -75 l100 -57 18 -60 c10 -33 38 -98 62 -145 71 -138 225
-399 246 -417 45 -40 95 -8 106 66 l7 49 32 -49 c17 -27 61 -89 97 -139 93
-127 144 -232 155 -322 12 -96 -2 -208 -35 -285 -36 -85 -37 -125 -2 -151 l26
-20 72 22 c154 47 295 130 408 241 67 65 153 188 172 245 13 40 30 46 30 11 0
-15 11 -33 26 -45 55 -43 86 -22 153 102 63 116 112 233 135 317 9 36 19 71
21 77 3 9 12 8 34 -5 56 -31 75 -10 157 178 40 91 82 201 94 246 l22 80 95 57
c52 31 100 57 107 57 28 0 197 -63 281 -105 105 -52 183 -109 279 -203 177
-171 268 -362 341 -714 73 -347 80 -368 130 -368 31 0 75 37 75 63 0 32 -96
454 -131 577 -41 143 -132 325 -215 429 -130 161 -326 307 -514 381 -47 19
-89 37 -93 41 -4 3 18 26 49 50 120 93 221 243 260 389 27 99 25 275 -5 365
-105 322 -539 1291 -716 1601 -196 340 -448 559 -745 644 -112 32 -318 37
-424 10z m362 -137 c320 -77 552 -307 796 -793 173 -342 572 -1263 601 -1385
46 -190 -11 -385 -153 -531 -65 -67 -328 -254 -357 -254 -7 0 -12 18 -13 41
-2 41 1 45 102 140 184 174 234 277 223 454 -9 145 -80 326 -303 775 -222 449
-305 588 -423 713 -113 119 -252 204 -408 249 -66 19 -103 23 -238 23 -140 0
-169 -3 -235 -23 -228 -72 -407 -222 -555 -467 -145 -240 -427 -830 -519
-1083 -53 -148 -52 -304 4 -417 37 -76 128 -184 214 -253 65 -53 66 -55 66
-103 0 -27 -2 -49 -5 -49 -11 0 -176 102 -235 146 -174 128 -271 287 -287 469
-12 141 23 253 220 700 324 740 467 1031 593 1206 264 367 583 521 912 442z
m-188 -748 c-30 -88 -68 -150 -129 -210 -89 -87 -197 -151 -331 -193 -63 -20
-218 -47 -226 -40 -2 2 18 42 44 88 86 153 255 306 396 359 66 24 178 49 228
50 l37 1 -19 -55z m251 16 c151 -52 279 -148 381 -284 61 -83 103 -155 95
-164 -11 -10 -147 31 -227 69 -107 51 -207 148 -262 253 -37 73 -62 145 -49
145 4 0 32 -8 62 -19z m-66 -290 c106 -145 304 -259 508 -291 l77 -13 0 -73
c0 -222 -64 -408 -185 -543 l-37 -40 -65 56 c-99 84 -158 107 -268 108 -80 0
-96 -3 -138 -27 l-47 -27 -52 27 c-45 23 -64 27 -143 27 -80 0 -97 -3 -155
-31 -36 -17 -94 -57 -129 -89 l-63 -59 -19 25 c-135 169 -188 309 -196 520
l-6 127 65 1 c127 2 284 47 440 127 75 39 110 65 183 139 50 49 101 111 115
137 l24 47 27 -50 c15 -27 44 -71 64 -98z m740 -525 c18 -33 18 -36 2 -54 -15
-16 -17 -44 -17 -213 -1 -200 10 -290 50 -451 29 -113 26 -157 -21 -293 l-42
-119 22 -116 c27 -149 27 -224 -3 -335 -29 -106 -82 -255 -100 -280 -11 -15
-15 -9 -31 44 -21 72 -46 101 -84 101 -50 0 -58 -22 -64 -170 -6 -136 -22
-216 -65 -333 -23 -61 -70 -157 -76 -157 -3 0 -14 29 -26 64 -27 83 -53 116
-90 116 -41 0 -68 -38 -69 -98 -2 -199 -146 -407 -372 -542 -78 -46 -91 -49
-84 -17 21 91 25 120 25 177 0 172 -64 320 -222 519 -90 112 -148 241 -148
328 0 94 -95 127 -129 44 -7 -16 -18 -62 -25 -102 l-12 -73 -36 60 c-170 279
-209 429 -173 663 l17 116 -41 123 c-22 67 -41 138 -41 157 0 19 14 95 30 170
53 238 65 527 25 605 -14 27 -15 37 -5 61 7 16 16 29 20 29 4 0 10 -28 13 -62
14 -149 82 -300 214 -474 l23 -31 -60 -42 c-33 -23 -81 -51 -107 -63 -56 -24
-63 -32 -63 -74 0 -41 20 -57 115 -90 66 -23 98 -28 180 -28 57 -1 120 5 147
13 46 13 48 13 79 -13 61 -52 180 -97 290 -110 108 -13 288 33 383 98 l51 35
60 -14 c85 -20 188 -18 272 5 122 34 163 68 149 126 -5 18 -24 32 -73 54 -67
31 -163 97 -163 113 0 5 18 30 41 55 94 108 185 313 196 445 3 37 9 67 13 67
4 0 15 -16 25 -34z m221 -458 c77 -170 106 -268 108 -358 1 -104 -35 -177
-139 -280 l-75 -74 0 31 c0 17 13 67 29 111 53 144 56 181 27 312 -36 155 -56
298 -55 395 l0 80 26 -50 c15 -27 50 -103 79 -167z m-2146 -28 c-6 -52 -22
-143 -35 -202 -34 -144 -32 -187 11 -319 19 -60 34 -120 32 -132 -3 -19 -12
-13 -76 50 -87 86 -123 155 -130 253 -8 112 20 203 141 454 l62 130 3 -70 c2
-38 -2 -112 -8 -164z m917 65 c13 -9 23 -19 23 -23 0 -11 -119 -129 -155 -153
-62 -41 -167 -90 -227 -104 -61 -14 -158 -20 -158 -10 0 3 17 20 38 38 20 17
75 68 122 112 100 95 135 121 198 146 53 22 121 19 159 -6z m399 -5 c33 -17
92 -61 134 -102 42 -40 102 -97 133 -127 32 -29 56 -56 52 -59 -11 -11 -170
15 -228 38 -32 12 -90 44 -130 70 -77 52 -173 153 -161 171 11 18 66 38 105
39 20 0 61 -13 95 -30z m-118 -284 c28 -21 50 -42 47 -46 -3 -5 -31 -19 -63
-31 -46 -18 -78 -23 -167 -23 -100 -1 -115 1 -169 27 -33 15 -55 31 -50 36 5
4 38 28 74 53 36 26 85 67 110 92 l44 46 61 -58 c33 -32 84 -76 113 -96z"/>
</g>
</svg>
