<?xml version="1.0" standalone="no"?>
<!DOCTYPE svg PUBLIC "-//W3C//DTD SVG 20010904//EN"
 "http://www.w3.org/TR/2001/REC-SVG-20010904/DTD/svg10.dtd">
<svg version="1.0" xmlns="http://www.w3.org/2000/svg"
 width="1024.000000pt" height="1024.000000pt" viewBox="0 0 1024.000000 1024.000000"
 preserveAspectRatio="xMidYMid meet">

<g transform="translate(0.000000,1024.000000) scale(0.100000,-0.100000)"
fill="currentColor" stroke="none">
<path d="M3652 7698 c-19 -25 -50 -94 -82 -183 -130 -369 -142 -848 -30 -1206
l19 -63 -87 -91 c-186 -193 -322 -364 -322 -403 0 -30 28 -54 54 -46 55 18
123 34 144 34 21 0 15 -10 -48 -77 -87 -93 -180 -232 -251 -375 -47 -95 -52
-109 -41 -132 15 -34 34 -33 128 4 42 17 78 29 81 26 2 -2 -15 -41 -38 -87
-23 -46 -56 -122 -75 -169 -64 -168 -135 -501 -114 -541 20 -36 47 -32 123 15
88 55 187 94 287 112 41 7 80 13 85 14 7 0 9 -33 7 -95 -8 -174 27 -406 89
-602 25 -78 34 -94 54 -99 34 -9 43 0 80 82 18 40 48 94 66 120 l32 46 22 -88
c38 -147 115 -324 198 -449 28 -44 36 -50 67 -50 l35 0 19 88 c10 48 22 87 25
87 4 0 19 -26 35 -57 73 -151 161 -272 298 -411 92 -93 122 -109 147 -78 9 10
10 46 5 125 -4 61 -5 111 -2 111 8 0 147 -175 215 -270 73 -103 130 -202 168
-293 28 -67 55 -90 85 -72 6 4 30 49 54 100 66 141 213 356 342 500 l36 40 -7
-113 c-7 -121 -1 -142 38 -142 64 0 316 304 408 493 18 37 36 67 40 67 3 0 12
-28 19 -62 21 -108 23 -113 58 -116 29 -3 35 2 72 60 68 105 147 276 184 401
20 65 36 121 36 125 0 17 56 -79 85 -145 39 -90 55 -108 88 -99 27 6 35 23 66
131 56 196 86 411 79 579 -4 100 -11 95 110 70 79 -16 212 -72 293 -124 54
-35 70 -37 93 -11 17 18 16 26 -3 143 -39 230 -115 469 -192 605 -16 29 -29
55 -29 59 0 8 35 -4 102 -33 61 -27 101 -26 112 3 19 49 -170 373 -299 512
-76 82 -74 85 52 55 79 -18 103 -11 103 31 0 34 -273 365 -377 456 -39 34 -39
30 -4 145 12 39 31 135 42 214 28 190 23 471 -11 660 -24 134 -84 334 -128
421 -41 83 -60 81 -208 -19 -146 -97 -311 -239 -509 -434 l-150 -148 -100 20
c-197 40 -266 46 -525 46 -267 0 -397 -13 -543 -54 l-67 -18 -53 60 c-119 138
-478 450 -643 560 -73 48 -121 60 -142 35z m183 -182 c139 -106 303 -252 454
-404 152 -152 177 -173 200 -169 14 3 76 16 136 30 160 38 255 47 478 47 229
0 341 -11 487 -46 58 -14 119 -27 135 -30 28 -5 44 9 215 178 188 186 405 373
510 440 l58 37 25 -57 c36 -81 73 -218 98 -357 18 -95 22 -160 23 -315 0 -200
-9 -287 -46 -436 -29 -117 -27 -116 -96 -56 l-60 52 23 62 c57 159 73 438 34
629 -26 132 -41 167 -73 175 -38 9 -62 -10 -231 -180 -156 -156 -282 -304
-292 -344 -7 -29 4 -41 117 -125 305 -226 595 -489 801 -728 l63 -74 -68 -7
c-84 -8 -116 -27 -116 -69 0 -26 14 -46 79 -110 94 -93 190 -220 245 -320 31
-58 35 -71 20 -65 -10 5 -54 15 -97 24 l-79 17 -18 -23 c-22 -26 -19 -37 26
-107 50 -79 109 -202 144 -300 37 -106 90 -308 90 -347 l0 -27 -76 35 c-226
105 -511 112 -790 19 -170 -56 -337 -148 -451 -247 l-48 -41 -2 54 c-10 225
-101 490 -229 669 l-32 45 9 90 c8 88 23 172 32 181 2 3 16 0 31 -6 50 -19
156 -12 211 14 105 48 159 143 153 266 l-3 73 106 -6 c116 -7 129 -2 129 45 0
40 -34 51 -165 52 -174 2 -300 -47 -413 -160 -145 -145 -192 -340 -192 -803 0
-179 -2 -202 -15 -197 -90 34 -136 41 -280 41 -125 -1 -159 -4 -207 -21 l-58
-21 0 21 c0 163 -13 510 -22 576 -23 180 -77 301 -182 406 -120 120 -264 172
-440 160 -95 -6 -136 -23 -136 -56 0 -41 22 -48 134 -43 l104 6 -5 -61 c-7
-80 10 -142 57 -201 55 -69 116 -96 215 -96 44 0 92 4 106 8 25 8 26 8 42 -85
28 -156 25 -174 -38 -270 -110 -165 -195 -422 -196 -595 0 -46 -3 -83 -6 -83
-3 0 -26 17 -52 38 -120 99 -226 161 -368 216 -193 75 -338 101 -511 93 -137
-7 -253 -33 -359 -82 -42 -19 -78 -33 -80 -31 -8 7 36 185 76 306 44 135 110
280 166 365 70 105 41 137 -97 107 l-88 -19 38 69 c52 97 129 198 233 303 93
94 107 125 74 159 -20 19 -41 26 -115 34 l-60 7 93 105 c195 219 487 482 772
696 62 47 116 92 119 100 3 8 -1 28 -8 43 -29 55 -171 219 -312 358 -180 179
-209 189 -247 89 -70 -189 -68 -521 5 -743 l21 -63 -53 -47 c-29 -27 -57 -49
-61 -51 -13 -5 -27 38 -54 171 -47 225 -44 507 6 759 20 101 68 256 95 310
l14 28 43 -26 c23 -15 60 -41 82 -58z m188 -546 c93 -100 173 -198 166 -204
-2 -1 -49 -37 -104 -78 -55 -42 -131 -101 -170 -132 l-70 -56 -12 28 c-55 132
-67 446 -22 605 l10 39 57 -53 c31 -29 97 -96 145 -149z m2407 10 c11 -116 1
-264 -25 -376 -26 -113 -25 -113 -108 -43 -39 33 -116 93 -169 132 -53 40 -97
76 -97 81 -1 13 158 193 266 300 l98 98 13 -43 c6 -24 17 -91 22 -149z m-1963
-1381 c62 -36 111 -82 150 -140 34 -52 23 -61 -69 -57 -75 4 -107 21 -145 78
-18 25 -23 47 -23 91 0 71 8 73 87 28z m1367 0 c13 -69 -35 -158 -101 -185
-35 -15 -130 -19 -150 -6 -16 10 27 81 78 129 35 33 135 92 155 93 6 0 14 -14
18 -31z m-1104 -881 c0 -191 14 -308 41 -366 27 -57 146 -175 217 -217 29 -17
51 -36 49 -44 -1 -8 -22 -25 -47 -39 -40 -21 -54 -23 -135 -19 -198 9 -294
104 -295 288 0 71 23 204 51 293 25 83 99 246 110 246 5 0 9 -64 9 -142z m800
81 c41 -79 96 -246 111 -333 6 -38 9 -114 7 -171 -5 -122 -22 -156 -98 -205
-64 -41 -128 -60 -204 -60 -78 0 -127 14 -155 44 l-22 24 68 45 c80 53 172
146 201 203 30 59 42 140 49 337 3 97 8 177 9 177 2 0 18 -27 34 -61z m-1785
-281 c264 -40 498 -166 740 -398 73 -70 142 -131 154 -135 13 -4 32 -29 48
-63 103 -219 416 -304 660 -181 76 38 162 126 189 191 13 33 28 51 47 59 16 7
80 62 142 124 132 131 215 195 342 266 147 81 350 142 508 151 l50 3 3 -120
c4 -140 -10 -275 -41 -405 l-22 -92 -47 73 c-58 93 -110 149 -135 149 -33 0
-49 -30 -67 -124 -10 -49 -31 -129 -46 -177 -29 -87 -101 -242 -118 -253 -5
-3 -22 28 -36 68 -30 82 -53 109 -87 104 -18 -2 -28 -15 -42 -53 -39 -102
-119 -253 -180 -336 -54 -76 -141 -179 -151 -179 -2 0 -4 46 -5 103 -1 90 -3
104 -22 120 -12 9 -27 17 -34 17 -36 0 -290 -310 -406 -498 l-83 -132 -32 57
c-53 96 -125 202 -211 313 -90 117 -222 260 -239 260 -5 0 -18 -6 -29 -14 -15
-11 -19 -31 -23 -120 -2 -58 -8 -106 -11 -106 -4 0 -28 24 -54 54 -115 133
-210 291 -258 426 -27 79 -35 90 -64 90 -31 0 -48 -23 -82 -113 l-30 -79 -26
44 c-61 105 -118 274 -147 438 -14 76 -23 90 -60 90 -31 0 -81 -55 -148 -163
-42 -68 -39 -72 -72 84 -22 103 -41 427 -27 463 6 16 10 16 152 -6z m1563 -3
c29 -9 56 -23 59 -31 3 -8 0 -36 -7 -62 -11 -37 -29 -62 -85 -118 -39 -38 -92
-81 -119 -93 l-48 -24 -42 20 c-100 49 -196 149 -217 226 -16 59 -1 71 126
101 45 11 281 -3 333 -19z m-164 -530 c50 -38 110 -55 197 -55 65 0 77 -2 73
-15 -10 -25 -100 -85 -161 -108 -82 -30 -216 -29 -296 2 -61 24 -131 72 -153
106 -13 19 -11 20 48 17 90 -6 139 5 199 42 30 19 55 34 57 35 2 1 18 -10 36
-24z"/>
<path d="M5675 6109 c-151 -19 -270 -94 -355 -224 -55 -85 -88 -182 -100 -300
-11 -109 -2 -148 38 -153 38 -6 52 15 52 75 0 134 53 289 129 374 80 91 220
147 332 135 211 -24 458 -186 593 -390 76 -115 137 -279 153 -413 l6 -53 -77
0 c-43 0 -86 -5 -97 -10 -25 -14 -24 -50 3 -103 26 -53 48 -131 48 -178 0 -38
24 -69 53 -69 27 0 47 30 47 68 0 36 -21 137 -36 176 -7 18 -3 18 69 12 96 -9
98 -6 86 123 -28 304 -176 574 -411 751 -181 137 -369 200 -533 179z"/>
<path d="M4331 6095 c-91 -26 -187 -71 -273 -128 -267 -178 -436 -471 -463
-803 -9 -107 1 -119 92 -109 41 4 63 3 63 -4 0 -5 -7 -36 -15 -68 -28 -107
-14 -183 33 -183 25 0 52 40 52 78 0 48 21 126 48 179 27 52 27 58 2 83 -17
17 -33 20 -100 20 -44 0 -80 4 -80 9 0 30 34 177 55 241 47 140 164 316 273
407 170 144 379 222 521 196 210 -39 344 -209 358 -453 6 -99 19 -130 54 -130
10 0 25 8 35 17 14 14 16 31 11 107 -14 241 -120 417 -305 509 -83 41 -88 42
-196 44 -75 2 -129 -2 -165 -12z"/>
</g>
</svg>
