<?xml version="1.0" standalone="no"?>
<!DOCTYPE svg PUBLIC "-//W3C//DTD SVG 20010904//EN"
 "http://www.w3.org/TR/2001/REC-SVG-20010904/DTD/svg10.dtd">
<svg version="1.0" xmlns="http://www.w3.org/2000/svg"
 width="96.000000pt" height="96.000000pt" viewBox="0 0 96.000000 96.000000"
 preserveAspectRatio="xMidYMid meet">

<g transform="translate(0.000000,96.000000) scale(0.100000,-0.100000)"
fill="currentColor" stroke="none">
<path d="M415 906 c-130 -58 -153 -245 -42 -343 88 -77 216 -42 268 72 71 156
-79 336 -226 271z m125 -45 c42 -22 80 -90 80 -141 0 -78 -71 -160 -140 -160
-69 0 -140 82 -140 160 0 78 71 160 140 160 14 0 41 -8 60 -19z"/>
<path d="M380 466 c-114 -31 -211 -110 -265 -216 -37 -72 -37 -116 -1 -146
l27 -24 339 0 339 0 27 24 c36 30 36 74 -1 146 -88 173 -286 265 -465 216z
m201 -42 c110 -32 185 -98 235 -208 20 -44 23 -59 14 -76 -10 -20 -19 -20
-350 -20 -326 0 -340 1 -350 20 -22 42 57 176 138 232 92 63 208 83 313 52z"/>
</g>
</svg>
