<?xml version="1.0" standalone="no"?>
<!DOCTYPE svg PUBLIC "-//W3C//DTD SVG 20010904//EN"
 "http://www.w3.org/TR/2001/REC-SVG-20010904/DTD/svg10.dtd">
<svg version="1.0" xmlns="http://www.w3.org/2000/svg"
 width="1024.000000pt" height="1024.000000pt" viewBox="256 230 512 538"
 preserveAspectRatio="xMidYMid meet">

<g transform="translate(0.000000,1024.000000) scale(0.100000,-0.100000)"
fill="currentColor" stroke="none">
<path d="M5034 7601 c-81 -37 -122 -123 -103 -217 10 -50 9 -53 -31 -116 -22
-36 -62 -115 -89 -175 -42 -95 -183 -322 -250 -400 l-19 -23 -63 29 c-140 63
-226 84 -344 85 -120 1 -165 -10 -285 -69 -134 -65 -254 -158 -385 -298 -144
-153 -238 -307 -299 -493 l-27 -82 -48 -4 c-165 -16 -245 -226 -133 -350 49
-54 86 -71 157 -72 75 -1 136 30 179 92 25 35 31 55 36 120 l5 77 70 47 c84
56 318 175 430 218 78 30 80 30 95 12 9 -11 75 -113 147 -228 l131 -209 -5
-51 c-7 -68 11 -121 49 -143 l29 -18 -34 -21 c-23 -13 -44 -39 -62 -76 -26
-53 -27 -63 -22 -144 5 -89 26 -154 69 -214 26 -37 99 -85 151 -99 21 -5 41
-18 44 -27 35 -107 111 -220 207 -309 l56 -52 0 -103 c0 -85 -4 -109 -20 -135
-24 -40 -30 -40 -60 -8 -13 14 -32 25 -41 25 -38 0 -268 -83 -377 -135 -143
-69 -232 -128 -314 -208 -92 -90 -168 -207 -168 -258 0 -28 70 -97 179 -177
441 -327 1089 -457 1679 -336 245 50 530 167 722 295 116 77 240 193 240 223
0 69 -181 281 -310 364 -128 83 -348 179 -507 220 l-64 17 -28 -34 -28 -34
-21 28 c-28 35 -35 76 -31 174 l4 79 78 77 c88 87 138 158 171 247 22 59 25
62 68 73 83 21 152 88 188 182 30 77 33 211 6 263 -23 44 -66 90 -83 90 -22 0
-15 16 13 28 35 17 56 72 53 146 l-3 61 133 215 c73 118 137 219 141 223 17
19 353 -133 508 -230 l93 -58 -7 -38 c-11 -66 13 -135 65 -187 86 -85 202 -93
287 -18 142 125 78 353 -107 377 l-51 6 -29 88 c-54 164 -134 302 -264 451
-176 201 -387 343 -580 391 -131 33 -314 1 -477 -81 l-51 -26 -19 23 c-73 92
-214 319 -252 407 -24 57 -63 132 -85 168 -39 61 -41 68 -35 119 9 78 -2 120
-44 167 -62 69 -145 87 -228 49z m157 -58 c31 -19 69 -85 69 -121 0 -12 -2
-22 -5 -22 -3 0 -28 18 -56 40 -32 25 -61 40 -78 40 -29 0 -108 -51 -118 -75
-9 -26 -23 -16 -23 15 0 44 23 93 55 118 35 28 114 30 156 5z m15 -190 c81
-96 121 -168 190 -333 15 -36 167 -271 232 -360 11 -15 -3 -27 -133 -115 -120
-80 -146 -101 -143 -119 5 -36 34 -29 110 27 236 173 474 277 634 277 95 0
159 -17 269 -70 120 -59 211 -126 327 -242 150 -149 265 -327 316 -488 31 -97
31 -94 -21 -134 l-48 -37 -107 64 c-59 36 -138 80 -177 99 -106 53 -321 138
-348 138 -21 0 -44 -32 -162 -220 l-137 -220 -53 48 c-135 124 -388 205 -684
220 l-126 7 -1 383 c-1 390 -3 412 -38 399 -14 -6 -16 -51 -16 -391 l0 -385
-42 -5 c-24 -3 -83 -8 -133 -11 -261 -18 -511 -104 -631 -217 l-53 -50 -44 69
c-24 37 -86 137 -138 220 -78 127 -98 153 -118 153 -57 0 -358 -138 -531 -243
l-104 -64 -26 27 c-14 15 -35 30 -48 34 -27 9 -27 16 -1 97 27 83 95 221 152
306 64 96 213 251 315 328 97 74 259 157 341 175 193 44 478 -61 774 -288 47
-36 60 -42 72 -32 35 29 15 49 -161 166 -63 42 -114 80 -114 84 0 4 7 14 16
21 40 33 213 312 254 409 50 119 118 228 188 300 49 51 50 51 79 37 15 -8 46
-37 69 -64z m115 -1524 c311 -31 567 -133 640 -253 20 -33 27 -150 10 -161 -5
-3 -19 8 -31 25 -60 84 -244 173 -450 217 -227 49 -597 41 -823 -16 -152 -39
-307 -123 -363 -196 -14 -19 -30 -35 -35 -35 -16 0 -10 120 7 156 88 185 585
310 1045 263z m-2116 -67 c33 -19 75 -92 75 -132 0 -45 -42 -113 -85 -138 -31
-18 -51 -22 -88 -19 -27 2 -53 9 -59 15 -16 16 6 60 36 71 46 18 40 75 -9 87
-32 8 -55 -11 -55 -45 0 -14 -7 -35 -16 -46 -13 -17 -16 -18 -24 -5 -22 36
-23 98 -1 144 43 88 139 117 226 68z m3985 6 c59 -30 95 -98 86 -161 -4 -23
-11 -48 -16 -56 -13 -22 -40 4 -40 39 0 59 -82 81 -96 26 -7 -30 11 -66 34
-66 9 0 24 -13 34 -29 16 -29 16 -29 -13 -41 -38 -16 -114 -7 -147 17 -51 38
-67 70 -67 133 0 43 5 66 21 87 24 33 97 73 134 73 14 0 46 -10 70 -22z
m-1830 -149 c99 -11 249 -46 311 -72 l36 -15 7 -148 c13 -273 30 -359 75 -384
19 -9 19 -11 0 -97 -27 -129 -66 -227 -114 -291 -102 -138 -306 -293 -438
-334 -139 -42 -266 -13 -425 98 -208 145 -302 272 -350 474 -35 146 -35 147
-13 153 10 2 26 18 34 33 19 37 37 224 37 377 l0 117 33 13 c46 20 181 54 263
67 179 29 338 31 544 9z m-896 -226 c-14 -278 -27 -355 -53 -327 -19 18 -63
190 -68 265 l-6 75 59 47 c33 26 62 47 66 47 4 0 5 -48 2 -107z m1388 55 c50
-39 53 -69 25 -208 -28 -133 -52 -199 -68 -183 -15 15 -28 120 -36 292 l-6
153 24 -12 c13 -7 41 -26 61 -42z m-1517 -343 c36 -111 70 -254 62 -262 -11
-10 -52 11 -93 49 -56 52 -84 124 -84 219 0 107 53 197 74 125 5 -17 23 -76
41 -131z m1644 139 c75 -96 40 -289 -67 -371 -24 -18 -51 -33 -61 -33 -16 0
-17 5 -4 68 8 37 29 114 47 172 19 58 37 124 41 148 8 49 16 52 44 16z m-1099
-978 c185 -95 334 -88 523 26 40 24 74 44 77 45 3 2 5 -34 5 -80 1 -86 15
-127 59 -176 l21 -23 -52 -47 c-149 -134 -330 -194 -486 -161 -84 17 -223 90
-292 153 l-59 53 35 50 c32 46 34 55 37 142 l4 93 31 -21 c18 -11 61 -36 97
-54z m-299 -182 c7 -14 51 -62 97 -105 101 -95 223 -161 349 -186 70 -15 93
-16 165 -5 166 24 337 132 458 290 l25 32 85 -26 c47 -14 132 -46 190 -71 230
-99 370 -202 468 -345 37 -54 38 -58 15 -52 -120 27 -617 124 -637 124 -15 0
-28 -6 -30 -12 -2 -7 -16 -134 -31 -283 -15 -148 -30 -277 -34 -285 -4 -8 -19
-17 -32 -20 -21 -6 -49 18 -204 168 -222 216 -330 312 -351 312 -14 0 -73 -54
-409 -373 -105 -100 -122 -113 -145 -107 l-25 6 -31 282 c-18 155 -34 289 -38
297 -3 8 -16 15 -29 15 -21 0 -566 -110 -624 -126 -33 -9 -29 6 20 72 123 166
308 285 590 379 72 25 135 45 138 45 3 0 12 -12 20 -26z m-156 -471 c4 -38 17
-152 29 -255 17 -145 19 -188 10 -188 -52 0 -354 139 -469 216 -80 53 -205
153 -205 163 0 4 30 12 68 19 37 7 171 34 297 61 127 27 238 49 247 50 13 1
18 -12 23 -66z m1727 1 c164 -32 298 -62 298 -65 0 -9 -117 -101 -195 -153
-92 -62 -306 -168 -406 -201 -44 -15 -82 -25 -84 -24 -1 2 9 118 23 257 25
242 27 253 47 249 11 -2 154 -30 317 -63z m-774 -303 c105 -101 192 -187 192
-191 0 -4 -51 -16 -112 -26 -161 -27 -515 -27 -681 0 -65 11 -116 23 -115 27
2 4 104 104 228 222 l225 215 35 -32 c19 -17 122 -114 228 -215z"/>
</g>
</svg>
