<?xml version="1.0" standalone="no"?>
<!DOCTYPE svg PUBLIC "-//W3C//DTD SVG 20010904//EN"
 "http://www.w3.org/TR/2001/REC-SVG-20010904/DTD/svg10.dtd">
<svg version="1.0" xmlns="http://www.w3.org/2000/svg"
 width="1024.000000pt" height="1024.000000pt" viewBox="0 0 1024.000000 1024.000000"
 preserveAspectRatio="xMidYMid meet">

<g transform="translate(0.000000,1024.000000) scale(0.100000,-0.100000)"
fill="currentColor" stroke="none">
<path d="M5064 7673 c-54 -58 -105 -156 -111 -215 l-5 -43 -53 0 c-60 0 -95
-20 -132 -75 -37 -53 -30 -161 12 -204 13 -13 20 -14 31 -5 8 6 14 17 14 25 0
22 30 44 61 44 44 0 69 -31 69 -85 0 -39 -5 -52 -37 -85 -90 -94 -241 -66
-294 55 -15 33 -16 47 -7 81 14 49 5 88 -27 119 -73 74 -195 20 -195 -86 0
-28 9 -47 35 -79 37 -45 41 -63 25 -122 -13 -44 -77 -103 -122 -112 -81 -16
-158 41 -158 118 0 67 41 88 87 45 31 -30 53 -11 53 45 0 60 -37 126 -85 154
-34 20 -50 22 -107 18 -56 -4 -68 -2 -68 10 0 69 -170 264 -230 264 -39 0 -44
23 130 -570 40 -135 88 -299 107 -365 l36 -121 -32 -31 c-30 -31 -31 -33 -31
-128 0 -93 1 -98 29 -125 18 -19 44 -32 70 -36 l41 -7 0 -91 c0 -50 7 -131 15
-181 8 -49 15 -97 14 -105 0 -8 -17 -27 -38 -41 -60 -42 -86 -106 -85 -209 1
-144 59 -279 143 -330 31 -19 40 -30 36 -45 -2 -11 -16 -124 -30 -250 -27
-235 -37 -498 -22 -590 l8 -50 -198 -84 c-325 -138 -469 -212 -540 -276 -160
-144 -227 -316 -323 -823 -36 -190 -40 -226 -29 -237 36 -34 572 -120 1024
-165 308 -30 565 -41 975 -42 635 0 1085 36 1698 138 117 20 234 41 260 48
l47 11 -2 45 c-1 25 -21 137 -43 250 -93 467 -149 612 -294 755 -86 85 -123
105 -476 260 -259 114 -275 122 -272 145 2 14 4 102 4 195 0 129 -7 232 -30
430 -28 237 -30 261 -15 270 100 62 166 198 167 345 1 108 -42 194 -112 221
-16 6 -22 15 -18 27 17 55 36 207 36 288 l0 94 25 0 c15 0 39 7 55 15 49 25
60 51 60 142 0 89 -11 125 -46 147 l-22 15 39 133 c103 343 259 889 259 903 0
79 -196 -83 -238 -197 l-20 -53 -68 3 c-59 3 -74 0 -103 -20 -54 -37 -74 -71
-79 -136 -3 -45 0 -61 12 -71 14 -12 20 -11 39 8 46 43 87 22 87 -45 0 -117
-151 -162 -237 -72 -60 65 -70 144 -22 187 58 53 47 144 -21 185 -62 36 -137
9 -166 -60 -11 -27 -12 -42 -2 -77 6 -24 8 -55 5 -69 -10 -39 -56 -88 -102
-109 -76 -35 -146 -19 -203 45 -61 69 -35 171 41 164 25 -2 35 -10 46 -35 31
-70 91 -13 91 86 0 100 -67 171 -163 171 l-45 0 -7 43 c-11 67 -48 137 -104
200 -29 31 -58 57 -63 57 -6 0 -30 -21 -54 -47z m151 -176 c10 -33 13 -68 9
-95 -9 -60 6 -76 53 -57 41 17 86 19 114 5 24 -13 49 -61 49 -95 0 -25 -1 -25
-22 -11 -12 9 -42 16 -66 16 -38 0 -50 -6 -83 -39 -36 -36 -39 -43 -39 -96 0
-70 20 -115 71 -159 169 -144 441 16 384 227 -5 20 -3 33 10 47 23 25 50 25
75 0 26 -26 25 -46 -3 -73 -48 -45 -58 -94 -36 -182 24 -96 133 -172 232 -162
91 8 167 84 170 169 3 84 -41 138 -113 138 -29 0 -30 2 -19 23 20 39 51 57
100 57 33 0 51 -5 64 -20 33 -36 53 -26 71 38 9 31 23 71 32 87 19 38 73 107
79 101 4 -4 -74 -278 -216 -756 l-48 -165 -965 -3 -964 -2 -74 252 c-169 578
-197 678 -189 678 20 0 80 -100 105 -172 14 -43 31 -78 37 -78 7 0 26 9 42 20
43 28 96 26 134 -6 38 -31 40 -54 6 -54 -61 0 -99 -40 -110 -116 -16 -104 109
-209 225 -189 156 26 248 239 145 335 -29 27 -32 56 -8 82 21 24 55 23 78 -2
17 -18 17 -25 6 -56 -42 -117 93 -274 237 -274 63 0 115 23 164 71 52 52 64
89 55 167 -4 37 -12 53 -42 80 -33 30 -42 33 -83 30 -26 -3 -55 -8 -64 -12
-15 -7 -18 -3 -18 19 0 37 16 62 50 80 36 18 77 19 110 1 43 -24 61 -5 54 57
-7 64 11 119 63 190 l37 50 43 -47 c27 -30 48 -67 58 -99z m919 -1086 c12 -10
16 -32 16 -87 0 -64 -3 -75 -22 -88 -20 -14 -132 -16 -1008 -16 -876 0 -988 2
-1008 16 -19 13 -22 24 -22 88 0 49 4 77 13 84 20 17 173 19 1139 17 709 -1
879 -4 892 -14z m-1074 -290 c-63 -46 -212 -121 -285 -144 -97 -32 -197 -47
-305 -47 -124 0 -123 1 -135 -85 -11 -80 -12 -82 -44 -77 -27 4 -29 8 -41 75
-7 40 -15 127 -17 195 l-6 122 444 0 444 0 -55 -39z m276 -6 c131 -86 341
-177 465 -200 l35 -6 23 -152 c35 -225 35 -224 12 -380 -38 -264 -107 -449
-200 -541 l-48 -47 -99 99 c-118 118 -179 153 -282 159 -45 3 -75 -1 -92 -10
-21 -11 -30 -11 -60 1 -51 21 -147 11 -218 -23 -39 -20 -88 -59 -157 -128
l-100 -99 -52 56 c-66 71 -115 172 -153 316 -62 238 -70 360 -36 575 24 148
12 135 124 135 56 0 136 8 187 19 148 31 342 125 465 225 73 59 97 59 186 1z
m674 -32 c0 -78 -27 -293 -39 -304 -3 -4 -18 -9 -32 -13 l-27 -6 -7 79 c-10
109 -18 123 -85 136 -107 22 -264 84 -390 154 l-55 31 318 0 317 0 0 -77z
m-1727 -474 c5 -88 -7 -356 -17 -366 -11 -11 -67 55 -90 106 -48 108 -56 223
-20 292 19 38 62 69 94 69 l27 0 6 -101z m1748 86 c50 -26 69 -69 69 -156 0
-84 -19 -163 -56 -226 -23 -39 -60 -71 -70 -60 -10 10 -25 317 -19 385 7 80
17 87 76 57z m-1675 -567 c32 -124 99 -258 167 -333 l54 -60 -24 -35 c-33 -47
-73 -126 -73 -143 0 -8 7 -20 15 -27 17 -14 72 -2 154 32 l43 18 45 -40 c52
-48 155 -100 199 -100 36 0 62 26 88 87 18 40 20 41 76 48 32 4 67 4 78 1 10
-4 29 -29 41 -57 32 -70 60 -86 120 -70 56 15 120 51 171 97 l38 34 43 -18
c82 -34 137 -46 154 -32 24 20 18 40 -35 123 -28 43 -50 79 -50 80 0 1 25 29
56 62 69 74 135 206 168 333 12 51 25 94 28 97 3 3 8 -23 11 -57 4 -35 18
-171 32 -303 32 -295 36 -493 12 -585 -10 -36 -53 -139 -96 -230 -44 -91 -82
-174 -85 -184 -4 -11 -11 -74 -16 -141 -12 -155 -46 -257 -125 -374 l-25 -36
0 78 c0 89 -24 164 -67 209 -39 41 -60 37 -73 -14 -21 -82 -73 -233 -97 -281
-13 -26 -64 -91 -114 -145 -49 -53 -102 -116 -117 -139 -15 -23 -30 -42 -34
-43 -4 0 -15 14 -23 30 -9 17 -60 77 -114 134 -112 118 -137 163 -196 351 -21
66 -42 124 -46 129 -16 18 -55 -12 -84 -65 -24 -45 -30 -69 -34 -149 l-6 -95
-43 73 c-70 118 -93 190 -102 327 -9 139 -21 177 -101 337 -139 278 -143 326
-67 985 12 106 24 190 26 188 3 -3 16 -46 28 -97z m722 -154 c54 -37 11 -82
-117 -120 -83 -25 -89 -30 -176 -114 -83 -80 -172 -140 -209 -140 -51 0 209
300 304 350 73 39 162 50 198 24z m273 -20 c29 -16 80 -56 114 -89 69 -67 211
-252 202 -262 -4 -3 -37 9 -74 27 -48 24 -90 57 -148 115 -75 76 -85 82 -156
103 -128 37 -180 89 -127 127 34 25 123 15 189 -21z m-198 -118 c12 -8 58 -26
102 -41 72 -24 88 -34 157 -103 l78 -76 -28 -29 c-30 -32 -104 -73 -142 -78
-22 -4 -29 3 -50 49 -14 29 -32 57 -40 62 -8 6 -58 10 -110 10 -52 0 -102 -4
-110 -10 -8 -5 -26 -33 -40 -62 -23 -48 -28 -53 -54 -50 -40 4 -79 26 -127 69
l-40 36 78 79 c71 71 84 80 158 104 44 15 89 33 100 40 25 18 40 18 68 0z
m-853 -775 c92 -187 100 -216 110 -351 4 -63 15 -137 25 -165 38 -112 114
-245 188 -330 30 -34 38 -38 54 -29 10 7 17 20 15 30 -2 11 -5 71 -9 134 -4
87 -2 123 9 149 l14 35 38 -110 c57 -162 78 -196 188 -312 71 -75 109 -124
132 -171 44 -93 64 -93 107 -5 23 47 63 98 129 168 127 134 151 176 205 356
l23 75 17 -40 c15 -34 17 -61 12 -172 -4 -111 -3 -132 10 -137 22 -9 29 -2 95
88 111 151 167 298 168 441 1 100 13 141 84 289 35 72 71 148 79 169 l16 37
58 -26 c32 -14 122 -53 201 -87 l142 -62 0 -622 c0 -343 1 -626 3 -630 4 -13
-379 -50 -740 -73 -208 -13 -841 -13 -1098 0 -206 10 -464 32 -646 53 l-104
12 0 630 0 629 200 86 c110 48 201 86 203 84 2 -1 34 -66 72 -143z m-540 -669
l0 -609 -52 8 c-178 28 -440 72 -482 81 l-48 10 6 52 c13 102 77 404 112 526
19 69 52 161 74 205 41 87 125 187 195 235 43 29 174 99 188 100 4 0 7 -274 7
-608z m2823 561 c182 -93 285 -231 357 -478 29 -100 120 -537 120 -577 0 -21
-41 -29 -528 -107 -29 -4 -54 -5 -56 -2 -9 14 -2 1211 7 1211 5 0 50 -21 100
-47z"/>
<path d="M5088 7023 c-38 -44 -128 -186 -128 -202 0 -10 27 -56 60 -102 80
-110 87 -119 105 -119 23 0 158 207 151 234 -5 22 -121 185 -140 198 -18 12
-32 9 -48 -9z m80 -127 c23 -35 42 -68 42 -72 0 -12 -81 -134 -89 -134 -10 0
-91 117 -91 132 0 13 81 137 90 138 3 0 24 -29 48 -64z"/>
<path d="M4200 6341 c-20 -38 13 -71 51 -51 21 12 25 40 7 58 -18 18 -46 14
-58 -7z"/>
<path d="M4427 6353 c-13 -12 -7 -50 9 -64 31 -26 70 25 44 56 -13 16 -42 20
-53 8z"/>
<path d="M4640 6340 c-15 -28 22 -65 50 -50 22 12 26 40 8 58 -18 18 -46 14
-58 -8z"/>
<path d="M4867 6353 c-14 -13 -7 -53 11 -62 37 -20 70 27 40 57 -13 13 -41 16
-51 5z"/>
<path d="M5084 6346 c-12 -31 0 -51 31 -51 27 0 30 3 30 30 0 25 -4 30 -28 33
-17 2 -29 -2 -33 -12z"/>
<path d="M5312 6348 c-19 -19 -14 -46 10 -59 18 -10 24 -8 40 11 31 38 -15 83
-50 48z"/>
<path d="M5532 6348 c-17 -17 -15 -32 7 -52 32 -29 72 5 51 45 -12 21 -40 25
-58 7z"/>
<path d="M5757 6353 c-15 -14 -6 -53 14 -63 37 -20 67 28 37 58 -13 13 -41 16
-51 5z"/>
<path d="M5974 6335 c-5 -18 -1 -32 10 -43 23 -23 51 -4 51 34 0 24 -5 30 -27
32 -22 3 -29 -2 -34 -23z"/>
</g>
</svg>
