<?xml version="1.0" standalone="no"?>
<!DOCTYPE svg PUBLIC "-//W3C//DTD SVG 20010904//EN"
 "http://www.w3.org/TR/2001/REC-SVG-20010904/DTD/svg10.dtd">
<svg version="1.0" xmlns="http://www.w3.org/2000/svg"
 width="1024.000000pt" height="1024.000000pt" viewBox="250 250 512.000000 512.000000"
 preserveAspectRatio="xMidYMid meet">

<g transform="translate(0.000000,1024.000000) scale(0.100000,-0.100000)"
fill="currentColor" stroke="none">
<path d="M5073 7573 c-17 -27 -72 -115 -123 -196 l-93 -148 -26 23 c-110 100
-144 128 -157 128 -9 0 -34 -41 -62 -101 l-47 -101 -152 126 c-83 69 -159 126
-168 126 -8 0 -18 -7 -21 -15 -4 -8 28 -170 70 -359 l76 -345 -66 -63 c-176
-168 -303 -404 -353 -656 -33 -164 -42 -284 -46 -639 -6 -501 -20 -570 -171
-863 -95 -181 -135 -290 -159 -424 -16 -94 -19 -235 -6 -326 7 -49 4 -64 -31
-157 -65 -173 -124 -471 -116 -590 l3 -48 105 -27 c544 -143 1253 -215 1842
-189 371 16 743 60 1076 127 156 31 353 83 369 96 38 31 -56 533 -124 662 -14
26 -17 67 -18 241 0 186 -3 220 -24 299 -30 115 -66 200 -139 333 -78 139
-115 234 -142 358 -19 88 -22 149 -30 510 -5 226 -13 448 -19 495 -43 321
-164 579 -369 783 l-79 78 33 147 c91 417 116 542 111 556 -11 28 -38 17 -106
-42 -80 -70 -229 -192 -234 -192 -2 0 -21 39 -42 88 -43 98 -52 112 -70 112
-7 0 -49 -34 -95 -76 -45 -42 -86 -72 -90 -67 -7 7 -47 70 -205 326 -44 71
-63 73 -102 10z m227 -325 c103 -166 182 -284 193 -286 10 -2 64 36 133 95
191 160 307 253 311 249 4 -4 -28 -163 -48 -238 -5 -21 -15 -38 -20 -38 -26 0
-81 -35 -93 -59 -30 -58 -23 -117 18 -156 33 -31 34 -33 23 -78 l-10 -47 -688
0 -687 0 -8 46 c-9 44 -7 48 24 81 28 30 32 41 32 86 0 63 -20 93 -81 122
l-43 20 -28 125 c-15 69 -27 130 -25 136 1 6 98 -69 215 -167 118 -99 220
-179 228 -179 7 0 29 24 48 53 49 75 253 402 290 464 17 29 33 53 36 53 3 0
84 -127 180 -282z m-546 -5 c34 -32 63 -62 64 -66 2 -4 -15 -39 -38 -78 l-43
-69 -50 43 c-76 65 -75 64 -36 151 19 42 36 76 38 76 2 0 32 -26 65 -57z m835
-23 c17 -41 31 -78 31 -81 0 -4 -26 -30 -59 -58 l-59 -51 -43 72 -43 71 68 64
c38 35 70 62 71 61 2 -2 17 -37 34 -78z m-1193 -258 c14 -9 34 -47 34 -64 0
-8 -6 -23 -14 -33 -13 -18 -15 -16 -26 25 -6 25 -13 53 -16 63 -6 18 3 22 22
9z m1460 -52 c-11 -54 -19 -61 -36 -31 -14 27 -13 35 11 65 29 37 37 25 25
-34z m198 -493 c178 -274 226 -501 226 -1078 0 -276 10 -412 40 -554 16 -73
40 -131 129 -310 147 -296 171 -377 171 -588 l0 -122 -32 40 c-80 98 -186 173
-318 224 -42 16 -179 59 -304 95 -126 37 -252 78 -280 92 -115 57 -146 115
-154 280 l-5 111 100 99 c55 55 125 137 156 185 48 73 119 209 140 272 4 9 16
17 27 17 32 0 92 28 124 58 41 39 72 92 96 161 37 110 23 208 -38 272 -34 36
-45 40 -142 60 -302 59 -607 268 -781 534 -32 50 -63 96 -69 103 -22 25 -37
13 -79 -61 -157 -277 -508 -527 -811 -577 -90 -15 -121 -29 -154 -73 -68 -89
-50 -263 38 -379 35 -45 118 -98 155 -98 17 0 30 -19 66 -97 66 -141 163 -281
267 -384 l90 -89 -4 -118 c-8 -222 -52 -263 -391 -358 -405 -113 -512 -164
-637 -302 l-60 -67 0 105 c0 191 41 351 135 530 136 258 171 357 196 548 6 48
14 263 19 477 9 414 16 490 65 660 31 108 107 267 166 352 61 85 158 193 174
193 7 0 16 -15 20 -32 3 -18 11 -45 17 -61 l10 -27 701 2 701 3 12 35 c7 19
16 49 19 65 l7 30 69 -73 c39 -40 94 -110 123 -155z m-266 186 l-3 -28 -659
-3 c-693 -2 -675 -3 -676 41 0 16 39 17 671 17 l670 0 -3 -27z m-618 -390 c24
-38 93 -118 154 -178 169 -167 336 -271 545 -337 l103 -33 -6 -69 c-13 -146
-64 -338 -128 -483 -101 -231 -284 -435 -477 -533 -173 -87 -284 -92 -436 -21
-352 165 -589 549 -650 1053 l-7 57 43 11 c306 77 603 287 767 542 20 31 39
57 42 57 3 1 26 -29 50 -66z m-947 -660 c10 -60 29 -153 42 -207 14 -55 23
-101 21 -104 -15 -15 -110 68 -136 118 -17 32 -40 119 -40 150 0 44 21 102 45
126 42 42 50 33 68 -83z m1860 87 c83 -65 43 -292 -65 -371 -43 -30 -74 -38
-65 -16 27 71 77 314 77 373 0 40 15 44 53 14z m-1265 -1093 c65 -40 161 -78
237 -94 70 -14 78 -14 157 6 46 12 122 41 171 65 l87 43 0 -63 c0 -164 63
-279 187 -342 36 -19 245 -87 288 -94 16 -3 11 -9 -25 -32 -280 -176 -586
-441 -730 -630 -36 -47 -67 -85 -70 -85 -3 0 -23 26 -45 57 -53 76 -328 351
-435 436 -47 37 -144 106 -217 154 -72 48 -132 89 -132 92 -1 3 52 21 117 40
277 81 350 156 360 368 3 56 6 102 9 102 2 0 20 -10 41 -23z m-491 -585 c300
-190 594 -459 750 -685 18 -26 37 -47 43 -47 12 0 18 7 100 117 151 204 471
481 735 639 l91 54 115 -39 c161 -54 243 -96 316 -165 99 -91 156 -198 215
-401 28 -95 60 -269 72 -383 6 -65 17 -59 -224 -113 -96 -21 -185 -41 -196
-44 -21 -5 -22 0 -29 98 -9 127 -32 324 -40 337 -8 13 -42 13 -50 0 -3 -5 1
-58 9 -118 9 -60 18 -158 22 -219 l7 -110 -64 -12 c-424 -76 -1042 -108 -1474
-77 -268 20 -597 57 -719 82 l-29 6 7 97 c4 53 14 152 22 221 14 115 13 126
-2 137 -9 6 -22 9 -29 7 -14 -6 -29 -110 -46 -319 -5 -71 -11 -130 -12 -131
-4 -4 -269 53 -356 76 l-84 23 7 78 c17 210 73 425 148 579 90 181 196 266
441 350 62 22 117 39 122 39 6 1 65 -34 132 -77z"/>
<path d="M5083 7178 c-37 -41 -113 -159 -113 -176 0 -10 29 -61 65 -115 46
-69 71 -97 85 -97 15 0 40 30 90 106 l70 107 -22 38 c-44 72 -118 159 -136
159 -10 0 -28 -10 -39 -22z m79 -100 c19 -29 38 -58 41 -64 4 -6 -13 -42 -37
-78 l-44 -67 -35 48 c-61 85 -61 83 -14 151 23 34 45 62 48 62 3 0 22 -24 41
-52z"/>
</g>
</svg>
