<?xml version="1.0" standalone="no"?>
<!DOCTYPE svg PUBLIC "-//W3C//DTD SVG 20010904//EN"
 "http://www.w3.org/TR/2001/REC-SVG-20010904/DTD/svg10.dtd">
<svg version="1.0" xmlns="http://www.w3.org/2000/svg"
 width="1024.000000pt" height="1024.000000pt" viewBox="245 245 530.000000 530.000000"
 preserveAspectRatio="xMidYMid meet">

<g transform="translate(0.000000,1024.000000) scale(0.100000,-0.100000)"
fill="currentColor" stroke="none">
<path d="M5247 7636 c-107 -39 -167 -147 -167 -300 0 -38 -3 -43 -33 -54 -43
-15 -75 -50 -92 -97 -12 -37 -14 -38 -101 -60 -279 -71 -464 -211 -589 -448
-73 -139 -125 -345 -125 -499 0 -55 -1 -58 -24 -58 -14 0 -38 -11 -53 -24 -28
-24 -28 -25 -30 -154 -2 -157 10 -191 70 -205 l37 -9 0 -91 c0 -221 -35 -454
-101 -670 -46 -150 -46 -187 -3 -274 48 -98 188 -196 283 -197 l46 -1 7 50 c3
28 7 115 7 195 l1 145 35 -52 c87 -129 87 -344 0 -475 l-26 -39 -22 33 c-33
49 -81 70 -142 64 -71 -8 -550 -167 -659 -219 -211 -101 -334 -243 -410 -472
-61 -183 -91 -500 -53 -558 46 -71 292 -149 527 -167 65 -5 182 -24 270 -44
383 -88 759 -136 1135 -143 441 -9 762 28 1377 156 81 17 169 31 196 31 162 0
468 93 527 160 45 50 11 388 -59 592 -44 130 -86 197 -182 294 -70 72 -95 89
-195 138 -71 35 -219 90 -389 147 -343 113 -380 114 -440 16 l-18 -28 -21 30
c-50 70 -65 121 -65 221 0 121 18 202 58 264 l31 49 10 -184 c6 -101 14 -190
19 -198 12 -19 75 -9 141 24 73 35 145 102 180 166 42 77 39 138 -14 314 -55
184 -80 342 -88 551 l-6 171 35 7 c65 12 73 31 76 187 l4 139 -30 30 c-18 18
-41 30 -56 30 -25 0 -26 3 -26 53 0 28 -7 97 -15 152 -67 446 -319 719 -748
812 -33 7 -41 14 -52 46 -17 49 -39 73 -87 94 -38 17 -38 17 -16 30 33 18 87
16 159 -6 102 -31 143 -34 201 -17 104 30 186 118 234 252 23 62 24 69 9 80
-13 10 -24 7 -58 -12 -62 -35 -129 -32 -252 11 -107 37 -166 43 -228 21z m234
-81 c112 -36 159 -42 203 -25 38 14 34 -7 -16 -82 -34 -49 -55 -69 -97 -90
-68 -35 -97 -35 -222 -1 -102 27 -124 27 -193 -2 -18 -8 -19 -5 -13 46 10 81
44 140 97 167 61 31 115 28 241 -13z m-319 -325 c35 -10 68 -41 68 -65 0 -6
-41 -10 -110 -10 -60 0 -110 4 -110 8 0 21 25 50 53 62 39 17 52 18 99 5z
m-72 -414 l0 -284 -25 -6 c-45 -11 -93 -70 -101 -123 -8 -54 -33 -110 -60
-134 -69 -61 -286 -114 -539 -134 -44 -3 -100 -8 -124 -11 l-44 -6 6 109 c17
292 153 567 349 701 133 91 355 165 511 171 l27 1 0 -284z m192 269 c304 -54
529 -210 652 -452 59 -117 106 -318 106 -453 l0 -56 -42 3 c-345 24 -546 64
-639 129 -42 29 -74 86 -84 152 -8 48 -58 107 -100 118 l-25 6 0 284 0 284 28
0 c15 -1 62 -7 104 -15z m-96 -636 c13 -12 28 -43 33 -71 22 -101 78 -170 170
-210 105 -45 327 -82 580 -98 89 -5 166 -12 171 -15 16 -10 13 -240 -3 -254
-10 -7 -150 -12 -458 -13 l-444 -3 -3 -270 -3 -270 -49 -32 c-27 -18 -55 -33
-62 -33 -7 0 -34 15 -60 32 l-48 33 -2 270 -3 270 -444 3 c-308 1 -448 6 -458
13 -15 13 -19 244 -4 253 4 3 82 10 172 16 275 18 491 57 596 106 85 40 153
135 153 211 0 25 36 72 64 84 30 12 76 2 102 -22z m-860 -766 c17 -103 0
-1133 -18 -1133 -17 0 -113 53 -151 84 -97 77 -112 162 -59 327 63 199 90 379
95 632 l2 137 62 0 62 0 7 -47z m626 -210 l3 -257 50 -38 c27 -20 64 -45 81
-54 31 -17 34 -17 69 2 20 10 57 35 83 54 l47 36 3 257 2 257 286 0 287 0 -7
-32 c-14 -69 -18 -378 -7 -518 l11 -145 -44 -90 c-76 -154 -218 -300 -393
-406 -167 -101 -252 -124 -375 -99 -225 44 -532 295 -638 521 l-29 64 10 175
c10 162 7 351 -7 478 l-6 52 286 0 286 0 2 -257z m1091 100 c8 -205 29 -360
68 -503 18 -63 40 -146 50 -185 12 -42 17 -83 13 -105 -10 -56 -51 -117 -107
-159 -46 -35 -116 -71 -137 -71 -17 0 -33 1090 -17 1153 7 26 10 27 66 27 l58
0 6 -157z m-1463 -934 c0 -4 -8 -10 -17 -13 -19 -8 -33 9 -33 43 l0 24 25 -23
c14 -13 25 -27 25 -31z m1130 16 c0 -36 -12 -43 -40 -25 -12 7 -11 13 10 34
13 15 25 26 27 26 2 0 3 -16 3 -35z m-1036 -87 c47 -35 53 -47 34 -66 -24 -24
-58 -14 -79 23 -12 19 -24 35 -27 35 -4 0 -19 -14 -34 -32 -31 -38 -38 -36
-31 10 4 21 11 32 22 32 10 0 26 7 37 15 26 20 28 19 78 -17z m970 17 c11 -8
27 -15 37 -15 11 0 19 -11 23 -32 8 -42 2 -45 -24 -9 -27 39 -41 39 -60 -2
-19 -41 -63 -50 -80 -16 -11 20 -8 26 26 55 44 38 51 39 78 19z m-966 -145
c13 0 37 7 52 17 27 15 29 15 55 -5 18 -14 42 -22 69 -22 22 0 36 -4 31 -8 -6
-4 -18 -19 -28 -34 -26 -41 -63 -38 -84 7 -20 41 -39 45 -55 10 -15 -33 -53
-43 -78 -20 -11 10 -20 24 -20 30 0 7 -6 18 -14 24 -11 9 -19 4 -40 -24 -25
-32 -66 -48 -66 -25 0 22 24 60 39 60 9 0 24 7 34 15 16 12 23 11 50 -6 18
-10 43 -19 55 -19z m1045 -10 c3 -8 8 -23 12 -32 13 -32 -32 -21 -52 12 -23
39 -36 38 -62 -5 -31 -52 -56 -48 -105 19 -13 19 -15 18 -40 -22 -15 -25 -34
-42 -45 -42 -16 0 -71 58 -71 74 0 3 21 3 46 -1 37 -5 51 -2 73 15 25 18 31
19 47 7 26 -20 78 -18 104 3 21 17 25 17 55 3 19 -9 36 -23 38 -31z m-713 -52
c0 -5 -11 -14 -25 -20 -20 -9 -28 -8 -44 6 -10 10 -21 25 -24 35 -4 17 -2 18
44 3 27 -9 49 -20 49 -24z m315 11 c-18 -35 -41 -46 -63 -32 -28 17 -23 28 20
45 60 22 60 22 43 -13z m-170 -29 c-3 -5 -17 -10 -30 -10 -13 0 -27 5 -30 10
-4 6 8 10 30 10 22 0 34 -4 30 -10z m-860 -12 c46 -21 78 -190 79 -418 0 -192
-27 -314 -101 -464 -84 -171 -246 -320 -411 -378 -81 -29 -240 -35 -361 -14
-106 19 -256 66 -316 99 -36 20 -40 27 -43 65 l-3 42 69 -30 c96 -41 221 -75
326 -90 318 -45 556 99 679 410 46 116 62 226 61 420 0 165 -5 210 -39 343 -6
23 -4 27 13 27 12 0 33 -5 47 -12z m322 -8 c30 -23 67 -25 103 -6 21 12 27 12
49 -5 29 -23 56 -24 95 -4 25 13 31 13 45 1 29 -25 61 -29 101 -11 35 16 40
16 61 1 31 -21 67 -20 106 3 26 17 33 18 43 6 21 -26 68 -28 106 -6 32 19 37
20 57 6 29 -20 56 -19 95 5 30 19 35 19 55 5 29 -20 55 -19 93 4 27 16 34 17
55 5 13 -7 41 -13 62 -14 35 0 38 -2 31 -22 -17 -57 -64 -67 -89 -18 -17 33
-42 39 -52 13 -10 -29 -35 -53 -54 -53 -9 0 -30 17 -47 37 l-29 37 -27 -42
c-33 -53 -59 -55 -87 -7 -12 19 -27 35 -34 35 -7 0 -22 -16 -34 -35 -14 -25
-27 -35 -45 -35 -17 0 -30 10 -45 35 -11 19 -25 35 -31 35 -6 0 -20 -16 -31
-35 -16 -27 -27 -35 -50 -35 -23 0 -34 8 -50 35 -24 40 -46 45 -58 12 -22 -57
-73 -60 -104 -6 -19 35 -36 34 -55 -4 -17 -34 -48 -44 -73 -21 -10 9 -19 23
-19 29 0 7 -6 18 -14 24 -11 9 -20 4 -43 -25 -25 -31 -34 -36 -55 -31 -17 5
-30 18 -36 37 -14 38 -38 38 -60 0 -30 -53 -92 -34 -92 28 0 17 6 19 43 15 28
-3 48 0 62 11 25 19 22 20 52 -4z m1389 -2 c-4 -13 -16 -72 -27 -133 -29 -154
-22 -376 15 -520 40 -155 103 -274 196 -367 87 -88 159 -128 279 -154 140 -31
345 -2 546 79 l86 35 -3 -41 c-3 -37 -8 -44 -43 -64 -56 -32 -209 -80 -311
-98 -111 -19 -244 -19 -318 0 -171 45 -346 187 -448 365 -36 63 -83 201 -99
290 -19 105 -16 333 6 455 24 137 45 175 98 175 26 0 29 -3 23 -22z m-1826
-24 c36 -93 51 -364 29 -521 -13 -95 -59 -239 -101 -311 -45 -79 -138 -174
-205 -210 -169 -89 -390 -82 -651 24 -122 49 -114 37 -101 135 47 376 178 589
437 711 77 37 541 198 570 198 7 0 17 -12 22 -26z m2129 -44 c356 -118 483
-184 580 -300 116 -139 162 -270 205 -578 l6 -43 -83 -39 c-178 -84 -402 -119
-549 -86 -201 45 -355 221 -420 481 -31 123 -33 417 -4 540 21 91 22 95 40 95
7 0 108 -32 225 -70z m-479 -33 c0 -7 -20 -34 -45 -60 -48 -53 -67 -54 -95 -3
-18 34 -39 33 -51 -4 -16 -45 -47 -49 -79 -10 -27 33 -60 37 -60 7 0 -8 -9
-22 -19 -31 -24 -22 -57 -8 -71 30 -5 13 -16 24 -25 24 -9 0 -20 -11 -25 -24
-5 -14 -19 -30 -30 -36 -18 -10 -26 -6 -57 27 -33 36 -36 37 -47 19 -6 -11
-20 -28 -30 -39 -19 -20 -19 -20 -46 11 -33 40 -45 40 -65 2 -9 -16 -18 -30
-21 -30 -18 0 -43 23 -48 45 -9 34 -31 32 -53 -5 -23 -40 -58 -40 -81 0 -22
38 -45 38 -59 -1 -10 -25 -16 -30 -40 -27 -20 2 -32 12 -43 35 -8 18 -18 33
-21 33 -4 0 -19 -16 -33 -35 -18 -23 -35 -35 -51 -35 -18 0 -27 8 -36 35 -16
43 -38 45 -61 5 -9 -17 -23 -30 -30 -30 -20 0 -98 76 -98 94 0 21 10 20 40 -4
30 -23 87 -26 117 -5 18 13 22 13 33 0 20 -24 76 -30 105 -11 23 15 28 15 47
1 29 -20 87 -19 109 1 17 15 20 15 45 -5 33 -26 60 -27 100 -2 29 18 31 18 54
-1 29 -24 90 -20 120 7 18 16 21 16 46 -4 33 -26 74 -27 104 -3 22 18 24 18
59 0 39 -20 74 -17 103 9 15 13 19 13 40 -1 30 -21 70 -20 99 3 22 17 27 17
44 5 29 -22 80 -17 112 10 28 24 43 25 43 3z m-1263 -240 c103 -78 256 -154
370 -183 280 -71 538 13 842 273 29 25 42 32 38 20 -4 -10 -7 -70 -8 -133 l0
-114 -52 -39 c-181 -136 -417 -215 -642 -214 -217 2 -449 79 -626 209 l-59 44
0 107 c0 60 -3 119 -6 133 -6 24 -4 23 32 -11 22 -20 71 -61 111 -92z m18 103
c22 -24 72 -26 103 -4 20 14 24 14 44 0 29 -21 77 -20 99 0 16 15 20 15 41 0
28 -20 61 -20 97 -1 26 13 30 13 41 0 15 -18 63 -20 92 -4 14 8 23 8 31 0 16
-16 83 -13 97 4 10 13 17 12 50 -7 l37 -22 38 23 c34 20 39 20 55 6 22 -20 79
-19 101 1 16 14 20 14 48 0 40 -21 53 -20 85 5 24 19 30 20 42 7 12 -12 8 -19
-35 -51 -26 -20 -53 -37 -58 -37 -5 0 -15 11 -21 25 -15 33 -37 32 -52 -4 -16
-40 -46 -46 -76 -16 -13 13 -24 29 -24 35 0 21 -29 9 -42 -17 -7 -14 -21 -31
-31 -37 -15 -9 -24 -5 -50 27 -18 20 -35 37 -39 37 -4 0 -14 -16 -22 -35 -11
-27 -21 -35 -40 -35 -17 0 -30 10 -45 35 -11 19 -25 35 -30 35 -5 0 -18 -16
-30 -35 -13 -22 -28 -35 -41 -35 -13 0 -28 13 -41 35 -12 19 -25 35 -29 35 -5
0 -18 -16 -30 -36 -28 -44 -58 -43 -80 3 -18 39 -40 39 -58 0 -10 -20 -20 -27
-43 -27 -25 0 -33 6 -45 35 -8 19 -18 35 -22 35 -4 0 -19 -14 -33 -32 -26 -31
-27 -31 -50 -15 -54 37 -81 65 -75 76 10 16 20 14 41 -9z m326 -140 c20 0 42
6 48 14 10 12 18 11 50 -7 l38 -21 40 20 c39 20 41 20 63 2 27 -22 42 -23 85
-2 25 12 38 13 54 5 28 -15 74 -14 96 3 17 12 22 12 39 0 11 -8 34 -14 51 -14
l30 -1 -29 -16 c-24 -13 -33 -13 -50 -3 -17 11 -22 9 -38 -11 -34 -45 -39 -49
-58 -49 -10 0 -31 16 -46 35 -14 19 -30 35 -34 35 -4 0 -13 -14 -20 -30 -22
-54 -87 -47 -105 11 -10 29 -31 23 -54 -16 -29 -50 -73 -42 -94 18 -10 26 -35
20 -52 -13 -21 -40 -58 -40 -94 -1 -20 22 -34 28 -53 24 -14 -3 -29 0 -32 6
-5 7 3 11 21 11 16 0 38 6 48 14 17 12 22 12 39 0 11 -8 37 -14 57 -14z m209
-105 c11 -13 8 -15 -15 -15 -23 0 -26 2 -15 15 7 8 14 15 15 15 1 0 8 -7 15
-15z m140 5 c0 -5 -5 -10 -11 -10 -5 0 -7 5 -4 10 3 6 8 10 11 10 2 0 4 -4 4
-10z m-780 -111 c143 -97 338 -170 510 -193 l95 -12 3 -343 2 -343 -92 7
c-269 17 -389 29 -545 51 -177 25 -392 62 -521 90 l-74 16 64 27 c156 66 299
199 391 363 46 83 95 228 103 307 4 34 10 61 13 61 3 0 26 -14 51 -31z m1340
-2 c0 -65 41 -193 97 -307 52 -104 66 -124 158 -216 90 -90 114 -108 203 -152
l102 -50 -238 -46 c-319 -62 -476 -81 -914 -111 l-78 -5 0 345 0 345 44 0
c155 0 387 81 561 197 27 18 53 33 57 33 5 0 8 -15 8 -33z"/>
<path d="M3816 3444 c-19 -18 -21 -55 -4 -72 20 -20 56 -14 74 13 15 23 15 27
0 50 -19 29 -47 32 -70 9z"/>
<path d="M6368 3449 c-21 -12 -24 -59 -6 -77 20 -20 56 -14 74 13 15 23 15 27
0 50 -17 26 -40 31 -68 14z"/>
</g>
</svg>
